<svg width="245" height="46" viewBox="0 0 245 46" fill="none" xmlns="http://www.w3.org/2000/svg">
<mask id="path-1-outside-1_561_567" maskUnits="userSpaceOnUse" x="-1" y="-2" width="247" height="49" fill="black">
<rect fill="white" x="-1" y="-2" width="247" height="49"/>
<path d="M15.05 45.385C12.3733 45.385 9.95333 44.9267 7.79 44.01C5.66333 43.0933 3.97667 41.7733 2.73 40.05C1.48333 38.3267 0.841667 36.2917 0.805 33.945H9.055C9.165 35.5217 9.715 36.7683 10.705 37.685C11.7317 38.6017 13.125 39.06 14.885 39.06C16.6817 39.06 18.0933 38.6383 19.12 37.795C20.1467 36.915 20.66 35.7783 20.66 34.385C20.66 33.2483 20.3117 32.3133 19.615 31.58C18.9183 30.8467 18.0383 30.2783 16.975 29.875C15.9483 29.435 14.5183 28.9583 12.685 28.445C10.1917 27.7117 8.15667 26.9967 6.58 26.3C5.04 25.5667 3.70167 24.485 2.565 23.055C1.465 21.5883 0.915 19.645 0.915 17.225C0.915 14.9517 1.48333 12.9717 2.62 11.285C3.75667 9.59833 5.35167 8.315 7.405 7.435C9.45833 6.51833 11.805 6.06 14.445 6.06C18.405 6.06 21.6133 7.03167 24.07 8.975C26.5633 10.8817 27.9383 13.5583 28.195 17.005H19.725C19.6517 15.685 19.0833 14.6033 18.02 13.76C16.9933 12.88 15.6183 12.44 13.895 12.44C12.3917 12.44 11.1817 12.825 10.265 13.595C9.385 14.365 8.945 15.4833 8.945 16.95C8.945 17.9767 9.275 18.8383 9.935 19.535C10.6317 20.195 11.475 20.745 12.465 21.185C13.4917 21.5883 14.9217 22.065 16.755 22.615C19.2483 23.3483 21.2833 24.0817 22.86 24.815C24.4367 25.5483 25.7933 26.6483 26.93 28.115C28.0667 29.5817 28.635 31.5067 28.635 33.89C28.635 35.9433 28.1033 37.85 27.04 39.61C25.9767 41.37 24.4183 42.7817 22.365 43.845C20.3117 44.8717 17.8733 45.385 15.05 45.385ZM48.8406 45.495C45.9073 45.495 43.2673 44.8533 40.9206 43.57C38.574 42.25 36.7223 40.3983 35.3656 38.015C34.0456 35.6317 33.3856 32.8817 33.3856 29.765C33.3856 26.6483 34.064 23.8983 35.4206 21.515C36.814 19.1317 38.7023 17.2983 41.0856 16.015C43.469 14.695 46.1273 14.035 49.0606 14.035C51.994 14.035 54.6523 14.695 57.0356 16.015C59.419 17.2983 61.289 19.1317 62.6456 21.515C64.039 23.8983 64.7356 26.6483 64.7356 29.765C64.7356 32.8817 64.0206 35.6317 62.5906 38.015C61.1973 40.3983 59.2906 42.25 56.8706 43.57C54.4873 44.8533 51.8106 45.495 48.8406 45.495ZM48.8406 38.785C50.234 38.785 51.5356 38.455 52.7456 37.795C53.9923 37.0983 54.9823 36.0717 55.7156 34.715C56.449 33.3583 56.8156 31.7083 56.8156 29.765C56.8156 26.8683 56.0456 24.65 54.5056 23.11C53.0023 21.5333 51.1506 20.745 48.9506 20.745C46.7506 20.745 44.899 21.5333 43.3956 23.11C41.929 24.65 41.1956 26.8683 41.1956 29.765C41.1956 32.6617 41.9106 34.8983 43.3406 36.475C44.8073 38.015 46.6406 38.785 48.8406 38.785ZM78.0839 18.985C79.0739 17.5183 80.4305 16.3267 82.1539 15.41C83.9139 14.4933 85.9122 14.035 88.1489 14.035C90.7522 14.035 93.0989 14.6767 95.1889 15.96C97.3155 17.2433 98.9839 19.0767 100.194 21.46C101.441 23.8067 102.064 26.5383 102.064 29.655C102.064 32.7717 101.441 35.54 100.194 37.96C98.9839 40.3433 97.3155 42.195 95.1889 43.515C93.0989 44.835 90.7522 45.495 88.1489 45.495C85.8755 45.495 83.8772 45.055 82.1539 44.175C80.4672 43.2583 79.1105 42.085 78.0839 40.655V45H70.3839V4.3H78.0839V18.985ZM94.1989 29.655C94.1989 27.8217 93.8139 26.245 93.0439 24.925C92.3105 23.5683 91.3205 22.5417 90.0739 21.845C88.8639 21.1483 87.5439 20.8 86.1139 20.8C84.7205 20.8 83.4005 21.1667 82.1539 21.9C80.9439 22.5967 79.9539 23.6233 79.1839 24.98C78.4505 26.3367 78.0839 27.9317 78.0839 29.765C78.0839 31.5983 78.4505 33.1933 79.1839 34.55C79.9539 35.9067 80.9439 36.9517 82.1539 37.685C83.4005 38.3817 84.7205 38.73 86.1139 38.73C87.5439 38.73 88.8639 38.3633 90.0739 37.63C91.3205 36.8967 92.3105 35.8517 93.0439 34.495C93.8139 33.1383 94.1989 31.525 94.1989 29.655ZM115.359 19.26C116.349 17.6467 117.633 16.3817 119.209 15.465C120.823 14.5483 122.656 14.09 124.709 14.09V22.175H122.674C120.254 22.175 118.421 22.7433 117.174 23.88C115.964 25.0167 115.359 26.9967 115.359 29.82V45H107.659V14.53H115.359V19.26ZM158.221 29.105C158.221 30.205 158.147 31.195 158.001 32.075H135.726C135.909 34.275 136.679 35.9983 138.036 37.245C139.392 38.4917 141.061 39.115 143.041 39.115C145.901 39.115 147.936 37.8867 149.146 35.43H157.451C156.571 38.3633 154.884 40.7833 152.391 42.69C149.897 44.56 146.836 45.495 143.206 45.495C140.272 45.495 137.632 44.8533 135.286 43.57C132.976 42.25 131.161 40.3983 129.841 38.015C128.557 35.6317 127.916 32.8817 127.916 29.765C127.916 26.6117 128.557 23.8433 129.841 21.46C131.124 19.0767 132.921 17.2433 135.231 15.96C137.541 14.6767 140.199 14.035 143.206 14.035C146.102 14.035 148.687 14.6583 150.961 15.905C153.271 17.1517 155.049 18.93 156.296 21.24C157.579 23.5133 158.221 26.135 158.221 29.105ZM150.246 26.905C150.209 24.925 149.494 23.3483 148.101 22.175C146.707 20.965 145.002 20.36 142.986 20.36C141.079 20.36 139.466 20.9467 138.146 22.12C136.862 23.2567 136.074 24.8517 135.781 26.905H150.246ZM214.786 14.09C218.526 14.09 221.533 15.245 223.806 17.555C226.116 19.8283 227.271 23.0183 227.271 27.125V45H219.571V28.17C219.571 25.7867 218.966 23.9717 217.756 22.725C216.546 21.4417 214.896 20.8 212.806 20.8C210.716 20.8 209.048 21.4417 207.801 22.725C206.591 23.9717 205.986 25.7867 205.986 28.17V45H198.286V28.17C198.286 25.7867 197.681 23.9717 196.471 22.725C195.261 21.4417 193.611 20.8 191.521 20.8C189.395 20.8 187.708 21.4417 186.461 22.725C185.251 23.9717 184.646 25.7867 184.646 28.17V45H176.946V14.53H184.646V18.215C185.636 16.9317 186.901 15.9233 188.441 15.19C190.018 14.4567 191.741 14.09 193.611 14.09C195.995 14.09 198.121 14.6033 199.991 15.63C201.861 16.62 203.31 18.05 204.336 19.92C205.326 18.16 206.756 16.7483 208.626 15.685C210.533 14.6217 212.586 14.09 214.786 14.09ZM242.608 14.53V45H234.908V14.53H242.608ZM244.753 6.61L232.103 12.385V6.885L244.753 0.339998V6.61Z"/>
</mask>
<path d="M7.79 44.01L7.39416 44.9283L7.39985 44.9308L7.79 44.01ZM2.73 40.05L1.91978 40.6361L2.73 40.05ZM0.805 33.945V32.945H-0.210747L-0.194878 33.9606L0.805 33.945ZM9.055 33.945L10.0526 33.8754L9.98766 32.945H9.055V33.945ZM10.705 37.685L10.0256 38.4188L10.0322 38.4249L10.039 38.4309L10.705 37.685ZM19.12 37.795L19.7547 38.5677L19.7628 38.5611L19.7708 38.5543L19.12 37.795ZM19.615 31.58L18.89 32.2687L19.615 31.58ZM16.975 29.875L16.5811 30.7941L16.6005 30.8025L16.6203 30.81L16.975 29.875ZM12.685 28.445L12.4028 29.4044L12.4154 29.408L12.685 28.445ZM6.58 26.3L6.15007 27.2029L6.16287 27.209L6.17584 27.2147L6.58 26.3ZM2.565 23.055L1.765 23.655L1.77343 23.6662L1.78218 23.6772L2.565 23.055ZM2.62 11.285L3.44927 11.8439L2.62 11.285ZM7.405 7.435L7.79892 8.35414L7.80581 8.35119L7.81265 8.34814L7.405 7.435ZM24.07 8.975L23.4496 9.75928L23.456 9.76437L23.4626 9.76936L24.07 8.975ZM28.195 17.005V18.005H29.2722L29.1922 16.9307L28.195 17.005ZM19.725 17.005L18.7265 17.0605L18.779 18.005H19.725V17.005ZM18.02 13.76L17.3692 14.5193L17.3837 14.5317L17.3986 14.5435L18.02 13.76ZM10.265 13.595L9.62181 12.8293L9.61409 12.8358L9.60649 12.8424L10.265 13.595ZM9.935 19.535L9.20905 20.2227L9.22764 20.2424L9.24726 20.261L9.935 19.535ZM12.465 21.185L12.0589 22.0988L12.0789 22.1077L12.0993 22.1157L12.465 21.185ZM16.755 22.615L16.4676 23.5728L16.4728 23.5744L16.755 22.615ZM26.93 28.115L26.1396 28.7276L26.93 28.115ZM27.04 39.61L26.1841 39.0929L27.04 39.61ZM22.365 43.845L22.8122 44.7394L22.8186 44.7363L22.8249 44.733L22.365 43.845ZM15.05 44.385C12.4888 44.385 10.204 43.9468 8.18015 43.0892L7.39985 44.9308C9.70263 45.9065 12.2579 46.385 15.05 46.385V44.385ZM8.18583 43.0917C6.20953 42.2398 4.67194 41.0283 3.54022 39.4639L1.91978 40.6361C3.28139 42.5184 5.11714 43.9468 7.39417 44.9283L8.18583 43.0917ZM3.54022 39.4639C2.42618 37.9239 1.83869 36.0931 1.80488 33.9294L-0.194878 33.9606C-0.155353 36.4902 0.540488 38.7295 1.91978 40.6361L3.54022 39.4639ZM0.805 34.945H9.055V32.945H0.805V34.945ZM8.05743 34.0146C8.18189 35.7986 8.81732 37.3 10.0256 38.4188L11.3844 36.9512C10.6127 36.2367 10.1481 35.2447 10.0526 33.8754L8.05743 34.0146ZM10.039 38.4309C11.2955 39.5528 12.9499 40.06 14.885 40.06V38.06C13.3001 38.06 12.1678 37.6505 11.371 36.9391L10.039 38.4309ZM14.885 40.06C16.8317 40.06 18.495 39.6025 19.7547 38.5677L18.4853 37.0223C17.6917 37.6741 16.5317 38.06 14.885 38.06V40.06ZM19.7708 38.5543C21.0267 37.4777 21.66 36.0601 21.66 34.385H19.66C19.66 35.4966 19.2666 36.3523 18.4692 37.0357L19.7708 38.5543ZM21.66 34.385C21.66 33.0264 21.2356 31.8339 20.34 30.8913L18.89 32.2687C19.3878 32.7927 19.66 33.4703 19.66 34.385H21.66ZM20.34 30.8913C19.5277 30.0362 18.5158 29.3899 17.3297 28.94L16.6203 30.81C17.5609 31.1668 18.3089 31.6571 18.89 32.2687L20.34 30.8913ZM17.3689 28.9559C16.2835 28.4907 14.8053 28.0002 12.9546 27.482L12.4154 29.408C14.2314 29.9164 15.6132 30.3793 16.5811 30.7941L17.3689 28.9559ZM12.9672 27.4856C10.4968 26.7591 8.5067 26.0581 6.98416 25.3853L6.17584 27.2147C7.80663 27.9353 9.88651 28.6643 12.4028 29.4044L12.9672 27.4856ZM7.00993 25.3971C5.61702 24.7338 4.39662 23.7522 3.34782 22.4328L1.78218 23.6772C3.00671 25.2178 4.46298 26.3995 6.15007 27.2029L7.00993 25.3971ZM3.365 22.455C2.43088 21.2095 1.915 19.4976 1.915 17.225H-0.0849998C-0.0849998 19.7924 0.499117 21.9672 1.765 23.655L3.365 22.455ZM1.915 17.225C1.915 15.1265 2.43674 13.3463 3.44927 11.8439L1.79073 10.7261C0.529923 12.597 -0.0849998 14.7769 -0.0849998 17.225H1.915ZM3.44927 11.8439C4.468 10.3322 5.90427 9.16613 7.79892 8.35414L7.01108 6.51585C4.79906 7.46386 3.04533 8.86448 1.79073 10.7261L3.44927 11.8439ZM7.81265 8.34814C9.71733 7.49784 11.9213 7.06 14.445 7.06V5.06C11.6887 5.06 9.19934 5.53883 6.99735 6.52186L7.81265 8.34814ZM14.445 7.06C18.2404 7.06 21.2118 7.98909 23.4496 9.75928L24.6904 8.19072C22.0149 6.07424 18.5696 5.06 14.445 5.06V7.06ZM23.4626 9.76936C25.7047 11.4839 26.9599 13.885 27.1978 17.0793L29.1922 16.9307C28.9168 13.2316 27.422 10.2794 24.6775 8.18064L23.4626 9.76936ZM28.195 16.005H19.725V18.005H28.195V16.005ZM20.7235 16.9495C20.6338 15.3356 19.9219 13.9921 18.6414 12.9765L17.3986 14.5435C18.2448 15.2146 18.6695 16.0344 18.7265 17.0605L20.7235 16.9495ZM18.6708 13.0007C17.4177 11.9266 15.7898 11.44 13.895 11.44V13.44C15.4468 13.44 16.569 13.8334 17.3692 14.5193L18.6708 13.0007ZM13.895 11.44C12.2183 11.44 10.7609 11.8724 9.62181 12.8293L10.9082 14.3607C11.6024 13.7776 12.5651 13.44 13.895 13.44V11.44ZM9.60649 12.8424C8.45633 13.8488 7.945 15.274 7.945 16.95H9.945C9.945 15.6926 10.3137 14.8812 10.9235 14.3476L9.60649 12.8424ZM7.945 16.95C7.945 18.2129 8.36003 19.3266 9.20905 20.2227L10.661 18.8473C10.19 18.3501 9.945 17.7404 9.945 16.95H7.945ZM9.24726 20.261C10.0363 21.0085 10.9782 21.6185 12.0589 22.0988L12.8711 20.2712C11.9718 19.8715 11.227 19.3815 10.6227 18.809L9.24726 20.261ZM12.0993 22.1157C13.1637 22.5339 14.624 23.0197 16.4677 23.5728L17.0423 21.6572C15.2193 21.1103 13.8196 20.6428 12.8307 20.2542L12.0993 22.1157ZM16.4728 23.5744C18.9393 24.2998 20.9229 25.0169 22.4383 25.7217L23.2817 23.9083C21.6437 23.1464 19.5574 22.3969 17.0372 21.6556L16.4728 23.5744ZM22.4383 25.7217C23.8607 26.3833 25.0939 27.3783 26.1396 28.7276L27.7204 27.5024C26.4928 25.9184 25.0126 24.7133 23.2817 23.9083L22.4383 25.7217ZM26.1396 28.7276C27.1059 29.9745 27.635 31.6647 27.635 33.89H29.635C29.635 31.3486 29.0274 29.1889 27.7204 27.5024L26.1396 28.7276ZM27.635 33.89C27.635 35.7608 27.1533 37.4887 26.1841 39.0929L27.8959 40.1271C29.0534 38.2113 29.635 36.1259 29.635 33.89H27.635ZM26.1841 39.0929C25.2276 40.6761 23.8157 41.9676 21.9051 42.957L22.8249 44.733C25.021 43.5957 26.7258 42.0639 27.8959 40.1271L26.1841 39.0929ZM21.9178 42.9506C20.0316 43.8937 17.7531 44.385 15.05 44.385V46.385C17.9935 46.385 20.5918 45.8497 22.8122 44.7394L21.9178 42.9506ZM40.9206 43.57L40.4303 44.4416L40.4408 44.4474L40.9206 43.57ZM35.3656 38.015L34.4908 38.4995L34.4966 38.5097L35.3656 38.015ZM35.4206 21.515L34.5573 21.0103L34.5516 21.0203L35.4206 21.515ZM41.0856 16.015L41.5598 16.8955L41.5701 16.8898L41.0856 16.015ZM57.0356 16.015L56.5511 16.8899L56.5615 16.8955L57.0356 16.015ZM62.6456 21.515L61.7765 22.0097L61.7823 22.0197L62.6456 21.515ZM62.5906 38.015L61.7331 37.5005L61.7273 37.5103L62.5906 38.015ZM56.8706 43.57L57.3447 44.4505L57.3495 44.4479L56.8706 43.57ZM52.7456 37.795L53.2245 38.6729L53.2334 38.6679L52.7456 37.795ZM55.7156 34.715L56.5953 35.1905L55.7156 34.715ZM54.5056 23.11L53.7819 23.8001L53.7901 23.8087L53.7985 23.8171L54.5056 23.11ZM43.3956 23.11L42.6719 22.4199L42.6715 22.4203L43.3956 23.11ZM43.3406 36.475L42.5999 37.1468L42.6081 37.1558L42.6165 37.1647L43.3406 36.475ZM48.8406 44.495C46.0584 44.495 43.5861 43.8879 41.4004 42.6926L40.4408 44.4474C42.9485 45.8188 45.7562 46.495 48.8406 46.495V44.495ZM41.4109 42.6984C39.2254 41.4691 37.5034 39.7491 36.2347 37.5203L34.4966 38.5097C35.9412 41.0476 37.9225 43.0309 40.4304 44.4416L41.4109 42.6984ZM36.2404 37.5305C35.0137 35.3156 34.3856 32.7369 34.3856 29.765H32.3856C32.3856 33.0265 33.0775 35.9477 34.4908 38.4995L36.2404 37.5305ZM34.3856 29.765C34.3856 26.7977 35.03 24.2227 36.2897 22.0097L34.5516 21.0203C33.0979 23.574 32.3856 26.4989 32.3856 29.765H34.3856ZM36.2839 22.0197C37.5865 19.7917 39.3415 18.0899 41.5597 16.8955L40.6115 15.1345C38.063 16.5068 36.0415 18.4717 34.5573 21.0103L36.2839 22.0197ZM41.5701 16.8898C43.7939 15.6582 46.2834 15.035 49.0606 15.035V13.035C45.9712 13.035 43.144 13.7318 40.6011 15.1402L41.5701 16.8898ZM49.0606 15.035C51.8378 15.035 54.3274 15.6582 56.5511 16.8898L57.5201 15.1402C54.9772 13.7318 52.1501 13.035 49.0606 13.035V15.035ZM56.5615 16.8955C58.7773 18.0886 60.5115 19.7872 61.7766 22.0097L63.5147 21.0203C62.0665 18.4761 60.0606 16.5081 57.5097 15.1345L56.5615 16.8955ZM61.7823 22.0197C63.0751 24.2309 63.7356 26.8024 63.7356 29.765H65.7356C65.7356 26.4943 65.0029 23.5657 63.5089 21.0103L61.7823 22.0197ZM63.7356 29.765C63.7356 32.723 63.0589 35.2908 61.7331 37.5005L63.4481 38.5295C64.9823 35.9725 65.7356 33.0404 65.7356 29.765H63.7356ZM61.7273 37.5103C60.4257 39.7368 58.6518 41.4594 56.3918 42.6921L57.3495 44.4479C59.9294 43.0406 61.9689 41.0598 63.4539 38.5197L61.7273 37.5103ZM56.3965 42.6895C54.1727 43.887 51.6616 44.495 48.8406 44.495V46.495C51.9597 46.495 54.8019 45.8197 57.3447 44.4505L56.3965 42.6895ZM48.8406 39.785C50.3994 39.785 51.8659 39.4139 53.2245 38.6729L52.2668 36.9171C51.2053 37.4961 50.0686 37.785 48.8406 37.785V39.785ZM53.2334 38.6679C54.6591 37.8713 55.7792 36.7003 56.5953 35.1905L54.8359 34.2395C54.1853 35.4431 53.3255 36.3254 52.2578 36.9221L53.2334 38.6679ZM56.5953 35.1905C57.4256 33.6546 57.8156 31.832 57.8156 29.765H55.8156C55.8156 31.5846 55.4724 33.0621 54.8359 34.2395L56.5953 35.1905ZM57.8156 29.765C57.8156 26.6936 56.9958 24.186 55.2127 22.4029L53.7985 23.8171C55.0954 25.114 55.8156 27.043 55.8156 29.765H57.8156ZM55.2294 22.4199C53.5352 20.6431 51.421 19.745 48.9506 19.745V21.745C50.8802 21.745 52.4694 22.4235 53.7819 23.8001L55.2294 22.4199ZM48.9506 19.745C46.4802 19.745 44.366 20.6431 42.6719 22.4199L44.1194 23.8001C45.4319 22.4235 47.021 21.745 48.9506 21.745V19.745ZM42.6715 22.4203C40.9718 24.2051 40.1956 26.7062 40.1956 29.765H42.1956C42.1956 27.0305 42.8862 25.0949 44.1198 23.7997L42.6715 22.4203ZM40.1956 29.765C40.1956 32.8194 40.9508 35.3286 42.5999 37.1468L44.0813 35.8032C42.8704 34.4681 42.1956 32.5039 42.1956 29.765H40.1956ZM42.6165 37.1647C44.2791 38.9104 46.3776 39.785 48.8406 39.785V37.785C46.9037 37.785 45.3355 37.1196 44.0648 35.7853L42.6165 37.1647ZM78.0839 18.985H77.0839V22.2539L78.9127 19.5445L78.0839 18.985ZM82.1539 15.41L81.6919 14.5231L81.6843 14.5271L82.1539 15.41ZM95.1889 15.96L94.6656 16.8122L94.6722 16.8162L95.1889 15.96ZM100.194 21.46L99.3022 21.9127L99.3064 21.921L99.3108 21.9292L100.194 21.46ZM100.194 37.96L99.3049 37.502L99.3022 37.5073L100.194 37.96ZM95.1889 43.515L94.6615 42.6653L94.6549 42.6695L95.1889 43.515ZM82.1539 44.175L81.6764 45.0536L81.6876 45.0598L81.6991 45.0656L82.1539 44.175ZM78.0839 40.655L78.8962 40.0718L77.0839 37.5475V40.655H78.0839ZM78.0839 45V46H79.0839V45H78.0839ZM70.3839 45H69.3839V46H70.3839V45ZM70.3839 4.3V3.3H69.3839V4.3H70.3839ZM78.0839 4.3H79.0839V3.3H78.0839V4.3ZM93.0439 24.925L92.1642 25.4005L92.1719 25.4148L92.1801 25.4289L93.0439 24.925ZM90.0739 21.845L89.5749 22.7117L89.586 22.7179L90.0739 21.845ZM82.1539 21.9L82.6529 22.7667L82.6609 22.7619L82.1539 21.9ZM79.1839 24.98L78.3142 24.4864L78.3091 24.4954L78.3042 24.5045L79.1839 24.98ZM79.1839 34.55L78.3042 35.0255L78.3091 35.0346L78.3142 35.0436L79.1839 34.55ZM82.1539 37.685L81.6356 38.5402L81.6507 38.5493L81.666 38.5579L82.1539 37.685ZM90.0739 37.63L89.5668 36.768L89.5556 36.7748L90.0739 37.63ZM93.0439 34.495L92.1742 34.0014L92.1691 34.0104L92.1642 34.0195L93.0439 34.495ZM78.9127 19.5445C79.8021 18.2269 81.0294 17.1408 82.6235 16.2929L81.6843 14.5271C79.8317 15.5125 78.3457 16.8097 77.255 18.4255L78.9127 19.5445ZM82.6158 16.2969C84.2159 15.4635 86.0524 15.035 88.1489 15.035V13.035C85.772 13.035 83.6119 13.5231 81.6919 14.5231L82.6158 16.2969ZM88.1489 15.035C90.5793 15.035 92.7428 15.6315 94.6656 16.8122L95.7121 15.1078C93.4549 13.7218 90.9251 13.035 88.1489 13.035V15.035ZM94.6722 16.8162C96.6263 17.9954 98.1702 19.6831 99.3022 21.9127L101.086 21.0073C99.7975 18.4702 98.0048 16.4913 95.7055 15.1038L94.6722 16.8162ZM99.3108 21.9292C100.468 24.1083 101.064 26.6736 101.064 29.655H103.064C103.064 26.4031 102.413 23.5051 101.077 20.9908L99.3108 21.9292ZM101.064 29.655C101.064 32.6356 100.469 35.243 99.3049 37.502L101.083 38.418C102.412 35.837 103.064 32.9078 103.064 29.655H101.064ZM99.3022 37.5073C98.1692 39.739 96.6221 41.4484 94.6615 42.6654L95.7162 44.3646C98.009 42.9416 99.7986 40.9477 101.086 38.4127L99.3022 37.5073ZM94.6549 42.6695C92.7334 43.8831 90.5737 44.495 88.1489 44.495V46.495C90.9307 46.495 93.4644 45.7869 95.7229 44.3605L94.6549 42.6695ZM88.1489 44.495C86.0061 44.495 84.1685 44.0809 82.6086 43.2844L81.6991 45.0656C83.5859 46.0291 85.745 46.495 88.1489 46.495V44.495ZM82.6314 43.2964C81.065 42.4451 79.8272 41.3686 78.8962 40.0718L77.2715 41.2382C78.3939 42.8014 79.8694 44.0716 81.6764 45.0536L82.6314 43.2964ZM77.0839 40.655V45H79.0839V40.655H77.0839ZM78.0839 44H70.3839V46H78.0839V44ZM71.3839 45V4.3H69.3839V45H71.3839ZM70.3839 5.3H78.0839V3.3H70.3839V5.3ZM77.0839 4.3V18.985H79.0839V4.3H77.0839ZM95.1989 29.655C95.1989 27.68 94.7832 25.922 93.9076 24.4211L92.1801 25.4289C92.8446 26.568 93.1989 27.9633 93.1989 29.655H95.1989ZM93.9236 24.4495C93.1075 22.9397 91.9873 21.7687 90.5617 20.9721L89.586 22.7179C90.6537 23.3146 91.5136 24.1969 92.1642 25.4005L93.9236 24.4495ZM90.5728 20.9784C89.2073 20.1921 87.7146 19.8 86.1139 19.8V21.8C87.3732 21.8 88.5205 22.1045 89.5749 22.7116L90.5728 20.9784ZM86.1139 19.8C84.5353 19.8 83.0411 20.2179 81.6469 21.0381L82.6609 22.7619C83.76 22.1154 84.9058 21.8 86.1139 21.8V19.8ZM81.6549 21.0334C80.2727 21.8292 79.1617 22.9932 78.3142 24.4864L80.0536 25.4736C80.7461 24.2535 81.6151 23.3641 82.6528 22.7666L81.6549 21.0334ZM78.3042 24.5045C77.4782 26.0325 77.0839 27.7969 77.0839 29.765H79.0839C79.0839 28.0664 79.4228 26.6409 80.0636 25.4555L78.3042 24.5045ZM77.0839 29.765C77.0839 31.7331 77.4782 33.4975 78.3042 35.0255L80.0636 34.0745C79.4228 32.8891 79.0839 31.4636 79.0839 29.765H77.0839ZM78.3142 35.0436C79.1597 36.5332 80.2649 37.7095 81.6356 38.5402L82.6722 36.8298C81.6229 36.1939 80.7481 35.2801 80.0536 34.0564L78.3142 35.0436ZM81.666 38.5579C83.0579 39.3358 84.5453 39.73 86.1139 39.73V37.73C84.8957 37.73 83.7431 37.4276 82.6417 36.8121L81.666 38.5579ZM86.1139 39.73C87.7246 39.73 89.2241 39.3143 90.5922 38.4852L89.5556 36.7748C88.5036 37.4123 87.3632 37.73 86.1139 37.73V39.73ZM90.5809 38.4919C91.9952 37.66 93.1095 36.4765 93.9236 34.9705L92.1642 34.0195C91.5115 35.2268 90.6459 36.1333 89.5668 36.7681L90.5809 38.4919ZM93.9136 34.9886C94.7845 33.4541 95.1989 31.6637 95.1989 29.655H93.1989C93.1989 31.3863 92.8433 32.8225 92.1742 34.0014L93.9136 34.9886ZM115.359 19.26H114.359V22.8016L116.212 19.783L115.359 19.26ZM119.209 15.465L118.715 14.5955L118.707 14.6005L119.209 15.465ZM124.709 14.09H125.709V13.09H124.709V14.09ZM124.709 22.175V23.175H125.709V22.175H124.709ZM117.174 23.88L116.501 23.141L116.495 23.1461L116.49 23.1511L117.174 23.88ZM115.359 45V46H116.359V45H115.359ZM107.659 45H106.659V46H107.659V45ZM107.659 14.53V13.53H106.659V14.53H107.659ZM115.359 14.53H116.359V13.53H115.359V14.53ZM116.212 19.783C117.118 18.3051 118.284 17.1598 119.712 16.3295L118.707 14.6005C116.981 15.6035 115.58 16.9882 114.507 18.737L116.212 19.783ZM119.703 16.3345C121.15 15.5122 122.81 15.09 124.709 15.09V13.09C122.502 13.09 120.495 13.5844 118.715 14.5955L119.703 16.3345ZM123.709 14.09V22.175H125.709V14.09H123.709ZM124.709 21.175H122.674V23.175H124.709V21.175ZM122.674 21.175C120.112 21.175 117.998 21.7759 116.501 23.141L117.848 24.619C118.844 23.7108 120.396 23.175 122.674 23.175V21.175ZM116.49 23.1511C114.976 24.5734 114.359 26.9036 114.359 29.82H116.359C116.359 27.0897 116.953 25.4599 117.859 24.6088L116.49 23.1511ZM114.359 29.82V45H116.359V29.82H114.359ZM115.359 44H107.659V46H115.359V44ZM108.659 45V14.53H106.659V45H108.659ZM107.659 15.53H115.359V13.53H107.659V15.53ZM114.359 14.53V19.26H116.359V14.53H114.359ZM158.001 32.075V33.075H158.848L158.987 32.2394L158.001 32.075ZM135.726 32.075V31.075H134.639L134.729 32.158L135.726 32.075ZM138.036 37.245L137.359 37.9813L138.036 37.245ZM149.146 35.43V34.43H148.523L148.249 34.9881L149.146 35.43ZM157.451 35.43L158.408 35.7173L158.795 34.43H157.451V35.43ZM152.391 42.69L152.991 43.49L152.998 43.4844L152.391 42.69ZM135.286 43.57L134.789 44.4382L134.798 44.4429L134.806 44.4474L135.286 43.57ZM129.841 38.015L128.96 38.4891L128.966 38.4995L129.841 38.015ZM129.841 21.46L128.96 20.9859L129.841 21.46ZM135.231 15.96L135.716 16.8342L135.231 15.96ZM150.961 15.905L150.48 16.7818L150.486 16.785L150.961 15.905ZM156.296 21.24L155.416 21.7149L155.42 21.7233L155.425 21.7316L156.296 21.24ZM150.246 26.905V27.905H151.264L151.245 26.8865L150.246 26.905ZM148.101 22.175L147.445 22.93L147.451 22.935L147.456 22.9399L148.101 22.175ZM138.146 22.12L138.809 22.8686L138.81 22.8674L138.146 22.12ZM135.781 26.905L134.791 26.7636L134.628 27.905H135.781V26.905ZM157.221 29.105C157.221 30.1621 157.15 31.0957 157.014 31.9106L158.987 32.2394C159.145 31.2943 159.221 30.2479 159.221 29.105H157.221ZM158.001 31.075H135.726V33.075H158.001V31.075ZM134.729 32.158C134.929 34.5558 135.782 36.5322 137.359 37.9813L138.712 36.5087C137.576 35.4644 136.889 33.9942 136.722 31.992L134.729 32.158ZM137.359 37.9813C138.915 39.4109 140.83 40.115 143.041 40.115V38.115C141.291 38.115 139.87 37.5724 138.712 36.5087L137.359 37.9813ZM143.041 40.115C144.616 40.115 146.026 39.7757 147.229 39.0499C148.434 38.3225 149.366 37.2451 150.043 35.8718L148.249 34.9881C147.715 36.0716 147.025 36.8367 146.195 37.3376C145.363 37.8401 144.326 38.115 143.041 38.115V40.115ZM149.146 36.43H157.451V34.43H149.146V36.43ZM156.493 35.1427C155.675 37.869 154.114 40.1135 151.783 41.8956L152.998 43.4844C155.654 41.4532 157.466 38.8577 158.408 35.7173L156.493 35.1427ZM151.791 41.89C149.498 43.6096 146.656 44.495 143.206 44.495V46.495C147.015 46.495 150.297 45.5104 152.991 43.49L151.791 41.89ZM143.206 44.495C140.423 44.495 137.951 43.8879 135.765 42.6926L134.806 44.4474C137.313 45.8188 140.121 46.495 143.206 46.495V44.495ZM135.782 42.7018C133.635 41.4749 131.949 39.7577 130.715 37.5305L128.966 38.4995C130.372 41.039 132.317 43.0251 134.789 44.4382L135.782 42.7018ZM130.721 37.5409C129.527 35.324 128.916 32.7414 128.916 29.765H126.916C126.916 33.0219 127.587 35.9393 128.96 38.4891L130.721 37.5409ZM128.916 29.765C128.916 26.7497 129.528 24.1494 130.721 21.9341L128.96 20.9859C127.586 23.5373 126.916 26.4736 126.916 29.765H128.916ZM130.721 21.9341C131.916 19.7148 133.578 18.0223 135.716 16.8342L134.745 15.0858C132.264 16.4644 130.332 18.4385 128.96 20.9859L130.721 21.9341ZM135.716 16.8342C137.858 15.6442 140.345 15.035 143.206 15.035V13.035C140.053 13.035 137.223 13.7092 134.745 15.0858L135.716 16.8342ZM143.206 15.035C145.954 15.035 148.37 15.6251 150.48 16.7818L151.441 15.0282C149.004 13.6916 146.25 13.035 143.206 13.035V15.035ZM150.486 16.785C152.624 17.9391 154.262 19.5766 155.416 21.7149L157.176 20.7651C155.836 18.2834 153.917 16.3643 151.436 15.025L150.486 16.785ZM155.425 21.7316C156.612 23.8353 157.221 26.2832 157.221 29.105H159.221C159.221 25.9868 158.546 23.1914 157.166 20.7484L155.425 21.7316ZM151.245 26.8865C151.204 24.6464 150.38 22.7868 148.745 21.4101L147.456 22.9399C148.608 23.9099 149.214 25.2036 149.246 26.9235L151.245 26.8865ZM148.756 21.42C147.164 20.0369 145.219 19.36 142.986 19.36V21.36C144.785 21.36 146.251 21.8931 147.445 22.93L148.756 21.42ZM142.986 19.36C140.855 19.36 138.999 20.023 137.481 21.3726L138.81 22.8674C139.932 21.8703 141.303 21.36 142.986 21.36V19.36ZM137.483 21.3714C135.986 22.6966 135.11 24.5269 134.791 26.7636L136.771 27.0464C137.038 25.1765 137.738 23.8167 138.809 22.8686L137.483 21.3714ZM135.781 27.905H150.246V25.905H135.781V27.905ZM223.806 17.555L223.094 18.2564L223.099 18.2621L223.105 18.2677L223.806 17.555ZM227.271 45V46H228.271V45H227.271ZM219.571 45H218.571V46H219.571V45ZM217.756 22.725L217.029 23.411L217.034 23.4163L217.039 23.4215L217.756 22.725ZM207.801 22.725L207.084 22.0282L207.084 22.0285L207.801 22.725ZM205.986 45V46H206.986V45H205.986ZM198.286 45H197.286V46H198.286V45ZM196.471 22.725L195.744 23.411L195.749 23.4163L195.754 23.4215L196.471 22.725ZM186.461 22.725L185.744 22.0282L185.744 22.0285L186.461 22.725ZM184.646 45V46H185.646V45H184.646ZM176.946 45H175.946V46H176.946V45ZM176.946 14.53V13.53H175.946V14.53H176.946ZM184.646 14.53H185.646V13.53H184.646V14.53ZM184.646 18.215H183.646V21.1485L185.438 18.8258L184.646 18.215ZM188.441 15.19L188.02 14.2832L188.011 14.2871L188.441 15.19ZM199.991 15.63L199.51 16.5066L199.517 16.5102L199.523 16.5138L199.991 15.63ZM204.336 19.92L203.46 20.4013L204.326 21.9786L205.208 20.4103L204.336 19.92ZM208.626 15.685L208.139 14.8116L208.132 14.8157L208.626 15.685ZM214.786 15.09C218.303 15.09 221.038 16.1672 223.094 18.2564L224.519 16.8536C222.029 14.3228 218.75 13.09 214.786 13.09V15.09ZM223.105 18.2677C225.176 20.3061 226.271 23.2109 226.271 27.125H228.271C228.271 22.8258 227.057 19.3506 224.508 16.8423L223.105 18.2677ZM226.271 27.125V45H228.271V27.125H226.271ZM227.271 44H219.571V46H227.271V44ZM220.571 45V28.17H218.571V45H220.571ZM220.571 28.17C220.571 25.625 219.924 23.5222 218.474 22.0285L217.039 23.4215C218.009 24.4212 218.571 25.9483 218.571 28.17H220.571ZM218.484 22.039C217.05 20.5183 215.117 19.8 212.806 19.8V21.8C214.676 21.8 216.043 22.365 217.029 23.411L218.484 22.039ZM212.806 19.8C210.495 19.8 208.551 20.5183 207.084 22.0282L208.519 23.4218C209.545 22.365 210.937 21.8 212.806 21.8V19.8ZM207.084 22.0285C205.634 23.5222 204.986 25.625 204.986 28.17H206.986C206.986 25.9483 207.549 24.4212 208.519 23.4215L207.084 22.0285ZM204.986 28.17V45H206.986V28.17H204.986ZM205.986 44H198.286V46H205.986V44ZM199.286 45V28.17H197.286V45H199.286ZM199.286 28.17C199.286 25.625 198.639 23.5222 197.189 22.0285L195.754 23.4215C196.724 24.4212 197.286 25.9483 197.286 28.17H199.286ZM197.199 22.039C195.765 20.5183 193.832 19.8 191.521 19.8V21.8C193.391 21.8 194.758 22.365 195.744 23.411L197.199 22.039ZM191.521 19.8C189.179 19.8 187.214 20.5149 185.744 22.0282L187.179 23.4218C188.202 22.3685 189.61 21.8 191.521 21.8V19.8ZM185.744 22.0285C184.294 23.5222 183.646 25.625 183.646 28.17H185.646C185.646 25.9483 186.209 24.4212 187.179 23.4215L185.744 22.0285ZM183.646 28.17V45H185.646V28.17H183.646ZM184.646 44H176.946V46H184.646V44ZM177.946 45V14.53H175.946V45H177.946ZM176.946 15.53H184.646V13.53H176.946V15.53ZM183.646 14.53V18.215H185.646V14.53H183.646ZM185.438 18.8258C186.327 17.6734 187.466 16.7623 188.871 16.0929L188.011 14.2871C186.337 15.0844 184.946 16.1899 183.855 17.6042L185.438 18.8258ZM188.863 16.0967C190.298 15.4294 191.876 15.09 193.611 15.09V13.09C191.607 13.09 189.738 13.484 188.02 14.2833L188.863 16.0967ZM193.611 15.09C195.847 15.09 197.804 15.57 199.51 16.5066L200.473 14.7534C198.438 13.6366 196.143 13.09 193.611 13.09V15.09ZM199.523 16.5138C201.219 17.4116 202.526 18.701 203.46 20.4013L205.213 19.4387C204.093 17.399 202.503 15.8284 200.459 14.7462L199.523 16.5138ZM205.208 20.4103C206.103 18.8189 207.398 17.534 209.121 16.5543L208.132 14.8157C206.115 15.9627 204.55 17.5011 203.465 19.4297L205.208 20.4103ZM209.113 16.5584C210.87 15.5787 212.755 15.09 214.786 15.09V13.09C212.417 13.09 210.196 13.6646 208.139 14.8116L209.113 16.5584ZM242.608 14.53H243.608V13.53H242.608V14.53ZM242.608 45V46H243.608V45H242.608ZM234.908 45H233.908V46H234.908V45ZM234.908 14.53V13.53H233.908V14.53H234.908ZM244.753 6.61L245.169 7.51969L245.753 7.25276V6.61H244.753ZM232.103 12.385H231.103V13.9408L232.518 13.2947L232.103 12.385ZM232.103 6.885L231.644 5.99684L231.103 6.27647V6.885H232.103ZM244.753 0.339998H245.753V-1.30331L244.294 -0.548165L244.753 0.339998ZM241.608 14.53V45H243.608V14.53H241.608ZM242.608 44H234.908V46H242.608V44ZM235.908 45V14.53H233.908V45H235.908ZM234.908 15.53H242.608V13.53H234.908V15.53ZM244.338 5.70031L231.688 11.4753L232.518 13.2947L245.169 7.51969L244.338 5.70031ZM233.103 12.385V6.885H231.103V12.385H233.103ZM232.563 7.77316L245.213 1.22816L244.294 -0.548165L231.644 5.99684L232.563 7.77316ZM243.753 0.339998V6.61H245.753V0.339998H243.753Z" fill="url(#paint0_linear_561_567)" mask="url(#path-1-outside-1_561_567)"/>
<defs>
<linearGradient id="paint0_linear_561_567" x1="45.8579" y1="-17.7157" x2="69.6962" y2="98.1988" gradientUnits="userSpaceOnUse">
<stop stop-color="#6167FF"/>
<stop offset="1" stop-color="#454DFF"/>
</linearGradient>
</defs>
</svg>
