<svg width="384" height="59" viewBox="0 0 384 59" fill="none" xmlns="http://www.w3.org/2000/svg">
<mask id="path-1-outside-1_561_569" maskUnits="userSpaceOnUse" x="-1" y="-1" width="386" height="61" fill="black">
<rect fill="white" x="-1" y="-1" width="386" height="61"/>
<path d="M42.65 5.61V44H34.95V19.03L24.665 44H18.835L8.495 19.03V44H0.795V5.61H9.54L21.75 34.155L33.96 5.61H42.65ZM54.1678 9.9C52.8111 9.9 51.6744 9.47833 50.7578 8.635C49.8778 7.755 49.4378 6.67333 49.4378 5.39C49.4378 4.10666 49.8778 3.04333 50.7578 2.2C51.6744 1.32 52.8111 0.879998 54.1678 0.879998C55.5244 0.879998 56.6428 1.32 57.5228 2.2C58.4394 3.04333 58.8978 4.10666 58.8978 5.39C58.8978 6.67333 58.4394 7.755 57.5228 8.635C56.6428 9.47833 55.5244 9.9 54.1678 9.9ZM57.9628 13.53V44H50.2628V13.53H57.9628ZM77.2304 44.495C74.7371 44.495 72.5004 44.055 70.5204 43.175C68.5404 42.2583 66.9637 41.03 65.7904 39.49C64.6537 37.95 64.0304 36.245 63.9204 34.375H71.6754C71.8221 35.5483 72.3904 36.52 73.3804 37.29C74.4071 38.06 75.6721 38.445 77.1754 38.445C78.6421 38.445 79.7787 38.1517 80.5854 37.565C81.4287 36.9783 81.8504 36.2267 81.8504 35.31C81.8504 34.32 81.3371 33.5867 80.3104 33.11C79.3204 32.5967 77.7254 32.0467 75.5254 31.46C73.2521 30.91 71.3821 30.3417 69.9154 29.755C68.4854 29.1683 67.2387 28.27 66.1754 27.06C65.1487 25.85 64.6354 24.2183 64.6354 22.165C64.6354 20.4783 65.1121 18.9383 66.0654 17.545C67.0554 16.1517 68.4487 15.0517 70.2454 14.245C72.0787 13.4383 74.2237 13.035 76.6804 13.035C80.3104 13.035 83.2071 13.9517 85.3704 15.785C87.5337 17.5817 88.7254 20.02 88.9454 23.1H81.5754C81.4654 21.89 80.9521 20.9367 80.0354 20.24C79.1554 19.5067 77.9637 19.14 76.4604 19.14C75.0671 19.14 73.9854 19.3967 73.2154 19.91C72.4821 20.4233 72.1154 21.1383 72.1154 22.055C72.1154 23.0817 72.6287 23.87 73.6554 24.42C74.6821 24.9333 76.2771 25.465 78.4404 26.015C80.6404 26.565 82.4554 27.1333 83.8854 27.72C85.3154 28.3067 86.5437 29.2233 87.5704 30.47C88.6337 31.68 89.1837 33.2933 89.2204 35.31C89.2204 37.07 88.7254 38.6467 87.7354 40.04C86.7821 41.4333 85.3887 42.5333 83.5554 43.34C81.7587 44.11 79.6504 44.495 77.2304 44.495ZM116.347 17.93C117.337 16.5367 118.693 15.3817 120.417 14.465C122.177 13.5117 124.175 13.035 126.412 13.035C129.015 13.035 131.362 13.6767 133.452 14.96C135.578 16.2433 137.247 18.0767 138.457 20.46C139.703 22.8067 140.327 25.5383 140.327 28.655C140.327 31.7717 139.703 34.54 138.457 36.96C137.247 39.3433 135.578 41.195 133.452 42.515C131.362 43.835 129.015 44.495 126.412 44.495C124.175 44.495 122.195 44.0367 120.472 43.12C118.785 42.2033 117.41 41.0483 116.347 39.655V58.52H108.647V13.53H116.347V17.93ZM132.462 28.655C132.462 26.8217 132.077 25.245 131.307 23.925C130.573 22.5683 129.583 21.5417 128.337 20.845C127.127 20.1483 125.807 19.8 124.377 19.8C122.983 19.8 121.663 20.1667 120.417 20.9C119.207 21.5967 118.217 22.6233 117.447 23.98C116.713 25.3367 116.347 26.9317 116.347 28.765C116.347 30.5983 116.713 32.1933 117.447 33.55C118.217 34.9067 119.207 35.9517 120.417 36.685C121.663 37.3817 122.983 37.73 124.377 37.73C125.807 37.73 127.127 37.3633 128.337 36.63C129.583 35.8967 130.573 34.8517 131.307 33.495C132.077 32.1383 132.462 30.525 132.462 28.655ZM153.622 18.26C154.612 16.6467 155.895 15.3817 157.472 14.465C159.085 13.5483 160.919 13.09 162.972 13.09V21.175H160.937C158.517 21.175 156.684 21.7433 155.437 22.88C154.227 24.0167 153.622 25.9967 153.622 28.82V44H145.922V13.53H153.622V18.26ZM181.688 44.495C178.755 44.495 176.115 43.8533 173.768 42.57C171.422 41.25 169.57 39.3983 168.213 37.015C166.893 34.6317 166.233 31.8817 166.233 28.765C166.233 25.6483 166.912 22.8983 168.268 20.515C169.662 18.1317 171.55 16.2983 173.933 15.015C176.317 13.695 178.975 13.035 181.908 13.035C184.842 13.035 187.5 13.695 189.883 15.015C192.267 16.2983 194.137 18.1317 195.493 20.515C196.887 22.8983 197.583 25.6483 197.583 28.765C197.583 31.8817 196.868 34.6317 195.438 37.015C194.045 39.3983 192.138 41.25 189.718 42.57C187.335 43.8533 184.658 44.495 181.688 44.495ZM181.688 37.785C183.082 37.785 184.383 37.455 185.593 36.795C186.84 36.0983 187.83 35.0717 188.563 33.715C189.297 32.3583 189.663 30.7083 189.663 28.765C189.663 25.8683 188.893 23.65 187.353 22.11C185.85 20.5333 183.998 19.745 181.798 19.745C179.598 19.745 177.747 20.5333 176.243 22.11C174.777 23.65 174.043 25.8683 174.043 28.765C174.043 31.6617 174.758 33.8983 176.188 35.475C177.655 37.015 179.488 37.785 181.688 37.785ZM232.382 13.53L213.517 58.41H205.322L211.922 43.23L199.712 13.53H208.347L216.212 34.815L224.187 13.53H232.382ZM264.857 28.105C264.857 29.205 264.784 30.195 264.637 31.075H242.362C242.546 33.275 243.316 34.9983 244.672 36.245C246.029 37.4917 247.697 38.115 249.677 38.115C252.537 38.115 254.572 36.8867 255.782 34.43H264.087C263.207 37.3633 261.521 39.7833 259.027 41.69C256.534 43.56 253.472 44.495 249.842 44.495C246.909 44.495 244.269 43.8533 241.922 42.57C239.612 41.25 237.797 39.3983 236.477 37.015C235.194 34.6317 234.552 31.8817 234.552 28.765C234.552 25.6117 235.194 22.8433 236.477 20.46C237.761 18.0767 239.557 16.2433 241.867 14.96C244.177 13.6767 246.836 13.035 249.842 13.035C252.739 13.035 255.324 13.6583 257.597 14.905C259.907 16.1517 261.686 17.93 262.932 20.24C264.216 22.5133 264.857 25.135 264.857 28.105ZM256.882 25.905C256.846 23.925 256.131 22.3483 254.737 21.175C253.344 19.965 251.639 19.36 249.622 19.36C247.716 19.36 246.102 19.9467 244.782 21.12C243.499 22.2567 242.711 23.8517 242.417 25.905H256.882ZM268.498 28.765C268.498 25.6117 269.139 22.8617 270.423 20.515C271.706 18.1317 273.484 16.2983 275.758 15.015C278.031 13.695 280.634 13.035 283.568 13.035C287.344 13.035 290.461 13.9883 292.918 15.895C295.411 17.765 297.079 20.405 297.923 23.815H289.618C289.178 22.495 288.426 21.4683 287.363 20.735C286.336 19.965 285.053 19.58 283.513 19.58C281.313 19.58 279.571 20.3867 278.288 22C277.004 23.5767 276.363 25.8317 276.363 28.765C276.363 31.6617 277.004 33.9167 278.288 35.53C279.571 37.1067 281.313 37.895 283.513 37.895C286.629 37.895 288.664 36.5017 289.618 33.715H297.923C297.079 37.015 295.411 39.6367 292.918 41.58C290.424 43.5233 287.308 44.495 283.568 44.495C280.634 44.495 278.031 43.8533 275.758 42.57C273.484 41.25 271.706 39.4167 270.423 37.07C269.139 34.6867 268.498 31.9183 268.498 28.765ZM312.529 19.855V34.595C312.529 35.6217 312.767 36.3733 313.244 36.85C313.757 37.29 314.6 37.51 315.774 37.51H319.349V44H314.509C308.019 44 304.774 40.8467 304.774 34.54V19.855H301.144V13.53H304.774V5.995H312.529V13.53H319.349V19.855H312.529ZM338.417 44.495C335.483 44.495 332.843 43.8533 330.497 42.57C328.15 41.25 326.298 39.3983 324.942 37.015C323.622 34.6317 322.962 31.8817 322.962 28.765C322.962 25.6483 323.64 22.8983 324.997 20.515C326.39 18.1317 328.278 16.2983 330.662 15.015C333.045 13.695 335.703 13.035 338.637 13.035C341.57 13.035 344.228 13.695 346.612 15.015C348.995 16.2983 350.865 18.1317 352.222 20.515C353.615 22.8983 354.312 25.6483 354.312 28.765C354.312 31.8817 353.597 34.6317 352.167 37.015C350.773 39.3983 348.867 41.25 346.447 42.57C344.063 43.8533 341.387 44.495 338.417 44.495ZM338.417 37.785C339.81 37.785 341.112 37.455 342.322 36.795C343.568 36.0983 344.558 35.0717 345.292 33.715C346.025 32.3583 346.392 30.7083 346.392 28.765C346.392 25.8683 345.622 23.65 344.082 22.11C342.578 20.5333 340.727 19.745 338.527 19.745C336.327 19.745 334.475 20.5333 332.972 22.11C331.505 23.65 330.772 25.8683 330.772 28.765C330.772 31.6617 331.487 33.8983 332.917 35.475C334.383 37.015 336.217 37.785 338.417 37.785ZM371.62 44.495C369.127 44.495 366.89 44.055 364.91 43.175C362.93 42.2583 361.353 41.03 360.18 39.49C359.043 37.95 358.42 36.245 358.31 34.375H366.065C366.212 35.5483 366.78 36.52 367.77 37.29C368.797 38.06 370.062 38.445 371.565 38.445C373.032 38.445 374.168 38.1517 374.975 37.565C375.818 36.9783 376.24 36.2267 376.24 35.31C376.24 34.32 375.727 33.5867 374.7 33.11C373.71 32.5967 372.115 32.0467 369.915 31.46C367.642 30.91 365.772 30.3417 364.305 29.755C362.875 29.1683 361.628 28.27 360.565 27.06C359.538 25.85 359.025 24.2183 359.025 22.165C359.025 20.4783 359.502 18.9383 360.455 17.545C361.445 16.1517 362.838 15.0517 364.635 14.245C366.468 13.4383 368.613 13.035 371.07 13.035C374.7 13.035 377.597 13.9517 379.76 15.785C381.923 17.5817 383.115 20.02 383.335 23.1H375.965C375.855 21.89 375.342 20.9367 374.425 20.24C373.545 19.5067 372.353 19.14 370.85 19.14C369.457 19.14 368.375 19.3967 367.605 19.91C366.872 20.4233 366.505 21.1383 366.505 22.055C366.505 23.0817 367.018 23.87 368.045 24.42C369.072 24.9333 370.667 25.465 372.83 26.015C375.03 26.565 376.845 27.1333 378.275 27.72C379.705 28.3067 380.933 29.2233 381.96 30.47C383.023 31.68 383.573 33.2933 383.61 35.31C383.61 37.07 383.115 38.6467 382.125 40.04C381.172 41.4333 379.778 42.5333 377.945 43.34C376.148 44.11 374.04 44.495 371.62 44.495Z"/>
</mask>
<path d="M42.65 5.61H43.65V4.61H42.65V5.61ZM42.65 44V45H43.65V44H42.65ZM34.95 44H33.95V45H34.95V44ZM34.95 19.03H35.95L34.0254 18.6491L34.95 19.03ZM24.665 44V45H25.3346L25.5896 44.3809L24.665 44ZM18.835 44L17.9111 44.3826L18.1667 45H18.835V44ZM8.495 19.03L9.41892 18.6474L7.495 19.03H8.495ZM8.495 44V45H9.495V44H8.495ZM0.795 44H-0.205V45H0.795V44ZM0.795 5.61V4.61H-0.205V5.61H0.795ZM9.54 5.61L10.4594 5.21672L10.1999 4.61H9.54V5.61ZM21.75 34.155L20.8306 34.5483L21.75 36.6977L22.6694 34.5483L21.75 34.155ZM33.96 5.61V4.61H33.3001L33.0406 5.21672L33.96 5.61ZM41.65 5.61V44H43.65V5.61H41.65ZM42.65 43H34.95V45H42.65V43ZM35.95 44V19.03H33.95V44H35.95ZM34.0254 18.6491L23.7404 43.6191L25.5896 44.3809L35.8746 19.4109L34.0254 18.6491ZM24.665 43H18.835V45H24.665V43ZM19.7589 43.6174L9.41892 18.6474L7.57108 19.4126L17.9111 44.3826L19.7589 43.6174ZM7.495 19.03V44H9.495V19.03H7.495ZM8.495 43H0.795V45H8.495V43ZM1.795 44V5.61H-0.205V44H1.795ZM0.795 6.61H9.54V4.61H0.795V6.61ZM8.62058 6.00328L20.8306 34.5483L22.6694 33.7617L10.4594 5.21672L8.62058 6.00328ZM22.6694 34.5483L34.8794 6.00328L33.0406 5.21672L20.8306 33.7617L22.6694 34.5483ZM33.96 6.61H42.65V4.61H33.96V6.61ZM50.7578 8.635L50.0507 9.34211L50.0654 9.35683L50.0807 9.37093L50.7578 8.635ZM50.7578 2.2L51.4497 2.92199L51.4503 2.92138L50.7578 2.2ZM57.5228 2.2L56.8157 2.9071L56.8304 2.92183L56.8457 2.93593L57.5228 2.2ZM57.5228 8.635L58.2147 9.35699L58.2153 9.35639L57.5228 8.635ZM57.9628 13.53H58.9628V12.53H57.9628V13.53ZM57.9628 44V45H58.9628V44H57.9628ZM50.2628 44H49.2628V45H50.2628V44ZM50.2628 13.53V12.53H49.2628V13.53H50.2628ZM54.1678 8.9C53.0376 8.9 52.1498 8.5568 51.4348 7.89907L50.0807 9.37093C51.1991 10.3999 52.5846 10.9 54.1678 10.9V8.9ZM51.4649 7.92789C50.7789 7.24187 50.4378 6.41737 50.4378 5.39H48.4378C48.4378 6.9293 48.9767 8.26813 50.0507 9.34211L51.4649 7.92789ZM50.4378 5.39C50.4378 4.36312 50.7779 3.56582 51.4497 2.92199L50.0659 1.47801C48.9777 2.52084 48.4378 3.85021 48.4378 5.39H50.4378ZM51.4503 2.92138C52.1673 2.23305 53.05 1.88 54.1678 1.88V-0.120003C52.5722 -0.120003 51.1816 0.406944 50.0652 1.47861L51.4503 2.92138ZM54.1678 1.88C55.2855 1.88 56.141 2.23247 56.8157 2.9071L58.2299 1.49289C57.1445 0.407524 55.7633 -0.120003 54.1678 -0.120003V1.88ZM56.8457 2.93593C57.5496 3.5835 57.8978 4.37673 57.8978 5.39H59.8978C59.8978 3.8366 59.3293 2.50317 58.1998 1.46407L56.8457 2.93593ZM57.8978 5.39C57.8978 6.4041 57.5483 7.22429 56.8302 7.91361L58.2153 9.35639C59.3306 8.2857 59.8978 6.94256 59.8978 5.39H57.8978ZM56.8309 7.91301C56.1587 8.55714 55.2983 8.9 54.1678 8.9V10.9C55.7506 10.9 57.1268 10.3995 58.2147 9.35699L56.8309 7.91301ZM56.9628 13.53V44H58.9628V13.53H56.9628ZM57.9628 43H50.2628V45H57.9628V43ZM51.2628 44V13.53H49.2628V44H51.2628ZM50.2628 14.53H57.9628V12.53H50.2628V14.53ZM70.5204 43.175L70.1003 44.0825L70.1072 44.0857L70.1143 44.0888L70.5204 43.175ZM65.7904 39.49L64.9858 40.0839L64.9903 40.09L64.995 40.096L65.7904 39.49ZM63.9204 34.375V33.375H62.8598L62.9221 34.4337L63.9204 34.375ZM71.6754 34.375L72.6677 34.251L72.5582 33.375H71.6754V34.375ZM73.3804 37.29L72.7664 38.0794L72.7734 38.0847L72.7804 38.09L73.3804 37.29ZM80.5854 37.565L80.0143 36.7441L80.0057 36.7501L79.9972 36.7563L80.5854 37.565ZM80.3104 33.11L79.8501 33.9978L79.8695 34.0078L79.8893 34.017L80.3104 33.11ZM75.5254 31.46L75.7831 30.4938L75.7718 30.4908L75.7605 30.488L75.5254 31.46ZM69.9154 29.755L69.5358 30.6802L69.544 30.6835L69.9154 29.755ZM66.1754 27.06L65.4129 27.707L65.4185 27.7136L65.4242 27.7201L66.1754 27.06ZM66.0654 17.545L65.2502 16.9658L65.2451 16.973L65.2401 16.9803L66.0654 17.545ZM70.2454 14.245L69.8426 13.3297L69.8358 13.3327L70.2454 14.245ZM85.3704 15.785L84.7238 16.5479L84.7315 16.5543L85.3704 15.785ZM88.9454 23.1V24.1H90.0194L89.9428 23.0288L88.9454 23.1ZM81.5754 23.1L80.5795 23.1905L80.6622 24.1H81.5754V23.1ZM80.0354 20.24L79.3952 21.0082L79.4124 21.0226L79.4303 21.0362L80.0354 20.24ZM73.2154 19.91L72.6607 19.0779L72.6512 19.0843L72.6419 19.0908L73.2154 19.91ZM73.6554 24.42L73.1832 25.3015L73.1956 25.3081L73.2082 25.3144L73.6554 24.42ZM78.4404 26.015L78.194 26.9842L78.1979 26.9851L78.4404 26.015ZM87.5704 30.47L86.7985 31.1057L86.8086 31.1181L86.8192 31.1301L87.5704 30.47ZM89.2204 35.31H90.2204V35.3009L90.2202 35.2918L89.2204 35.31ZM87.7354 40.04L86.9202 39.4608L86.9151 39.468L86.9101 39.4753L87.7354 40.04ZM83.5554 43.34L83.9493 44.2592L83.9581 44.2553L83.5554 43.34ZM77.2304 43.495C74.856 43.495 72.7608 43.0764 70.9265 42.2612L70.1143 44.0888C72.24 45.0336 74.6181 45.495 77.2304 45.495V43.495ZM70.9405 42.2675C69.0893 41.4105 67.6485 40.2787 66.5858 38.884L64.995 40.096C66.2789 41.7813 67.9915 43.1062 70.1003 44.0825L70.9405 42.2675ZM66.595 38.8961C65.5707 37.5084 65.017 35.9885 64.9187 34.3163L62.9221 34.4337C63.0438 36.5015 63.7368 38.3916 64.9858 40.0839L66.595 38.8961ZM63.9204 35.375H71.6754V33.375H63.9204V35.375ZM70.6831 34.499C70.8648 35.9527 71.5812 37.1575 72.7664 38.0794L73.9943 36.5006C73.1996 35.8825 72.7793 35.1439 72.6677 34.251L70.6831 34.499ZM72.7804 38.09C74.0086 39.0111 75.4941 39.445 77.1754 39.445V37.445C75.85 37.445 74.8055 37.1089 73.9804 36.49L72.7804 38.09ZM77.1754 39.445C78.7585 39.445 80.1326 39.1308 81.1736 38.3737L79.9972 36.7563C79.4249 37.1725 78.5256 37.445 77.1754 37.445V39.445ZM81.1565 38.3859C82.2308 37.6386 82.8504 36.5975 82.8504 35.31H80.8504C80.8504 35.8559 80.6267 36.3181 80.0143 36.7441L81.1565 38.3859ZM82.8504 35.31C82.8504 34.6326 82.6713 33.9965 82.2846 33.444C81.9035 32.8996 81.363 32.4962 80.7315 32.203L79.8893 34.017C80.2845 34.2005 80.5139 34.402 80.6462 34.591C80.7728 34.7718 80.8504 34.9974 80.8504 35.31H82.8504ZM80.7707 32.2222C79.6793 31.6563 77.9965 31.084 75.7831 30.4938L75.2677 32.4262C77.4543 33.0093 78.9615 33.537 79.8501 33.9978L80.7707 32.2222ZM75.7605 30.488C73.5138 29.9445 71.6936 29.3892 70.2868 28.8265L69.544 30.6835C71.0705 31.2941 72.9903 31.8755 75.2902 32.432L75.7605 30.488ZM70.2949 28.8298C69.0137 28.3042 67.8925 27.4991 66.9266 26.3999L65.4242 27.7201C66.5849 29.0409 67.9571 30.0325 69.5358 30.6802L70.2949 28.8298ZM66.9379 26.413C66.105 25.4314 65.6354 24.0524 65.6354 22.165H63.6354C63.6354 24.3843 64.1925 26.2686 65.4129 27.707L66.9379 26.413ZM65.6354 22.165C65.6354 20.6801 66.051 19.3369 66.8907 18.1097L65.2401 16.9803C64.1731 18.5398 63.6354 20.2766 63.6354 22.165H65.6354ZM66.8806 18.1242C67.7526 16.8969 68.9957 15.9023 70.655 15.1573L69.8358 13.3327C67.9018 14.2011 66.3582 15.4064 65.2502 16.9658L66.8806 18.1242ZM70.6481 15.1603C72.3292 14.4206 74.3318 14.035 76.6804 14.035V12.035C74.1157 12.035 71.8282 12.456 69.8427 13.3297L70.6481 15.1603ZM76.6804 14.035C80.1415 14.035 82.7869 14.9064 84.7239 16.5479L86.0169 15.0221C83.6272 12.9969 80.4793 12.035 76.6804 12.035V14.035ZM84.7315 16.5543C86.6635 18.1588 87.7452 20.3336 87.9479 23.1712L89.9428 23.0288C89.7055 19.7064 88.404 17.0045 86.0093 15.0157L84.7315 16.5543ZM88.9454 22.1H81.5754V24.1H88.9454V22.1ZM82.5713 23.0095C82.4374 21.5372 81.7943 20.3207 80.6405 19.4438L79.4303 21.0362C80.1098 21.5526 80.4933 22.2428 80.5795 23.1905L82.5713 23.0095ZM80.6756 19.4718C79.5662 18.5473 78.1237 18.14 76.4604 18.14V20.14C77.8037 20.14 78.7445 20.466 79.3952 21.0082L80.6756 19.4718ZM76.4604 18.14C74.9632 18.14 73.6585 18.4127 72.6607 19.0779L73.7701 20.7421C74.3123 20.3806 75.171 20.14 76.4604 20.14V18.14ZM72.6419 19.0908C71.6337 19.7965 71.1154 20.8214 71.1154 22.055H73.1154C73.1154 21.4553 73.3304 21.0501 73.7889 20.7292L72.6419 19.0908ZM71.1154 22.055C71.1154 22.7436 71.2904 23.3906 71.6624 23.9619C72.0302 24.5268 72.5564 24.9657 73.1832 25.3015L74.1276 23.5385C73.7277 23.3243 73.4839 23.0941 73.3384 22.8706C73.1971 22.6535 73.1154 22.393 73.1154 22.055H71.1154ZM73.2082 25.3144C74.3337 25.8772 76.0133 26.4298 78.194 26.9842L78.6868 25.0458C76.5408 24.5002 75.0304 23.9895 74.1026 23.5256L73.2082 25.3144ZM78.1979 26.9851C80.3706 27.5283 82.1357 28.0831 83.5058 28.6452L84.2649 26.7948C82.7751 26.1836 80.9102 25.6017 78.6829 25.0449L78.1979 26.9851ZM83.5058 28.6452C84.7762 29.1664 85.8718 29.9805 86.7985 31.1057L88.3423 29.8343C87.2156 28.4662 85.8546 27.447 84.2649 26.7948L83.5058 28.6452ZM86.8192 31.1301C87.69 32.121 88.1871 33.4867 88.2206 35.3282L90.2202 35.2918C90.1804 33.1 89.5774 31.239 88.3216 29.8099L86.8192 31.1301ZM88.2204 35.31C88.2204 36.869 87.7862 38.242 86.9202 39.4608L88.5506 40.6192C89.6646 39.0514 90.2204 37.271 90.2204 35.31H88.2204ZM86.9101 39.4753C86.0804 40.688 84.8474 41.679 83.1527 42.4247L83.9581 44.2553C85.9301 43.3877 87.4837 42.1787 88.5607 40.6047L86.9101 39.4753ZM83.1615 42.4209C81.5151 43.1264 79.5462 43.495 77.2304 43.495V45.495C79.7545 45.495 82.0023 45.0936 83.9493 44.2591L83.1615 42.4209ZM116.347 17.93H115.347V21.0639L117.162 18.5092L116.347 17.93ZM120.417 14.465L120.886 15.3479L120.893 15.3443L120.417 14.465ZM133.452 14.96L132.928 15.8122L132.935 15.8162L133.452 14.96ZM138.457 20.46L137.565 20.9127L137.569 20.921L137.573 20.9292L138.457 20.46ZM138.457 36.96L137.568 36.502L137.565 36.5073L138.457 36.96ZM133.452 42.515L132.924 41.6653L132.918 41.6695L133.452 42.515ZM120.472 43.12L119.994 43.9987L120.002 44.0029L120.472 43.12ZM116.347 39.655L117.142 39.0483L115.347 36.6963V39.655H116.347ZM116.347 58.52V59.52H117.347V58.52H116.347ZM108.647 58.52H107.647V59.52H108.647V58.52ZM108.647 13.53V12.53H107.647V13.53H108.647ZM116.347 13.53H117.347V12.53H116.347V13.53ZM131.307 23.925L130.427 24.4005L130.435 24.4148L130.443 24.4289L131.307 23.925ZM128.337 20.845L127.838 21.7117L127.849 21.7179L128.337 20.845ZM120.417 20.9L120.916 21.7667L120.924 21.7619L120.417 20.9ZM117.447 23.98L116.577 23.4864L116.572 23.4954L116.567 23.5045L117.447 23.98ZM117.447 33.55L116.567 34.0255L116.572 34.0346L116.577 34.0436L117.447 33.55ZM120.417 36.685L119.898 37.5402L119.913 37.5493L119.929 37.5579L120.417 36.685ZM128.337 36.63L127.829 35.768L127.818 35.7748L128.337 36.63ZM131.307 33.495L130.437 33.0014L130.432 33.0104L130.427 33.0195L131.307 33.495ZM117.162 18.5092C118.05 17.2595 119.28 16.202 120.886 15.3479L119.947 13.5821C118.106 14.5614 116.623 15.8138 115.531 17.3508L117.162 18.5092ZM120.893 15.3443C122.49 14.4791 124.321 14.035 126.412 14.035V12.035C124.028 12.035 121.863 12.5442 119.94 13.5857L120.893 15.3443ZM126.412 14.035C128.842 14.035 131.006 14.6315 132.928 15.8122L133.975 14.1078C131.718 12.7218 129.188 12.035 126.412 12.035V14.035ZM132.935 15.8162C134.889 16.9954 136.433 18.6831 137.565 20.9127L139.348 20.0073C138.06 17.4702 136.267 15.4913 133.968 14.1038L132.935 15.8162ZM137.573 20.9292C138.731 23.1083 139.327 25.6736 139.327 28.655H141.327C141.327 25.4031 140.675 22.5051 139.34 19.9908L137.573 20.9292ZM139.327 28.655C139.327 31.6356 138.731 34.243 137.568 36.502L139.346 37.418C140.675 34.837 141.327 31.9078 141.327 28.655H139.327ZM137.565 36.5073C136.432 38.739 134.885 40.4484 132.924 41.6654L133.979 43.3646C136.272 41.9416 138.061 39.9477 139.348 37.4127L137.565 36.5073ZM132.918 41.6695C130.996 42.8831 128.836 43.495 126.412 43.495V45.495C129.193 45.495 131.727 44.7869 133.986 43.3605L132.918 41.6695ZM126.412 43.495C124.315 43.495 122.5 43.0663 120.941 42.2371L120.002 44.0029C121.89 45.007 124.035 45.495 126.412 45.495V43.495ZM120.949 42.2414C119.374 41.3855 118.112 40.3194 117.142 39.0483L115.552 40.2617C116.708 41.7773 118.195 43.0211 119.994 43.9986L120.949 42.2414ZM115.347 39.655V58.52H117.347V39.655H115.347ZM116.347 57.52H108.647V59.52H116.347V57.52ZM109.647 58.52V13.53H107.647V58.52H109.647ZM108.647 14.53H116.347V12.53H108.647V14.53ZM115.347 13.53V17.93H117.347V13.53H115.347ZM133.462 28.655C133.462 26.68 133.046 24.922 132.17 23.4211L130.443 24.4289C131.107 25.568 131.462 26.9633 131.462 28.655H133.462ZM132.186 23.4495C131.37 21.9397 130.25 20.7687 128.824 19.9721L127.849 21.7179C128.916 22.3146 129.776 23.1969 130.427 24.4005L132.186 23.4495ZM128.836 19.9784C127.47 19.1921 125.977 18.8 124.377 18.8V20.8C125.636 20.8 126.783 21.1045 127.838 21.7116L128.836 19.9784ZM124.377 18.8C122.798 18.8 121.304 19.2179 119.91 20.0381L120.924 21.7619C122.023 21.1154 123.168 20.8 124.377 20.8V18.8ZM119.918 20.0334C118.535 20.8292 117.424 21.9932 116.577 23.4864L118.316 24.4736C119.009 23.2535 119.878 22.3641 120.916 21.7666L119.918 20.0334ZM116.567 23.5045C115.741 25.0325 115.347 26.7969 115.347 28.765H117.347C117.347 27.0664 117.686 25.6409 118.326 24.4555L116.567 23.5045ZM115.347 28.765C115.347 30.7331 115.741 32.4975 116.567 34.0255L118.326 33.0745C117.686 31.8891 117.347 30.4636 117.347 28.765H115.347ZM116.577 34.0436C117.422 35.5332 118.528 36.7095 119.898 37.5402L120.935 35.8298C119.886 35.1939 119.011 34.2801 118.316 33.0564L116.577 34.0436ZM119.929 37.5579C121.321 38.3358 122.808 38.73 124.377 38.73V36.73C123.158 36.73 122.006 36.4276 120.904 35.8121L119.929 37.5579ZM124.377 38.73C125.987 38.73 127.487 38.3143 128.855 37.4852L127.818 35.7748C126.766 36.4123 125.626 36.73 124.377 36.73V38.73ZM128.844 37.4919C130.258 36.66 131.372 35.4765 132.186 33.9705L130.427 33.0195C129.774 34.2268 128.909 35.1333 127.83 35.7681L128.844 37.4919ZM132.176 33.9886C133.047 32.4541 133.462 30.6637 133.462 28.655H131.462C131.462 30.3863 131.106 31.8225 130.437 33.0014L132.176 33.9886ZM153.622 18.26H152.622V21.8016L154.474 18.783L153.622 18.26ZM157.472 14.465L156.978 13.5955L156.969 13.6005L157.472 14.465ZM162.972 13.09H163.972V12.09H162.972V13.09ZM162.972 21.175V22.175H163.972V21.175H162.972ZM155.437 22.88L154.763 22.141L154.758 22.1461L154.752 22.1511L155.437 22.88ZM153.622 44V45H154.622V44H153.622ZM145.922 44H144.922V45H145.922V44ZM145.922 13.53V12.53H144.922V13.53H145.922ZM153.622 13.53H154.622V12.53H153.622V13.53ZM154.474 18.783C155.381 17.3051 156.546 16.1598 157.975 15.3295L156.969 13.6005C155.244 14.6035 153.843 15.9882 152.77 17.737L154.474 18.783ZM157.966 15.3345C159.413 14.5122 161.073 14.09 162.972 14.09V12.09C160.764 12.09 158.757 12.5844 156.978 13.5955L157.966 15.3345ZM161.972 13.09V21.175H163.972V13.09H161.972ZM162.972 20.175H160.937V22.175H162.972V20.175ZM160.937 20.175C158.375 20.175 156.26 20.7759 154.763 22.141L156.111 23.619C157.107 22.7108 158.659 22.175 160.937 22.175V20.175ZM154.752 22.1511C153.238 23.5734 152.622 25.9036 152.622 28.82H154.622C154.622 26.0897 155.216 24.4599 156.122 23.6088L154.752 22.1511ZM152.622 28.82V44H154.622V28.82H152.622ZM153.622 43H145.922V45H153.622V43ZM146.922 44V13.53H144.922V44H146.922ZM145.922 14.53H153.622V12.53H145.922V14.53ZM152.622 13.53V18.26H154.622V13.53H152.622ZM173.768 42.57L173.278 43.4416L173.288 43.4474L173.768 42.57ZM168.213 37.015L167.338 37.4995L167.344 37.5097L168.213 37.015ZM168.268 20.515L167.405 20.0103L167.399 20.0203L168.268 20.515ZM173.933 15.015L174.407 15.8955L174.418 15.8898L173.933 15.015ZM189.883 15.015L189.399 15.8899L189.409 15.8955L189.883 15.015ZM195.493 20.515L194.624 21.0097L194.63 21.0197L195.493 20.515ZM195.438 37.015L194.581 36.5005L194.575 36.5103L195.438 37.015ZM189.718 42.57L190.192 43.4505L190.197 43.4479L189.718 42.57ZM185.593 36.795L186.072 37.6729L186.081 37.6679L185.593 36.795ZM188.563 33.715L189.443 34.1905L188.563 33.715ZM187.353 22.11L186.63 22.8001L186.638 22.8087L186.646 22.8171L187.353 22.11ZM176.243 22.11L175.52 21.4199L175.519 21.4203L176.243 22.11ZM176.188 35.475L175.448 36.1468L175.456 36.1558L175.464 36.1647L176.188 35.475ZM181.688 43.495C178.906 43.495 176.434 42.8879 174.248 41.6926L173.288 43.4474C175.796 44.8188 178.604 45.495 181.688 45.495V43.495ZM174.259 41.6984C172.073 40.4691 170.351 38.7491 169.082 36.5203L167.344 37.5097C168.789 40.0476 170.77 42.0309 173.278 43.4416L174.259 41.6984ZM169.088 36.5305C167.861 34.3156 167.233 31.7369 167.233 28.765H165.233C165.233 32.0265 165.925 34.9477 167.338 37.4995L169.088 36.5305ZM167.233 28.765C167.233 25.7977 167.878 23.2227 169.137 21.0097L167.399 20.0203C165.946 22.574 165.233 25.4989 165.233 28.765H167.233ZM169.132 21.0197C170.434 18.7917 172.189 17.0899 174.407 15.8955L173.459 14.1345C170.911 15.5068 168.889 17.4717 167.405 20.0103L169.132 21.0197ZM174.418 15.8898C176.642 14.6582 179.131 14.035 181.908 14.035V12.035C178.819 12.035 175.992 12.7318 173.449 14.1402L174.418 15.8898ZM181.908 14.035C184.686 14.035 187.175 14.6582 189.399 15.8898L190.368 14.1402C187.825 12.7318 184.998 12.035 181.908 12.035V14.035ZM189.409 15.8955C191.625 17.0886 193.359 18.7872 194.624 21.0097L196.362 20.0203C194.914 17.4761 192.908 15.5081 190.357 14.1345L189.409 15.8955ZM194.63 21.0197C195.923 23.2309 196.583 25.8024 196.583 28.765H198.583C198.583 25.4943 197.851 22.5657 196.357 20.0103L194.63 21.0197ZM196.583 28.765C196.583 31.723 195.907 34.2908 194.581 36.5005L196.296 37.5295C197.83 34.9725 198.583 32.0404 198.583 28.765H196.583ZM194.575 36.5103C193.273 38.7368 191.499 40.4594 189.239 41.6921L190.197 43.4479C192.777 42.0406 194.817 40.0598 196.302 37.5197L194.575 36.5103ZM189.244 41.6895C187.02 42.887 184.509 43.495 181.688 43.495V45.495C184.807 45.495 187.65 44.8197 190.192 43.4505L189.244 41.6895ZM181.688 38.785C183.247 38.785 184.714 38.4139 186.072 37.6729L185.114 35.9171C184.053 36.4961 182.916 36.785 181.688 36.785V38.785ZM186.081 37.6679C187.507 36.8713 188.627 35.7003 189.443 34.1905L187.684 33.2395C187.033 34.4431 186.173 35.3254 185.105 35.9221L186.081 37.6679ZM189.443 34.1905C190.273 32.6546 190.663 30.832 190.663 28.765H188.663C188.663 30.5846 188.32 32.0621 187.684 33.2395L189.443 34.1905ZM190.663 28.765C190.663 25.6936 189.843 23.186 188.06 21.4029L186.646 22.8171C187.943 24.114 188.663 26.043 188.663 28.765H190.663ZM188.077 21.4199C186.383 19.6431 184.269 18.745 181.798 18.745V20.745C183.728 20.745 185.317 21.4235 186.63 22.8001L188.077 21.4199ZM181.798 18.745C179.328 18.745 177.214 19.6431 175.52 21.4199L176.967 22.8001C178.28 21.4235 179.869 20.745 181.798 20.745V18.745ZM175.519 21.4203C173.819 23.2051 173.043 25.7062 173.043 28.765H175.043C175.043 26.0305 175.734 24.0949 176.967 22.7997L175.519 21.4203ZM173.043 28.765C173.043 31.8194 173.798 34.3286 175.448 36.1468L176.929 34.8032C175.718 33.4681 175.043 31.5039 175.043 28.765H173.043ZM175.464 36.1647C177.127 37.9104 179.225 38.785 181.688 38.785V36.785C179.751 36.785 178.183 36.1196 176.912 34.7853L175.464 36.1647ZM232.382 13.53L233.303 13.9175L233.887 12.53H232.382V13.53ZM213.517 58.41V59.41H214.181L214.438 58.7975L213.517 58.41ZM205.322 58.41L204.404 58.0113L203.796 59.41H205.322V58.41ZM211.922 43.23L212.839 43.6287L213.007 43.2409L212.846 42.8498L211.922 43.23ZM199.712 13.53V12.53H198.219L198.787 13.9102L199.712 13.53ZM208.347 13.53L209.285 13.1834L209.043 12.53H208.347V13.53ZM216.212 34.815L215.274 35.1616L216.205 37.6825L217.148 35.1659L216.212 34.815ZM224.187 13.53V12.53H223.493L223.25 13.1791L224.187 13.53ZM231.46 13.1425L212.595 58.0225L214.438 58.7975L233.303 13.9175L231.46 13.1425ZM213.517 57.41H205.322V59.41H213.517V57.41ZM206.239 58.8087L212.839 43.6287L211.004 42.8313L204.404 58.0113L206.239 58.8087ZM212.846 42.8498L200.636 13.1498L198.787 13.9102L210.997 43.6102L212.846 42.8498ZM199.712 14.53H208.347V12.53H199.712V14.53ZM207.409 13.8766L215.274 35.1616L217.15 34.4684L209.285 13.1834L207.409 13.8766ZM217.148 35.1659L225.123 13.8809L223.25 13.1791L215.275 34.4641L217.148 35.1659ZM224.187 14.53H232.382V12.53H224.187V14.53ZM264.637 31.075V32.075H265.484L265.624 31.2394L264.637 31.075ZM242.362 31.075V30.075H241.276L241.366 31.158L242.362 31.075ZM244.672 36.245L243.996 36.9813L244.672 36.245ZM255.782 34.43V33.43H255.16L254.885 33.9881L255.782 34.43ZM264.087 34.43L265.045 34.7173L265.431 33.43H264.087V34.43ZM259.027 41.69L259.627 42.49L259.635 42.4844L259.027 41.69ZM241.922 42.57L241.426 43.4382L241.434 43.4429L241.442 43.4474L241.922 42.57ZM236.477 37.015L235.597 37.4891L235.603 37.4995L236.477 37.015ZM236.477 20.46L235.597 19.9859L236.477 20.46ZM241.867 14.96L242.353 15.8342L241.867 14.96ZM257.597 14.905L257.116 15.7818L257.122 15.785L257.597 14.905ZM262.932 20.24L262.052 20.7149L262.057 20.7233L262.061 20.7316L262.932 20.24ZM256.882 25.905V26.905H257.901L257.882 25.8865L256.882 25.905ZM254.737 21.175L254.082 21.93L254.087 21.935L254.093 21.9399L254.737 21.175ZM244.782 21.12L245.445 21.8686L245.447 21.8674L244.782 21.12ZM242.417 25.905L241.427 25.7636L241.264 26.905H242.417V25.905ZM263.857 28.105C263.857 29.1621 263.787 30.0957 263.651 30.9106L265.624 31.2394C265.781 30.2943 265.857 29.2479 265.857 28.105H263.857ZM264.637 30.075H242.362V32.075H264.637V30.075ZM241.366 31.158C241.566 33.5558 242.419 35.5322 243.996 36.9813L245.349 35.5087C244.213 34.4644 243.526 32.9942 243.359 30.992L241.366 31.158ZM243.996 36.9813C245.551 38.4109 247.467 39.115 249.677 39.115V37.115C247.927 37.115 246.507 36.5724 245.349 35.5087L243.996 36.9813ZM249.677 39.115C251.252 39.115 252.663 38.7757 253.865 38.0499C255.07 37.3225 256.003 36.2451 256.679 34.8718L254.885 33.9881C254.352 35.0716 253.662 35.8367 252.832 36.3376C251.999 36.8401 250.962 37.115 249.677 37.115V39.115ZM255.782 35.43H264.087V33.43H255.782V35.43ZM263.129 34.1427C262.312 36.869 260.75 39.1135 258.42 40.8956L259.635 42.4844C262.291 40.4532 264.103 37.8577 265.045 34.7173L263.129 34.1427ZM258.427 40.89C256.134 42.6096 253.293 43.495 249.842 43.495V45.495C253.652 45.495 256.933 44.5104 259.627 42.49L258.427 40.89ZM249.842 43.495C247.06 43.495 244.588 42.8879 242.402 41.6926L241.442 43.4474C243.95 44.8188 246.758 45.495 249.842 45.495V43.495ZM242.418 41.7018C240.271 40.4749 238.586 38.7577 237.352 36.5305L235.603 37.4995C237.009 40.039 238.953 42.0251 241.426 43.4382L242.418 41.7018ZM237.358 36.5409C236.164 34.324 235.552 31.7414 235.552 28.765H233.552C233.552 32.0219 234.224 34.9393 235.597 37.4891L237.358 36.5409ZM235.552 28.765C235.552 25.7497 236.165 23.1494 237.358 20.9341L235.597 19.9859C234.223 22.5373 233.552 25.4736 233.552 28.765H235.552ZM237.358 20.9341C238.553 18.7148 240.214 17.0223 242.353 15.8342L241.382 14.0858C238.9 15.4644 236.968 17.4385 235.597 19.9859L237.358 20.9341ZM242.353 15.8342C244.495 14.6442 246.982 14.035 249.842 14.035V12.035C246.689 12.035 243.86 12.7092 241.382 14.0858L242.353 15.8342ZM249.842 14.035C252.591 14.035 255.007 14.6251 257.116 15.7818L258.078 14.0282C255.641 12.6916 252.887 12.035 249.842 12.035V14.035ZM257.122 15.785C259.261 16.9391 260.898 18.5766 262.052 20.7149L263.812 19.7651C262.473 17.2834 260.554 15.3643 258.072 14.025L257.122 15.785ZM262.061 20.7316C263.249 22.8353 263.857 25.2832 263.857 28.105H265.857C265.857 24.9868 265.182 22.1914 263.803 19.7484L262.061 20.7316ZM257.882 25.8865C257.841 23.6464 257.016 21.7868 255.381 20.4101L254.093 21.9399C255.245 22.9099 255.851 24.2036 255.882 25.9235L257.882 25.8865ZM255.393 20.42C253.8 19.0369 251.856 18.36 249.622 18.36V20.36C251.422 20.36 252.888 20.8931 254.082 21.93L255.393 20.42ZM249.622 18.36C247.492 18.36 245.636 19.023 244.118 20.3726L245.447 21.8674C246.568 20.8703 247.939 20.36 249.622 20.36V18.36ZM244.119 20.3714C242.623 21.6966 241.747 23.5269 241.427 25.7636L243.407 26.0464C243.674 24.1765 244.375 22.8167 245.445 21.8686L244.119 20.3714ZM242.417 26.905H256.882V24.905H242.417V26.905ZM270.423 20.515L271.3 20.9948L271.303 20.9891L270.423 20.515ZM275.758 15.015L276.249 15.8859L276.26 15.8798L275.758 15.015ZM292.918 15.895L292.305 16.685L292.311 16.69L292.318 16.695L292.918 15.895ZM297.923 23.815V24.815H299.2L298.893 23.5749L297.923 23.815ZM289.618 23.815L288.669 24.1312L288.897 24.815H289.618V23.815ZM287.363 20.735L286.763 21.535L286.779 21.5469L286.795 21.5582L287.363 20.735ZM278.288 22L279.063 22.6313L279.07 22.6225L278.288 22ZM278.288 35.53L277.505 36.1526L277.512 36.1613L278.288 35.53ZM289.618 33.715V32.715H288.903L288.671 33.3913L289.618 33.715ZM297.923 33.715L298.891 33.9626L299.21 32.715H297.923V33.715ZM292.918 41.58L293.532 42.3687L292.918 41.58ZM275.758 42.57L275.255 43.4349L275.266 43.4408L275.758 42.57ZM270.423 37.07L269.542 37.5441L269.545 37.5498L270.423 37.07ZM269.498 28.765C269.498 25.7493 270.11 23.1701 271.3 20.9948L269.545 20.0352C268.168 22.5533 267.498 25.474 267.498 28.765H269.498ZM271.303 20.9891C272.5 18.7656 274.147 17.0728 276.249 15.8858L275.266 14.1442C272.822 15.5239 270.912 17.4977 269.542 20.0409L271.303 20.9891ZM276.26 15.8798C278.363 14.6583 280.79 14.035 283.568 14.035V12.035C280.479 12.035 277.698 12.7317 275.255 14.1502L276.26 15.8798ZM283.568 14.035C287.171 14.035 290.058 14.9417 292.305 16.685L293.531 15.105C290.864 13.035 287.517 12.035 283.568 12.035V14.035ZM292.318 16.695C294.603 18.4091 296.156 20.8387 296.952 24.0551L298.893 23.5749C298.002 19.9713 296.219 17.1209 293.518 15.095L292.318 16.695ZM297.923 22.815H289.618V24.815H297.923V22.815ZM290.566 23.4988C290.063 21.9898 289.186 20.778 287.93 19.9118L286.795 21.5582C287.665 22.1586 288.292 23.0002 288.669 24.1312L290.566 23.4988ZM287.963 19.935C286.73 19.0108 285.224 18.58 283.513 18.58V20.58C284.881 20.58 285.942 20.9192 286.763 21.535L287.963 19.935ZM283.513 18.58C281.031 18.58 278.992 19.5078 277.505 21.3775L279.07 22.6225C280.15 21.2656 281.594 20.58 283.513 20.58V18.58ZM277.512 21.3687C276.031 23.188 275.363 25.701 275.363 28.765H277.363C277.363 25.9624 277.977 23.9654 279.063 22.6313L277.512 21.3687ZM275.363 28.765C275.363 31.7979 276.034 34.3028 277.505 36.1525L279.07 34.9075C277.975 33.5305 277.363 31.5255 277.363 28.765H275.363ZM277.512 36.1613C279.002 37.9923 281.04 38.895 283.513 38.895V36.895C281.585 36.895 280.139 36.221 279.063 34.8987L277.512 36.1613ZM283.513 38.895C285.219 38.895 286.718 38.5125 287.941 37.6751C289.169 36.8345 290.031 35.5951 290.564 34.0387L288.671 33.3913C288.251 34.6215 287.619 35.4722 286.811 36.0249C285.999 36.5809 284.923 36.895 283.513 36.895V38.895ZM289.618 34.715H297.923V32.715H289.618V34.715ZM296.954 33.4674C296.161 36.5705 294.608 38.9949 292.303 40.7913L293.532 42.3687C296.214 40.2784 297.998 37.4595 298.891 33.9626L296.954 33.4674ZM292.303 40.7913C290.016 42.5738 287.127 43.495 283.568 43.495V45.495C287.488 45.495 290.833 44.4729 293.532 42.3687L292.303 40.7913ZM283.568 43.495C280.785 43.495 278.355 42.8878 276.249 41.6992L275.266 43.4408C277.707 44.8189 280.484 45.495 283.568 45.495V43.495ZM276.26 41.7052C274.147 40.4785 272.497 38.7796 271.3 36.5902L269.545 37.5498C270.915 40.0537 272.821 42.0215 275.255 43.4348L276.26 41.7052ZM271.303 36.5959C270.11 34.3806 269.498 31.7803 269.498 28.765H267.498C267.498 32.0564 268.168 34.9927 269.542 37.5441L271.303 36.5959ZM312.529 19.855V18.855H311.529V19.855H312.529ZM313.244 36.85L312.536 37.5571L312.564 37.5843L312.593 37.6093L313.244 36.85ZM319.349 37.51H320.349V36.51H319.349V37.51ZM319.349 44V45H320.349V44H319.349ZM304.774 19.855H305.774V18.855H304.774V19.855ZM301.144 19.855H300.144V20.855H301.144V19.855ZM301.144 13.53V12.53H300.144V13.53H301.144ZM304.774 13.53V14.53H305.774V13.53H304.774ZM304.774 5.995V4.995H303.774V5.995H304.774ZM312.529 5.995H313.529V4.995H312.529V5.995ZM312.529 13.53H311.529V14.53H312.529V13.53ZM319.349 13.53H320.349V12.53H319.349V13.53ZM319.349 19.855V20.855H320.349V19.855H319.349ZM311.529 19.855V34.595H313.529V19.855H311.529ZM311.529 34.595C311.529 35.7506 311.794 36.8146 312.536 37.5571L313.951 36.1429C313.74 35.932 313.529 35.4927 313.529 34.595H311.529ZM312.593 37.6093C313.38 38.2839 314.521 38.51 315.774 38.51V36.51C314.679 36.51 314.134 36.2961 313.894 36.0907L312.593 37.6093ZM315.774 38.51H319.349V36.51H315.774V38.51ZM318.349 37.51V44H320.349V37.51H318.349ZM319.349 43H314.509V45H319.349V43ZM314.509 43C311.411 43 309.272 42.2472 307.904 40.9178C306.542 39.5937 305.774 37.5318 305.774 34.54H303.774C303.774 37.8549 304.628 40.523 306.51 42.3522C308.387 44.1762 311.116 45 314.509 45V43ZM305.774 34.54V19.855H303.774V34.54H305.774ZM304.774 18.855H301.144V20.855H304.774V18.855ZM302.144 19.855V13.53H300.144V19.855H302.144ZM301.144 14.53H304.774V12.53H301.144V14.53ZM305.774 13.53V5.995H303.774V13.53H305.774ZM304.774 6.995H312.529V4.995H304.774V6.995ZM311.529 5.995V13.53H313.529V5.995H311.529ZM312.529 14.53H319.349V12.53H312.529V14.53ZM318.349 13.53V19.855H320.349V13.53H318.349ZM319.349 18.855H312.529V20.855H319.349V18.855ZM330.497 42.57L330.007 43.4416L330.017 43.4474L330.497 42.57ZM324.942 37.015L324.067 37.4995L324.073 37.5097L324.942 37.015ZM324.997 20.515L324.133 20.0103L324.128 20.0203L324.997 20.515ZM330.662 15.015L331.136 15.8955L331.146 15.8898L330.662 15.015ZM346.612 15.015L346.127 15.8899L346.138 15.8955L346.612 15.015ZM352.222 20.515L351.353 21.0097L351.358 21.0197L352.222 20.515ZM352.167 37.015L351.309 36.5005L351.303 36.5103L352.167 37.015ZM346.447 42.57L346.921 43.4505L346.926 43.4479L346.447 42.57ZM342.322 36.795L342.801 37.6729L342.81 37.6679L342.322 36.795ZM345.292 33.715L346.172 34.1905L345.292 33.715ZM344.082 22.11L343.358 22.8001L343.366 22.8087L343.375 22.8171L344.082 22.11ZM332.972 22.11L332.248 21.4199L332.248 21.4203L332.972 22.11ZM332.917 35.475L332.176 36.1468L332.184 36.1558L332.193 36.1647L332.917 35.475ZM338.417 43.495C335.635 43.495 333.162 42.8879 330.977 41.6926L330.017 43.4474C332.525 44.8188 335.332 45.495 338.417 45.495V43.495ZM330.987 41.6984C328.802 40.4691 327.08 38.7491 325.811 36.5203L324.073 37.5097C325.517 40.0476 327.499 42.0309 330.007 43.4416L330.987 41.6984ZM325.817 36.5305C324.59 34.3156 323.962 31.7369 323.962 28.765H321.962C321.962 32.0265 322.654 34.9477 324.067 37.4995L325.817 36.5305ZM323.962 28.765C323.962 25.7977 324.606 23.2227 325.866 21.0097L324.128 20.0203C322.674 22.574 321.962 25.4989 321.962 28.765H323.962ZM325.86 21.0197C327.163 18.7917 328.918 17.0899 331.136 15.8955L330.188 14.1345C327.639 15.5068 325.618 17.4717 324.134 20.0103L325.86 21.0197ZM331.146 15.8898C333.37 14.6582 335.86 14.035 338.637 14.035V12.035C335.547 12.035 332.72 12.7318 330.177 14.1402L331.146 15.8898ZM338.637 14.035C341.414 14.035 343.904 14.6582 346.127 15.8898L347.096 14.1402C344.553 12.7318 341.726 12.035 338.637 12.035V14.035ZM346.138 15.8955C348.354 17.0886 350.088 18.7872 351.353 21.0097L353.091 20.0203C351.643 17.4761 349.637 15.5081 347.086 14.1345L346.138 15.8955ZM351.358 21.0197C352.651 23.2309 353.312 25.8024 353.312 28.765H355.312C355.312 25.4943 354.579 22.5657 353.085 20.0103L351.358 21.0197ZM353.312 28.765C353.312 31.723 352.635 34.2908 351.309 36.5005L353.024 37.5295C354.559 34.9725 355.312 32.0404 355.312 28.765H353.312ZM351.303 36.5103C350.002 38.7368 348.228 40.4594 345.968 41.6921L346.926 43.4479C349.506 42.0406 351.545 40.0598 353.03 37.5197L351.303 36.5103ZM345.973 41.6895C343.749 42.887 341.238 43.495 338.417 43.495V45.495C341.536 45.495 344.378 44.8197 346.921 43.4505L345.973 41.6895ZM338.417 38.785C339.976 38.785 341.442 38.4139 342.801 37.6729L341.843 35.9171C340.781 36.4961 339.645 36.785 338.417 36.785V38.785ZM342.81 37.6679C344.235 36.8713 345.355 35.7003 346.172 34.1905L344.412 33.2395C343.762 34.4431 342.902 35.3254 341.834 35.9221L342.81 37.6679ZM346.172 34.1905C347.002 32.6546 347.392 30.832 347.392 28.765H345.392C345.392 30.5846 345.049 32.0621 344.412 33.2395L346.172 34.1905ZM347.392 28.765C347.392 25.6936 346.572 23.186 344.789 21.4029L343.375 22.8171C344.672 24.114 345.392 26.043 345.392 28.765H347.392ZM344.806 21.4199C343.111 19.6431 340.997 18.745 338.527 18.745V20.745C340.456 20.745 342.046 21.4235 343.358 22.8001L344.806 21.4199ZM338.527 18.745C336.056 18.745 333.942 19.6431 332.248 21.4199L333.696 22.8001C335.008 21.4235 336.597 20.745 338.527 20.745V18.745ZM332.248 21.4203C330.548 23.2051 329.772 25.7062 329.772 28.765H331.772C331.772 26.0305 332.462 24.0949 333.696 22.7997L332.248 21.4203ZM329.772 28.765C329.772 31.8194 330.527 34.3286 332.176 36.1468L333.658 34.8032C332.447 33.4681 331.772 31.5039 331.772 28.765H329.772ZM332.193 36.1647C333.855 37.9104 335.954 38.785 338.417 38.785V36.785C336.48 36.785 334.912 36.1196 333.641 34.7853L332.193 36.1647ZM364.91 43.175L364.49 44.0825L364.497 44.0857L364.504 44.0888L364.91 43.175ZM360.18 39.49L359.375 40.0839L359.38 40.09L359.385 40.096L360.18 39.49ZM358.31 34.375V33.375H357.249L357.312 34.4337L358.31 34.375ZM366.065 34.375L367.057 34.251L366.948 33.375H366.065V34.375ZM367.77 37.29L367.156 38.0794L367.163 38.0847L367.17 38.09L367.77 37.29ZM374.975 37.565L374.404 36.7441L374.395 36.7501L374.387 36.7563L374.975 37.565ZM374.7 33.11L374.24 33.9978L374.259 34.0078L374.279 34.017L374.7 33.11ZM369.915 31.46L370.173 30.4938L370.161 30.4908L370.15 30.488L369.915 31.46ZM364.305 29.755L363.925 30.6802L363.934 30.6835L364.305 29.755ZM360.565 27.06L359.803 27.707L359.808 27.7136L359.814 27.7201L360.565 27.06ZM360.455 17.545L359.64 16.9658L359.635 16.973L359.63 16.9803L360.455 17.545ZM364.635 14.245L364.232 13.3297L364.225 13.3327L364.635 14.245ZM379.76 15.785L379.113 16.5479L379.121 16.5543L379.76 15.785ZM383.335 23.1V24.1H384.409L384.332 23.0288L383.335 23.1ZM375.965 23.1L374.969 23.1905L375.052 24.1H375.965V23.1ZM374.425 20.24L373.785 21.0082L373.802 21.0226L373.82 21.0362L374.425 20.24ZM367.605 19.91L367.05 19.0779L367.041 19.0843L367.032 19.0908L367.605 19.91ZM368.045 24.42L367.573 25.3015L367.585 25.3081L367.598 25.3144L368.045 24.42ZM372.83 26.015L372.584 26.9842L372.587 26.9851L372.83 26.015ZM381.96 30.47L381.188 31.1057L381.198 31.1181L381.209 31.1301L381.96 30.47ZM383.61 35.31H384.61V35.3009L384.61 35.2918L383.61 35.31ZM382.125 40.04L381.31 39.4608L381.305 39.468L381.3 39.4753L382.125 40.04ZM377.945 43.34L378.339 44.2592L378.348 44.2553L377.945 43.34ZM371.62 43.495C369.246 43.495 367.15 43.0764 365.316 42.2612L364.504 44.0888C366.63 45.0336 369.008 45.495 371.62 45.495V43.495ZM365.33 42.2675C363.479 41.4105 362.038 40.2787 360.975 38.884L359.385 40.096C360.669 41.7813 362.381 43.1062 364.49 44.0825L365.33 42.2675ZM360.985 38.8961C359.96 37.5084 359.407 35.9885 359.308 34.3163L357.312 34.4337C357.433 36.5015 358.126 38.3916 359.375 40.0839L360.985 38.8961ZM358.31 35.375H366.065V33.375H358.31V35.375ZM365.073 34.499C365.254 35.9527 365.971 37.1575 367.156 38.0794L368.384 36.5006C367.589 35.8825 367.169 35.1439 367.057 34.251L365.073 34.499ZM367.17 38.09C368.398 39.0111 369.884 39.445 371.565 39.445V37.445C370.24 37.445 369.195 37.1089 368.37 36.49L367.17 38.09ZM371.565 39.445C373.148 39.445 374.522 39.1308 375.563 38.3737L374.387 36.7563C373.815 37.1725 372.915 37.445 371.565 37.445V39.445ZM375.546 38.3859C376.62 37.6386 377.24 36.5975 377.24 35.31H375.24C375.24 35.8559 375.016 36.3181 374.404 36.7441L375.546 38.3859ZM377.24 35.31C377.24 34.6326 377.061 33.9965 376.674 33.444C376.293 32.8996 375.753 32.4962 375.121 32.203L374.279 34.017C374.674 34.2005 374.904 34.402 375.036 34.591C375.162 34.7718 375.24 34.9974 375.24 35.31H377.24ZM375.16 32.2222C374.069 31.6563 372.386 31.084 370.173 30.4938L369.657 32.4262C371.844 33.0093 373.351 33.537 374.24 33.9978L375.16 32.2222ZM370.15 30.488C367.903 29.9445 366.083 29.3892 364.676 28.8265L363.934 30.6835C365.46 31.2941 367.38 31.8755 369.68 32.432L370.15 30.488ZM364.685 28.8298C363.403 28.3042 362.282 27.4991 361.316 26.3999L359.814 27.7201C360.975 29.0409 362.347 30.0325 363.925 30.6802L364.685 28.8298ZM361.328 26.413C360.495 25.4314 360.025 24.0524 360.025 22.165H358.025C358.025 24.3843 358.582 26.2686 359.803 27.707L361.328 26.413ZM360.025 22.165C360.025 20.6801 360.441 19.3369 361.28 18.1097L359.63 16.9803C358.563 18.5398 358.025 20.2766 358.025 22.165H360.025ZM361.27 18.1242C362.142 16.8969 363.385 15.9023 365.045 15.1573L364.225 13.3327C362.291 14.2011 360.748 15.4064 359.64 16.9658L361.27 18.1242ZM365.038 15.1603C366.719 14.4206 368.721 14.035 371.07 14.035V12.035C368.505 12.035 366.218 12.456 364.232 13.3297L365.038 15.1603ZM371.07 14.035C374.531 14.035 377.177 14.9064 379.114 16.5479L380.407 15.0221C378.017 12.9969 374.869 12.035 371.07 12.035V14.035ZM379.121 16.5543C381.053 18.1588 382.135 20.3336 382.338 23.1712L384.332 23.0288C384.095 19.7064 382.794 17.0045 380.399 15.0157L379.121 16.5543ZM383.335 22.1H375.965V24.1H383.335V22.1ZM376.961 23.0095C376.827 21.5372 376.184 20.3207 375.03 19.4438L373.82 21.0362C374.5 21.5526 374.883 22.2428 374.969 23.1905L376.961 23.0095ZM375.065 19.4718C373.956 18.5473 372.513 18.14 370.85 18.14V20.14C372.193 20.14 373.134 20.466 373.785 21.0082L375.065 19.4718ZM370.85 18.14C369.353 18.14 368.048 18.4127 367.05 19.0779L368.16 20.7421C368.702 20.3806 369.561 20.14 370.85 20.14V18.14ZM367.032 19.0908C366.023 19.7965 365.505 20.8214 365.505 22.055H367.505C367.505 21.4553 367.72 21.0501 368.178 20.7292L367.032 19.0908ZM365.505 22.055C365.505 22.7436 365.68 23.3906 366.052 23.9619C366.42 24.5268 366.946 24.9657 367.573 25.3015L368.517 23.5385C368.117 23.3243 367.874 23.0941 367.728 22.8706C367.587 22.6535 367.505 22.393 367.505 22.055H365.505ZM367.598 25.3144C368.723 25.8772 370.403 26.4298 372.584 26.9842L373.076 25.0458C370.93 24.5002 369.42 23.9895 368.492 23.5256L367.598 25.3144ZM372.587 26.9851C374.76 27.5283 376.525 28.0831 377.895 28.6452L378.655 26.7948C377.165 26.1836 375.3 25.6017 373.073 25.0449L372.587 26.9851ZM377.895 28.6452C379.166 29.1664 380.261 29.9805 381.188 31.1057L382.732 29.8343C381.605 28.4662 380.244 27.447 378.655 26.7948L377.895 28.6452ZM381.209 31.1301C382.08 32.121 382.577 33.4867 382.61 35.3282L384.61 35.2918C384.57 33.1 383.967 31.239 382.711 29.8099L381.209 31.1301ZM382.61 35.31C382.61 36.869 382.176 38.242 381.31 39.4608L382.94 40.6192C384.054 39.0514 384.61 37.271 384.61 35.31H382.61ZM381.3 39.4753C380.47 40.688 379.237 41.679 377.542 42.4247L378.348 44.2553C380.32 43.3877 381.873 42.1787 382.95 40.6047L381.3 39.4753ZM377.551 42.4209C375.905 43.1264 373.936 43.495 371.62 43.495V45.495C374.144 45.495 376.392 45.0936 378.339 44.2591L377.551 42.4209Z" fill="url(#paint0_linear_561_569)" mask="url(#path-1-outside-1_561_569)"/>
<defs>
<linearGradient id="paint0_linear_561_569" x1="71.9582" y1="-18.7157" x2="87.5529" y2="100.054" gradientUnits="userSpaceOnUse">
<stop stop-color="#6167FF"/>
<stop offset="1" stop-color="#454DFF"/>
</linearGradient>
</defs>
</svg>
