<svg width="435" height="45" viewBox="0 0 435 45" fill="none" xmlns="http://www.w3.org/2000/svg">
<mask id="path-1-outside-1_561_568" maskUnits="userSpaceOnUse" x="-1" y="-1" width="437" height="47" fill="black">
<rect fill="white" x="-1" y="-1" width="437" height="47"/>
<path d="M42.65 5.61V44H34.95V19.03L24.665 44H18.835L8.495 19.03V44H0.795V5.61H9.54L21.75 34.155L33.96 5.61H42.65ZM54.1678 9.9C52.8111 9.9 51.6744 9.47833 50.7578 8.635C49.8778 7.755 49.4378 6.67333 49.4378 5.39C49.4378 4.10666 49.8778 3.04333 50.7578 2.2C51.6744 1.32 52.8111 0.879998 54.1678 0.879998C55.5244 0.879998 56.6428 1.32 57.5228 2.2C58.4394 3.04333 58.8978 4.10666 58.8978 5.39C58.8978 6.67333 58.4394 7.755 57.5228 8.635C56.6428 9.47833 55.5244 9.9 54.1678 9.9ZM57.9628 13.53V44H50.2628V13.53H57.9628ZM77.2304 44.495C74.7371 44.495 72.5004 44.055 70.5204 43.175C68.5404 42.2583 66.9637 41.03 65.7904 39.49C64.6537 37.95 64.0304 36.245 63.9204 34.375H71.6754C71.8221 35.5483 72.3904 36.52 73.3804 37.29C74.4071 38.06 75.6721 38.445 77.1754 38.445C78.6421 38.445 79.7787 38.1517 80.5854 37.565C81.4287 36.9783 81.8504 36.2267 81.8504 35.31C81.8504 34.32 81.3371 33.5867 80.3104 33.11C79.3204 32.5967 77.7254 32.0467 75.5254 31.46C73.2521 30.91 71.3821 30.3417 69.9154 29.755C68.4854 29.1683 67.2387 28.27 66.1754 27.06C65.1487 25.85 64.6354 24.2183 64.6354 22.165C64.6354 20.4783 65.1121 18.9383 66.0654 17.545C67.0554 16.1517 68.4487 15.0517 70.2454 14.245C72.0787 13.4383 74.2237 13.035 76.6804 13.035C80.3104 13.035 83.2071 13.9517 85.3704 15.785C87.5337 17.5817 88.7254 20.02 88.9454 23.1H81.5754C81.4654 21.89 80.9521 20.9367 80.0354 20.24C79.1554 19.5067 77.9637 19.14 76.4604 19.14C75.0671 19.14 73.9854 19.3967 73.2154 19.91C72.4821 20.4233 72.1154 21.1383 72.1154 22.055C72.1154 23.0817 72.6287 23.87 73.6554 24.42C74.6821 24.9333 76.2771 25.465 78.4404 26.015C80.6404 26.565 82.4554 27.1333 83.8854 27.72C85.3154 28.3067 86.5437 29.2233 87.5704 30.47C88.6337 31.68 89.1837 33.2933 89.2204 35.31C89.2204 37.07 88.7254 38.6467 87.7354 40.04C86.7821 41.4333 85.3887 42.5333 83.5554 43.34C81.7587 44.11 79.6504 44.495 77.2304 44.495ZM125.807 13.09C128.117 13.09 130.17 13.6033 131.967 14.63C133.763 15.62 135.157 17.105 136.147 19.085C137.173 21.0283 137.687 23.375 137.687 26.125V44H129.987V27.17C129.987 24.75 129.382 22.8983 128.172 21.615C126.962 20.295 125.312 19.635 123.222 19.635C121.095 19.635 119.408 20.295 118.162 21.615C116.952 22.8983 116.347 24.75 116.347 27.17V44H108.647V3.3H116.347V17.325C117.337 16.005 118.657 14.9783 120.307 14.245C121.957 13.475 123.79 13.09 125.807 13.09ZM143.029 28.655C143.029 25.575 143.634 22.8433 144.844 20.46C146.091 18.0767 147.759 16.2433 149.849 14.96C151.976 13.6767 154.341 13.035 156.944 13.035C159.217 13.035 161.197 13.4933 162.884 14.41C164.607 15.3267 165.982 16.4817 167.009 17.875V13.53H174.764V44H167.009V39.545C166.019 40.975 164.644 42.1667 162.884 43.12C161.161 44.0367 159.162 44.495 156.889 44.495C154.322 44.495 151.976 43.835 149.849 42.515C147.759 41.195 146.091 39.3433 144.844 36.96C143.634 34.54 143.029 31.7717 143.029 28.655ZM167.009 28.765C167.009 26.895 166.642 25.3 165.909 23.98C165.176 22.6233 164.186 21.5967 162.939 20.9C161.692 20.1667 160.354 19.8 158.924 19.8C157.494 19.8 156.174 20.1483 154.964 20.845C153.754 21.5417 152.764 22.5683 151.994 23.925C151.261 25.245 150.894 26.8217 150.894 28.655C150.894 30.4883 151.261 32.1017 151.994 33.495C152.764 34.8517 153.754 35.8967 154.964 36.63C156.211 37.3633 157.531 37.73 158.924 37.73C160.354 37.73 161.692 37.3817 162.939 36.685C164.186 35.9517 165.176 34.925 165.909 33.605C166.642 32.2483 167.009 30.635 167.009 28.765ZM189.984 17.985C190.974 16.5183 192.331 15.3267 194.054 14.41C195.814 13.4933 197.813 13.035 200.049 13.035C202.653 13.035 204.999 13.6767 207.089 14.96C209.216 16.2433 210.884 18.0767 212.094 20.46C213.341 22.8067 213.964 25.5383 213.964 28.655C213.964 31.7717 213.341 34.54 212.094 36.96C210.884 39.3433 209.216 41.195 207.089 42.515C204.999 43.835 202.653 44.495 200.049 44.495C197.776 44.495 195.778 44.055 194.054 43.175C192.368 42.2583 191.011 41.085 189.984 39.655V44H182.284V3.3H189.984V17.985ZM206.099 28.655C206.099 26.8217 205.714 25.245 204.944 23.925C204.211 22.5683 203.221 21.5417 201.974 20.845C200.764 20.1483 199.444 19.8 198.014 19.8C196.621 19.8 195.301 20.1667 194.054 20.9C192.844 21.5967 191.854 22.6233 191.084 23.98C190.351 25.3367 189.984 26.9317 189.984 28.765C189.984 30.5983 190.351 32.1933 191.084 33.55C191.854 34.9067 192.844 35.9517 194.054 36.685C195.301 37.3817 196.621 37.73 198.014 37.73C199.444 37.73 200.764 37.3633 201.974 36.63C203.221 35.8967 204.211 34.8517 204.944 33.495C205.714 32.1383 206.099 30.525 206.099 28.655ZM223.465 9.9C222.108 9.9 220.971 9.47833 220.055 8.635C219.175 7.755 218.735 6.67333 218.735 5.39C218.735 4.10666 219.175 3.04333 220.055 2.2C220.971 1.32 222.108 0.879998 223.465 0.879998C224.821 0.879998 225.94 1.32 226.82 2.2C227.736 3.04333 228.195 4.10666 228.195 5.39C228.195 6.67333 227.736 7.755 226.82 8.635C225.94 9.47833 224.821 9.9 223.465 9.9ZM227.26 13.53V44H219.56V13.53H227.26ZM242.567 3.3V44H234.867V3.3H242.567ZM254.08 9.9C252.723 9.9 251.587 9.47833 250.67 8.635C249.79 7.755 249.35 6.67333 249.35 5.39C249.35 4.10666 249.79 3.04333 250.67 2.2C251.587 1.32 252.723 0.879998 254.08 0.879998C255.437 0.879998 256.555 1.32 257.435 2.2C258.352 3.04333 258.81 4.10666 258.81 5.39C258.81 6.67333 258.352 7.755 257.435 8.635C256.555 9.47833 255.437 9.9 254.08 9.9ZM257.875 13.53V44H250.175V13.53H257.875ZM263.502 28.655C263.502 25.575 264.107 22.8433 265.317 20.46C266.564 18.0767 268.251 16.2433 270.378 14.96C272.504 13.6767 274.869 13.035 277.473 13.035C279.453 13.035 281.341 13.475 283.138 14.355C284.934 15.1983 286.364 16.335 287.428 17.765V3.3H295.238V44H287.428V39.49C286.474 40.9933 285.136 42.2033 283.413 43.12C281.689 44.0367 279.691 44.495 277.418 44.495C274.851 44.495 272.504 43.835 270.378 42.515C268.251 41.195 266.564 39.3433 265.317 36.96C264.107 34.54 263.502 31.7717 263.502 28.655ZM287.483 28.765C287.483 26.895 287.116 25.3 286.383 23.98C285.649 22.6233 284.659 21.5967 283.413 20.9C282.166 20.1667 280.828 19.8 279.398 19.8C277.968 19.8 276.648 20.1483 275.438 20.845C274.228 21.5417 273.238 22.5683 272.468 23.925C271.734 25.245 271.368 26.8217 271.368 28.655C271.368 30.4883 271.734 32.1017 272.468 33.495C273.238 34.8517 274.228 35.8967 275.438 36.63C276.684 37.3633 278.004 37.73 279.398 37.73C280.828 37.73 282.166 37.3817 283.413 36.685C284.659 35.9517 285.649 34.925 286.383 33.605C287.116 32.2483 287.483 30.635 287.483 28.765ZM300.778 28.655C300.778 25.575 301.383 22.8433 302.593 20.46C303.84 18.0767 305.508 16.2433 307.598 14.96C309.725 13.6767 312.09 13.035 314.693 13.035C316.966 13.035 318.946 13.4933 320.633 14.41C322.356 15.3267 323.731 16.4817 324.758 17.875V13.53H332.513V44H324.758V39.545C323.768 40.975 322.393 42.1667 320.633 43.12C318.91 44.0367 316.911 44.495 314.638 44.495C312.071 44.495 309.725 43.835 307.598 42.515C305.508 41.195 303.84 39.3433 302.593 36.96C301.383 34.54 300.778 31.7717 300.778 28.655ZM324.758 28.765C324.758 26.895 324.391 25.3 323.658 23.98C322.925 22.6233 321.935 21.5967 320.688 20.9C319.441 20.1667 318.103 19.8 316.673 19.8C315.243 19.8 313.923 20.1483 312.713 20.845C311.503 21.5417 310.513 22.5683 309.743 23.925C309.01 25.245 308.643 26.8217 308.643 28.655C308.643 30.4883 309.01 32.1017 309.743 33.495C310.513 34.8517 311.503 35.8967 312.713 36.63C313.96 37.3633 315.28 37.73 316.673 37.73C318.103 37.73 319.441 37.3817 320.688 36.685C321.935 35.9517 322.925 34.925 323.658 33.605C324.391 32.2483 324.758 30.635 324.758 28.765ZM338.053 28.655C338.053 25.575 338.658 22.8433 339.868 20.46C341.115 18.0767 342.802 16.2433 344.928 14.96C347.055 13.6767 349.42 13.035 352.023 13.035C354.003 13.035 355.892 13.475 357.688 14.355C359.485 15.1983 360.915 16.335 361.978 17.765V3.3H369.788V44H361.978V39.49C361.025 40.9933 359.687 42.2033 357.963 43.12C356.24 44.0367 354.242 44.495 351.968 44.495C349.402 44.495 347.055 43.835 344.928 42.515C342.802 41.195 341.115 39.3433 339.868 36.96C338.658 34.54 338.053 31.7717 338.053 28.655ZM362.033 28.765C362.033 26.895 361.667 25.3 360.933 23.98C360.2 22.6233 359.21 21.5967 357.963 20.9C356.717 20.1667 355.378 19.8 353.948 19.8C352.518 19.8 351.198 20.1483 349.988 20.845C348.778 21.5417 347.788 22.5683 347.018 23.925C346.285 25.245 345.918 26.8217 345.918 28.655C345.918 30.4883 346.285 32.1017 347.018 33.495C347.788 34.8517 348.778 35.8967 349.988 36.63C351.235 37.3633 352.555 37.73 353.948 37.73C355.378 37.73 356.717 37.3817 357.963 36.685C359.21 35.9517 360.2 34.925 360.933 33.605C361.667 32.2483 362.033 30.635 362.033 28.765ZM405.634 28.105C405.634 29.205 405.56 30.195 405.414 31.075H383.139C383.322 33.275 384.092 34.9983 385.449 36.245C386.805 37.4917 388.474 38.115 390.454 38.115C393.314 38.115 395.349 36.8867 396.559 34.43H404.864C403.984 37.3633 402.297 39.7833 399.804 41.69C397.31 43.56 394.249 44.495 390.619 44.495C387.685 44.495 385.045 43.8533 382.699 42.57C380.389 41.25 378.574 39.3983 377.254 37.015C375.97 34.6317 375.329 31.8817 375.329 28.765C375.329 25.6117 375.97 22.8433 377.254 20.46C378.537 18.0767 380.334 16.2433 382.644 14.96C384.954 13.6767 387.612 13.035 390.619 13.035C393.515 13.035 396.1 13.6583 398.374 14.905C400.684 16.1517 402.462 17.93 403.709 20.24C404.992 22.5133 405.634 25.135 405.634 28.105ZM397.659 25.905C397.622 23.925 396.907 22.3483 395.514 21.175C394.12 19.965 392.415 19.36 390.399 19.36C388.492 19.36 386.879 19.9467 385.559 21.12C384.275 22.2567 383.487 23.8517 383.194 25.905H397.659ZM422.914 44.495C420.421 44.495 418.184 44.055 416.204 43.175C414.224 42.2583 412.647 41.03 411.474 39.49C410.337 37.95 409.714 36.245 409.604 34.375H417.359C417.506 35.5483 418.074 36.52 419.064 37.29C420.091 38.06 421.356 38.445 422.859 38.445C424.326 38.445 425.462 38.1517 426.269 37.565C427.112 36.9783 427.534 36.2267 427.534 35.31C427.534 34.32 427.021 33.5867 425.994 33.11C425.004 32.5967 423.409 32.0467 421.209 31.46C418.936 30.91 417.066 30.3417 415.599 29.755C414.169 29.1683 412.922 28.27 411.859 27.06C410.832 25.85 410.319 24.2183 410.319 22.165C410.319 20.4783 410.796 18.9383 411.749 17.545C412.739 16.1517 414.132 15.0517 415.929 14.245C417.762 13.4383 419.907 13.035 422.364 13.035C425.994 13.035 428.891 13.9517 431.054 15.785C433.217 17.5817 434.409 20.02 434.629 23.1H427.259C427.149 21.89 426.636 20.9367 425.719 20.24C424.839 19.5067 423.647 19.14 422.144 19.14C420.751 19.14 419.669 19.3967 418.899 19.91C418.166 20.4233 417.799 21.1383 417.799 22.055C417.799 23.0817 418.312 23.87 419.339 24.42C420.366 24.9333 421.961 25.465 424.124 26.015C426.324 26.565 428.139 27.1333 429.569 27.72C430.999 28.3067 432.227 29.2233 433.254 30.47C434.317 31.68 434.867 33.2933 434.904 35.31C434.904 37.07 434.409 38.6467 433.419 40.04C432.466 41.4333 431.072 42.5333 429.239 43.34C427.442 44.11 425.334 44.495 422.914 44.495Z"/>
</mask>
<path d="M42.65 5.61H43.65V4.61H42.65V5.61ZM42.65 44V45H43.65V44H42.65ZM34.95 44H33.95V45H34.95V44ZM34.95 19.03H35.95L34.0254 18.6491L34.95 19.03ZM24.665 44V45H25.3346L25.5896 44.3809L24.665 44ZM18.835 44L17.9111 44.3826L18.1667 45H18.835V44ZM8.495 19.03L9.41892 18.6474L7.495 19.03H8.495ZM8.495 44V45H9.495V44H8.495ZM0.795 44H-0.205V45H0.795V44ZM0.795 5.61V4.61H-0.205V5.61H0.795ZM9.54 5.61L10.4594 5.21672L10.1999 4.61H9.54V5.61ZM21.75 34.155L20.8306 34.5483L21.75 36.6977L22.6694 34.5483L21.75 34.155ZM33.96 5.61V4.61H33.3001L33.0406 5.21672L33.96 5.61ZM41.65 5.61V44H43.65V5.61H41.65ZM42.65 43H34.95V45H42.65V43ZM35.95 44V19.03H33.95V44H35.95ZM34.0254 18.6491L23.7404 43.6191L25.5896 44.3809L35.8746 19.4109L34.0254 18.6491ZM24.665 43H18.835V45H24.665V43ZM19.7589 43.6174L9.41892 18.6474L7.57108 19.4126L17.9111 44.3826L19.7589 43.6174ZM7.495 19.03V44H9.495V19.03H7.495ZM8.495 43H0.795V45H8.495V43ZM1.795 44V5.61H-0.205V44H1.795ZM0.795 6.61H9.54V4.61H0.795V6.61ZM8.62058 6.00328L20.8306 34.5483L22.6694 33.7617L10.4594 5.21672L8.62058 6.00328ZM22.6694 34.5483L34.8794 6.00328L33.0406 5.21672L20.8306 33.7617L22.6694 34.5483ZM33.96 6.61H42.65V4.61H33.96V6.61ZM50.7578 8.635L50.0507 9.34211L50.0654 9.35683L50.0807 9.37093L50.7578 8.635ZM50.7578 2.2L51.4497 2.92199L51.4503 2.92138L50.7578 2.2ZM57.5228 2.2L56.8157 2.9071L56.8304 2.92183L56.8457 2.93593L57.5228 2.2ZM57.5228 8.635L58.2147 9.35699L58.2153 9.35639L57.5228 8.635ZM57.9628 13.53H58.9628V12.53H57.9628V13.53ZM57.9628 44V45H58.9628V44H57.9628ZM50.2628 44H49.2628V45H50.2628V44ZM50.2628 13.53V12.53H49.2628V13.53H50.2628ZM54.1678 8.9C53.0376 8.9 52.1498 8.5568 51.4348 7.89907L50.0807 9.37093C51.1991 10.3999 52.5846 10.9 54.1678 10.9V8.9ZM51.4649 7.92789C50.7789 7.24187 50.4378 6.41737 50.4378 5.39H48.4378C48.4378 6.9293 48.9767 8.26813 50.0507 9.34211L51.4649 7.92789ZM50.4378 5.39C50.4378 4.36312 50.7779 3.56582 51.4497 2.92199L50.0659 1.47801C48.9777 2.52084 48.4378 3.85021 48.4378 5.39H50.4378ZM51.4503 2.92138C52.1673 2.23305 53.05 1.88 54.1678 1.88V-0.120003C52.5722 -0.120003 51.1816 0.406944 50.0652 1.47861L51.4503 2.92138ZM54.1678 1.88C55.2855 1.88 56.141 2.23247 56.8157 2.9071L58.2299 1.49289C57.1445 0.407524 55.7633 -0.120003 54.1678 -0.120003V1.88ZM56.8457 2.93593C57.5496 3.5835 57.8978 4.37673 57.8978 5.39H59.8978C59.8978 3.8366 59.3293 2.50317 58.1998 1.46407L56.8457 2.93593ZM57.8978 5.39C57.8978 6.4041 57.5483 7.22429 56.8302 7.91361L58.2153 9.35639C59.3306 8.2857 59.8978 6.94256 59.8978 5.39H57.8978ZM56.8309 7.91301C56.1587 8.55714 55.2983 8.9 54.1678 8.9V10.9C55.7506 10.9 57.1268 10.3995 58.2147 9.35699L56.8309 7.91301ZM56.9628 13.53V44H58.9628V13.53H56.9628ZM57.9628 43H50.2628V45H57.9628V43ZM51.2628 44V13.53H49.2628V44H51.2628ZM50.2628 14.53H57.9628V12.53H50.2628V14.53ZM70.5204 43.175L70.1003 44.0825L70.1072 44.0857L70.1143 44.0888L70.5204 43.175ZM65.7904 39.49L64.9858 40.0839L64.9903 40.09L64.995 40.096L65.7904 39.49ZM63.9204 34.375V33.375H62.8598L62.9221 34.4337L63.9204 34.375ZM71.6754 34.375L72.6677 34.251L72.5582 33.375H71.6754V34.375ZM73.3804 37.29L72.7664 38.0794L72.7734 38.0847L72.7804 38.09L73.3804 37.29ZM80.5854 37.565L80.0143 36.7441L80.0057 36.7501L79.9972 36.7563L80.5854 37.565ZM80.3104 33.11L79.8501 33.9978L79.8695 34.0078L79.8893 34.017L80.3104 33.11ZM75.5254 31.46L75.7831 30.4938L75.7718 30.4908L75.7605 30.488L75.5254 31.46ZM69.9154 29.755L69.5358 30.6802L69.544 30.6835L69.9154 29.755ZM66.1754 27.06L65.4129 27.707L65.4185 27.7136L65.4242 27.7201L66.1754 27.06ZM66.0654 17.545L65.2502 16.9658L65.2451 16.973L65.2401 16.9803L66.0654 17.545ZM70.2454 14.245L69.8426 13.3297L69.8358 13.3327L70.2454 14.245ZM85.3704 15.785L84.7238 16.5479L84.7315 16.5543L85.3704 15.785ZM88.9454 23.1V24.1H90.0194L89.9428 23.0288L88.9454 23.1ZM81.5754 23.1L80.5795 23.1905L80.6622 24.1H81.5754V23.1ZM80.0354 20.24L79.3952 21.0082L79.4124 21.0226L79.4303 21.0362L80.0354 20.24ZM73.2154 19.91L72.6607 19.0779L72.6512 19.0843L72.6419 19.0908L73.2154 19.91ZM73.6554 24.42L73.1832 25.3015L73.1956 25.3081L73.2082 25.3144L73.6554 24.42ZM78.4404 26.015L78.194 26.9842L78.1979 26.9851L78.4404 26.015ZM87.5704 30.47L86.7985 31.1057L86.8086 31.1181L86.8192 31.1301L87.5704 30.47ZM89.2204 35.31H90.2204V35.3009L90.2202 35.2918L89.2204 35.31ZM87.7354 40.04L86.9202 39.4608L86.9151 39.468L86.9101 39.4753L87.7354 40.04ZM83.5554 43.34L83.9493 44.2592L83.9581 44.2553L83.5554 43.34ZM77.2304 43.495C74.856 43.495 72.7608 43.0764 70.9265 42.2612L70.1143 44.0888C72.24 45.0336 74.6181 45.495 77.2304 45.495V43.495ZM70.9405 42.2675C69.0893 41.4105 67.6485 40.2787 66.5858 38.884L64.995 40.096C66.2789 41.7813 67.9915 43.1062 70.1003 44.0825L70.9405 42.2675ZM66.595 38.8961C65.5707 37.5084 65.017 35.9885 64.9187 34.3163L62.9221 34.4337C63.0438 36.5015 63.7368 38.3916 64.9858 40.0839L66.595 38.8961ZM63.9204 35.375H71.6754V33.375H63.9204V35.375ZM70.6831 34.499C70.8648 35.9527 71.5812 37.1575 72.7664 38.0794L73.9943 36.5006C73.1996 35.8825 72.7793 35.1439 72.6677 34.251L70.6831 34.499ZM72.7804 38.09C74.0086 39.0111 75.4941 39.445 77.1754 39.445V37.445C75.85 37.445 74.8055 37.1089 73.9804 36.49L72.7804 38.09ZM77.1754 39.445C78.7585 39.445 80.1326 39.1308 81.1736 38.3737L79.9972 36.7563C79.4249 37.1725 78.5256 37.445 77.1754 37.445V39.445ZM81.1565 38.3859C82.2308 37.6386 82.8504 36.5975 82.8504 35.31H80.8504C80.8504 35.8559 80.6267 36.3181 80.0143 36.7441L81.1565 38.3859ZM82.8504 35.31C82.8504 34.6326 82.6713 33.9965 82.2846 33.444C81.9035 32.8996 81.363 32.4962 80.7315 32.203L79.8893 34.017C80.2845 34.2005 80.5139 34.402 80.6462 34.591C80.7728 34.7718 80.8504 34.9974 80.8504 35.31H82.8504ZM80.7707 32.2222C79.6793 31.6563 77.9965 31.084 75.7831 30.4938L75.2677 32.4262C77.4543 33.0093 78.9615 33.537 79.8501 33.9978L80.7707 32.2222ZM75.7605 30.488C73.5138 29.9445 71.6936 29.3892 70.2868 28.8265L69.544 30.6835C71.0705 31.2941 72.9903 31.8755 75.2902 32.432L75.7605 30.488ZM70.2949 28.8298C69.0137 28.3042 67.8925 27.4991 66.9266 26.3999L65.4242 27.7201C66.5849 29.0409 67.9571 30.0325 69.5358 30.6802L70.2949 28.8298ZM66.9379 26.413C66.105 25.4314 65.6354 24.0524 65.6354 22.165H63.6354C63.6354 24.3843 64.1925 26.2686 65.4129 27.707L66.9379 26.413ZM65.6354 22.165C65.6354 20.6801 66.051 19.3369 66.8907 18.1097L65.2401 16.9803C64.1731 18.5398 63.6354 20.2766 63.6354 22.165H65.6354ZM66.8806 18.1242C67.7526 16.8969 68.9957 15.9023 70.655 15.1573L69.8358 13.3327C67.9018 14.2011 66.3582 15.4064 65.2502 16.9658L66.8806 18.1242ZM70.6481 15.1603C72.3292 14.4206 74.3318 14.035 76.6804 14.035V12.035C74.1157 12.035 71.8282 12.456 69.8427 13.3297L70.6481 15.1603ZM76.6804 14.035C80.1415 14.035 82.7869 14.9064 84.7239 16.5479L86.0169 15.0221C83.6272 12.9969 80.4793 12.035 76.6804 12.035V14.035ZM84.7315 16.5543C86.6635 18.1588 87.7452 20.3336 87.9479 23.1712L89.9428 23.0288C89.7055 19.7064 88.404 17.0045 86.0093 15.0157L84.7315 16.5543ZM88.9454 22.1H81.5754V24.1H88.9454V22.1ZM82.5713 23.0095C82.4374 21.5372 81.7943 20.3207 80.6405 19.4438L79.4303 21.0362C80.1098 21.5526 80.4933 22.2428 80.5795 23.1905L82.5713 23.0095ZM80.6756 19.4718C79.5662 18.5473 78.1237 18.14 76.4604 18.14V20.14C77.8037 20.14 78.7445 20.466 79.3952 21.0082L80.6756 19.4718ZM76.4604 18.14C74.9632 18.14 73.6585 18.4127 72.6607 19.0779L73.7701 20.7421C74.3123 20.3806 75.171 20.14 76.4604 20.14V18.14ZM72.6419 19.0908C71.6337 19.7965 71.1154 20.8214 71.1154 22.055H73.1154C73.1154 21.4553 73.3304 21.0501 73.7889 20.7292L72.6419 19.0908ZM71.1154 22.055C71.1154 22.7436 71.2904 23.3906 71.6624 23.9619C72.0302 24.5268 72.5564 24.9657 73.1832 25.3015L74.1276 23.5385C73.7277 23.3243 73.4839 23.0941 73.3384 22.8706C73.1971 22.6535 73.1154 22.393 73.1154 22.055H71.1154ZM73.2082 25.3144C74.3337 25.8772 76.0133 26.4298 78.194 26.9842L78.6868 25.0458C76.5408 24.5002 75.0304 23.9895 74.1026 23.5256L73.2082 25.3144ZM78.1979 26.9851C80.3706 27.5283 82.1357 28.0831 83.5058 28.6452L84.2649 26.7948C82.7751 26.1836 80.9102 25.6017 78.6829 25.0449L78.1979 26.9851ZM83.5058 28.6452C84.7762 29.1664 85.8718 29.9805 86.7985 31.1057L88.3423 29.8343C87.2156 28.4662 85.8546 27.447 84.2649 26.7948L83.5058 28.6452ZM86.8192 31.1301C87.69 32.121 88.1871 33.4867 88.2206 35.3282L90.2202 35.2918C90.1804 33.1 89.5774 31.239 88.3216 29.8099L86.8192 31.1301ZM88.2204 35.31C88.2204 36.869 87.7862 38.242 86.9202 39.4608L88.5506 40.6192C89.6646 39.0514 90.2204 37.271 90.2204 35.31H88.2204ZM86.9101 39.4753C86.0804 40.688 84.8474 41.679 83.1527 42.4247L83.9581 44.2553C85.9301 43.3877 87.4837 42.1787 88.5607 40.6047L86.9101 39.4753ZM83.1615 42.4209C81.5151 43.1264 79.5462 43.495 77.2304 43.495V45.495C79.7545 45.495 82.0023 45.0936 83.9493 44.2591L83.1615 42.4209ZM131.967 14.63L131.47 15.4982L131.477 15.5021L131.484 15.5058L131.967 14.63ZM136.147 19.085L135.252 19.5322L135.257 19.5422L135.262 19.5521L136.147 19.085ZM137.687 44V45H138.687V44H137.687ZM129.987 44H128.987V45H129.987V44ZM128.172 21.615L127.434 22.2908L127.444 22.301L128.172 21.615ZM118.162 21.615L117.435 20.9284L117.434 20.929L118.162 21.615ZM116.347 44V45H117.347V44H116.347ZM108.647 44H107.647V45H108.647V44ZM108.647 3.3V2.3H107.647V3.3H108.647ZM116.347 3.3H117.347V2.3H116.347V3.3ZM116.347 17.325H115.347V20.325L117.147 17.925L116.347 17.325ZM120.307 14.245L120.713 15.1588L120.721 15.1551L120.729 15.1512L120.307 14.245ZM125.807 14.09C127.963 14.09 129.842 14.5676 131.47 15.4982L132.463 13.7618C130.498 12.639 128.27 12.09 125.807 12.09V14.09ZM131.484 15.5058C133.089 16.3902 134.345 17.7184 135.252 19.5322L137.041 18.6378C135.968 16.4916 134.438 14.8498 132.449 13.7542L131.484 15.5058ZM135.262 19.5521C136.196 21.3198 136.687 23.4977 136.687 26.125H138.687C138.687 23.2523 138.15 20.7369 137.031 18.6179L135.262 19.5521ZM136.687 26.125V44H138.687V26.125H136.687ZM137.687 43H129.987V45H137.687V43ZM130.987 44V27.17H128.987V44H130.987ZM130.987 27.17C130.987 24.5911 130.34 22.4577 128.899 20.929L127.444 22.301C128.423 23.339 128.987 24.9089 128.987 27.17H130.987ZM128.909 20.9393C127.477 19.3776 125.541 18.635 123.222 18.635V20.635C125.083 20.635 126.446 21.2124 127.434 22.2907L128.909 20.9393ZM123.222 18.635C120.871 18.635 118.903 19.3739 117.435 20.9284L118.889 22.3016C119.914 21.2161 121.319 20.635 123.222 20.635V18.635ZM117.434 20.929C115.993 22.4577 115.347 24.5911 115.347 27.17H117.347C117.347 24.9089 117.91 23.339 118.889 22.301L117.434 20.929ZM115.347 27.17V44H117.347V27.17H115.347ZM116.347 43H108.647V45H116.347V43ZM109.647 44V3.3H107.647V44H109.647ZM108.647 4.3H116.347V2.3H108.647V4.3ZM115.347 3.3V17.325H117.347V3.3H115.347ZM117.147 17.925C118.025 16.7541 119.204 15.8296 120.713 15.1588L119.9 13.3312C118.11 14.1271 116.648 15.2559 115.547 16.725L117.147 17.925ZM120.729 15.1512C122.233 14.4493 123.92 14.09 125.807 14.09V12.09C123.66 12.09 121.68 12.5007 119.884 13.3388L120.729 15.1512ZM144.844 20.46L143.958 19.9965L143.952 20.0073L144.844 20.46ZM149.849 14.96L149.332 14.1038L149.326 14.1078L149.849 14.96ZM162.884 14.41L162.406 15.2887L162.414 15.2929L162.884 14.41ZM167.009 17.875L166.204 18.4682L168.009 20.9179V17.875H167.009ZM167.009 13.53V12.53H166.009V13.53H167.009ZM174.764 13.53H175.764V12.53H174.764V13.53ZM174.764 44V45H175.764V44H174.764ZM167.009 44H166.009V45H167.009V44ZM167.009 39.545H168.009V36.3437L166.187 38.9758L167.009 39.545ZM162.884 43.12L163.354 44.0029L163.36 43.9993L162.884 43.12ZM149.849 42.515L149.315 43.3605L149.322 43.3646L149.849 42.515ZM144.844 36.96L143.949 37.4072L143.954 37.4154L143.958 37.4235L144.844 36.96ZM165.909 23.98L165.029 24.4555L165.035 24.4656L165.909 23.98ZM162.939 20.9L162.432 21.7619L162.441 21.7675L162.451 21.7729L162.939 20.9ZM154.964 20.845L154.465 19.9784L154.964 20.845ZM151.994 23.925L151.124 23.4314L151.12 23.4394L151.994 23.925ZM151.994 33.495L151.109 33.9607L151.116 33.9748L151.124 33.9886L151.994 33.495ZM154.964 36.63L154.446 37.4853L154.457 37.4919L154.964 36.63ZM162.939 36.685L163.427 37.5579L163.436 37.5525L163.446 37.5469L162.939 36.685ZM165.909 33.605L166.783 34.0907L166.789 34.0805L165.909 33.605ZM144.029 28.655C144.029 25.7083 144.607 23.1358 145.736 20.9127L143.952 20.0073C142.661 22.5509 142.029 25.4417 142.029 28.655H144.029ZM145.73 20.9235C146.901 18.6841 148.451 16.9921 150.372 15.8122L149.326 14.1078C147.067 15.4946 145.28 17.4692 143.958 19.9965L145.73 20.9235ZM150.366 15.8162C152.329 14.6316 154.513 14.035 156.944 14.035V12.035C154.168 12.035 151.622 12.7218 149.332 14.1038L150.366 15.8162ZM156.944 14.035C159.081 14.035 160.891 14.4651 162.406 15.2886L163.361 13.5314C161.503 12.5216 159.353 12.035 156.944 12.035V14.035ZM162.414 15.2929C164.022 16.1483 165.277 17.2099 166.204 18.4682L167.814 17.2818C166.688 15.7535 165.192 14.505 163.353 13.5271L162.414 15.2929ZM168.009 17.875V13.53H166.009V17.875H168.009ZM167.009 14.53H174.764V12.53H167.009V14.53ZM173.764 13.53V44H175.764V13.53H173.764ZM174.764 43H167.009V45H174.764V43ZM168.009 44V39.545H166.009V44H168.009ZM166.187 38.9758C165.299 40.2585 164.05 41.3508 162.408 42.2407L163.36 43.9993C165.237 42.9825 166.739 41.6915 167.831 40.1142L166.187 38.9758ZM162.414 42.2371C160.858 43.0651 159.025 43.495 156.889 43.495V45.495C159.299 45.495 161.463 45.0082 163.353 44.0029L162.414 42.2371ZM156.889 43.495C154.504 43.495 152.34 42.8845 150.376 41.6654L149.322 43.3646C151.611 44.7855 154.141 45.495 156.889 45.495V43.495ZM150.383 41.6695C148.455 40.4518 146.902 38.7379 145.73 36.4965L143.958 37.4235C145.279 39.9488 147.063 41.9382 149.315 43.3605L150.383 41.6695ZM145.738 36.5128C144.608 34.2513 144.029 31.6401 144.029 28.655H142.029C142.029 31.9033 142.66 34.8287 143.949 37.4072L145.738 36.5128ZM168.009 28.765C168.009 26.7651 167.616 24.9944 166.783 23.4944L165.035 24.4656C165.668 25.6056 166.009 27.0249 166.009 28.765H168.009ZM166.789 23.5045C165.972 21.9947 164.852 20.8237 163.427 20.0271L162.451 21.7729C163.519 22.3696 164.379 23.2519 165.029 24.4555L166.789 23.5045ZM163.446 20.0381C162.047 19.2154 160.534 18.8 158.924 18.8V20.8C160.173 20.8 161.337 21.1179 162.432 21.7619L163.446 20.0381ZM158.924 18.8C157.323 18.8 155.83 19.1921 154.465 19.9784L155.463 21.7116C156.517 21.1045 157.665 20.8 158.924 20.8V18.8ZM154.465 19.9784C153.083 20.7742 151.972 21.9382 151.124 23.4314L152.864 24.4186C153.556 23.1985 154.425 22.3091 155.463 21.7116L154.465 19.9784ZM151.12 23.4394C150.288 24.9366 149.894 26.6879 149.894 28.655H151.894C151.894 26.9554 152.233 25.5534 152.868 24.4106L151.12 23.4394ZM149.894 28.655C149.894 30.6239 150.288 32.4019 151.109 33.9607L152.879 33.0293C152.233 31.8015 151.894 30.3528 151.894 28.655H149.894ZM151.124 33.9886C151.97 35.4782 153.075 36.6545 154.446 37.4852L155.482 35.7748C154.433 35.1389 153.558 34.2251 152.864 33.0014L151.124 33.9886ZM154.457 37.4919C155.851 38.3121 157.345 38.73 158.924 38.73V36.73C157.716 36.73 156.57 36.4146 155.471 35.7681L154.457 37.4919ZM158.924 38.73C160.524 38.73 162.031 38.338 163.427 37.5579L162.451 35.8121C161.354 36.4253 160.183 36.73 158.924 36.73V38.73ZM163.446 37.5469C164.853 36.7191 165.967 35.5594 166.783 34.0906L165.035 33.1194C164.384 34.2906 163.518 35.1842 162.432 35.8231L163.446 37.5469ZM166.789 34.0805C167.616 32.5498 168.009 30.766 168.009 28.765H166.009C166.009 30.504 165.668 31.9469 165.029 33.1295L166.789 34.0805ZM189.984 17.985H188.984V21.2539L190.813 18.5445L189.984 17.985ZM194.054 14.41L193.592 13.5231L193.585 13.5271L194.054 14.41ZM207.089 14.96L206.566 15.8122L206.573 15.8162L207.089 14.96ZM212.094 20.46L211.203 20.9127L211.207 20.921L211.211 20.9292L212.094 20.46ZM212.094 36.96L211.205 36.502L211.203 36.5073L212.094 36.96ZM207.089 42.515L206.562 41.6653L206.555 41.6695L207.089 42.515ZM194.054 43.175L193.577 44.0536L193.588 44.0598L193.599 44.0656L194.054 43.175ZM189.984 39.655L190.797 39.0718L188.984 36.5475V39.655H189.984ZM189.984 44V45H190.984V44H189.984ZM182.284 44H181.284V45H182.284V44ZM182.284 3.3V2.3H181.284V3.3H182.284ZM189.984 3.3H190.984V2.3H189.984V3.3ZM204.944 23.925L204.065 24.4005L204.072 24.4148L204.08 24.4289L204.944 23.925ZM201.974 20.845L201.475 21.7117L201.486 21.7179L201.974 20.845ZM194.054 20.9L194.553 21.7667L194.561 21.7619L194.054 20.9ZM191.084 23.98L190.215 23.4864L190.209 23.4954L190.205 23.5045L191.084 23.98ZM191.084 33.55L190.205 34.0255L190.209 34.0346L190.215 34.0436L191.084 33.55ZM194.054 36.685L193.536 37.5402L193.551 37.5493L193.566 37.5579L194.054 36.685ZM201.974 36.63L201.467 35.768L201.456 35.7748L201.974 36.63ZM204.944 33.495L204.075 33.0014L204.069 33.0104L204.065 33.0195L204.944 33.495ZM190.813 18.5445C191.702 17.2269 192.93 16.1408 194.524 15.2929L193.585 13.5271C191.732 14.5125 190.246 15.8097 189.155 17.4255L190.813 18.5445ZM194.516 15.2969C196.116 14.4635 197.953 14.035 200.049 14.035V12.035C197.672 12.035 195.512 12.5231 193.592 13.5231L194.516 15.2969ZM200.049 14.035C202.48 14.035 204.643 14.6315 206.566 15.8122L207.613 14.1078C205.355 12.7218 202.825 12.035 200.049 12.035V14.035ZM206.573 15.8162C208.527 16.9954 210.071 18.6831 211.203 20.9127L212.986 20.0073C211.698 17.4702 209.905 15.4913 207.606 14.1038L206.573 15.8162ZM211.211 20.9292C212.369 23.1083 212.964 25.6736 212.964 28.655H214.964C214.964 25.4031 214.313 22.5051 212.977 19.9908L211.211 20.9292ZM212.964 28.655C212.964 31.6356 212.369 34.243 211.205 36.502L212.983 37.418C214.313 34.837 214.964 31.9078 214.964 28.655H212.964ZM211.203 36.5073C210.07 38.739 208.522 40.4484 206.562 41.6654L207.617 43.3646C209.909 41.9416 211.699 39.9477 212.986 37.4127L211.203 36.5073ZM206.555 41.6695C204.634 42.8831 202.474 43.495 200.049 43.495V45.495C202.831 45.495 205.365 44.7869 207.623 43.3605L206.555 41.6695ZM200.049 43.495C197.906 43.495 196.069 43.0809 194.509 42.2844L193.599 44.0656C195.486 45.0291 197.645 45.495 200.049 45.495V43.495ZM194.532 42.2964C192.965 41.4451 191.728 40.3686 190.797 39.0718L189.172 40.2382C190.294 41.8014 191.77 43.0716 193.577 44.0536L194.532 42.2964ZM188.984 39.655V44H190.984V39.655H188.984ZM189.984 43H182.284V45H189.984V43ZM183.284 44V3.3H181.284V44H183.284ZM182.284 4.3H189.984V2.3H182.284V4.3ZM188.984 3.3V17.985H190.984V3.3H188.984ZM207.099 28.655C207.099 26.68 206.684 24.922 205.808 23.4211L204.08 24.4289C204.745 25.568 205.099 26.9633 205.099 28.655H207.099ZM205.824 23.4495C205.008 21.9397 203.888 20.7687 202.462 19.9721L201.486 21.7179C202.554 22.3146 203.414 23.1969 204.065 24.4005L205.824 23.4495ZM202.473 19.9784C201.108 19.1921 199.615 18.8 198.014 18.8V20.8C199.274 20.8 200.421 21.1045 201.475 21.7116L202.473 19.9784ZM198.014 18.8C196.436 18.8 194.941 19.2179 193.547 20.0381L194.561 21.7619C195.66 21.1154 196.806 20.8 198.014 20.8V18.8ZM193.555 20.0334C192.173 20.8292 191.062 21.9932 190.215 23.4864L191.954 24.4736C192.646 23.2535 193.515 22.3641 194.553 21.7666L193.555 20.0334ZM190.205 23.5045C189.379 25.0325 188.984 26.7969 188.984 28.765H190.984C190.984 27.0664 191.323 25.6409 191.964 24.4555L190.205 23.5045ZM188.984 28.765C188.984 30.7331 189.379 32.4975 190.205 34.0255L191.964 33.0745C191.323 31.8891 190.984 30.4636 190.984 28.765H188.984ZM190.215 34.0436C191.06 35.5332 192.165 36.7095 193.536 37.5402L194.573 35.8298C193.523 35.1939 192.648 34.2801 191.954 33.0564L190.215 34.0436ZM193.566 37.5579C194.958 38.3358 196.446 38.73 198.014 38.73V36.73C196.796 36.73 195.644 36.4276 194.542 35.8121L193.566 37.5579ZM198.014 38.73C199.625 38.73 201.125 38.3143 202.493 37.4852L201.456 35.7748C200.404 36.4123 199.264 36.73 198.014 36.73V38.73ZM202.481 37.4919C203.896 36.66 205.01 35.4765 205.824 33.9705L204.065 33.0195C203.412 34.2268 202.546 35.1333 201.467 35.7681L202.481 37.4919ZM205.814 33.9886C206.685 32.4541 207.099 30.6637 207.099 28.655H205.099C205.099 30.3863 204.744 31.8225 204.075 33.0014L205.814 33.9886ZM220.055 8.635L219.348 9.34211L219.362 9.35683L219.378 9.37093L220.055 8.635ZM220.055 2.2L220.747 2.92199L220.747 2.92138L220.055 2.2ZM226.82 2.2L226.113 2.9071L226.127 2.92183L226.143 2.93593L226.82 2.2ZM226.82 8.635L227.512 9.35699L227.512 9.35639L226.82 8.635ZM227.26 13.53H228.26V12.53H227.26V13.53ZM227.26 44V45H228.26V44H227.26ZM219.56 44H218.56V45H219.56V44ZM219.56 13.53V12.53H218.56V13.53H219.56ZM223.465 8.9C222.334 8.9 221.447 8.5568 220.732 7.89907L219.378 9.37093C220.496 10.3999 221.882 10.9 223.465 10.9V8.9ZM220.762 7.92789C220.076 7.24187 219.735 6.41737 219.735 5.39H217.735C217.735 6.9293 218.274 8.26813 219.348 9.34211L220.762 7.92789ZM219.735 5.39C219.735 4.36312 220.075 3.56582 220.747 2.92199L219.363 1.47801C218.275 2.52084 217.735 3.85021 217.735 5.39H219.735ZM220.747 2.92138C221.464 2.23305 222.347 1.88 223.465 1.88V-0.120003C221.869 -0.120003 220.478 0.406944 219.362 1.47861L220.747 2.92138ZM223.465 1.88C224.582 1.88 225.438 2.23247 226.113 2.9071L227.527 1.49289C226.441 0.407524 225.06 -0.120003 223.465 -0.120003V1.88ZM226.143 2.93593C226.846 3.5835 227.195 4.37673 227.195 5.39H229.195C229.195 3.8366 228.626 2.50317 227.497 1.46407L226.143 2.93593ZM227.195 5.39C227.195 6.4041 226.845 7.22429 226.127 7.91361L227.512 9.35639C228.627 8.2857 229.195 6.94256 229.195 5.39H227.195ZM226.128 7.91301C225.456 8.55714 224.595 8.9 223.465 8.9V10.9C225.047 10.9 226.424 10.3995 227.512 9.35699L226.128 7.91301ZM226.26 13.53V44H228.26V13.53H226.26ZM227.26 43H219.56V45H227.26V43ZM220.56 44V13.53H218.56V44H220.56ZM219.56 14.53H227.26V12.53H219.56V14.53ZM242.567 3.3H243.567V2.3H242.567V3.3ZM242.567 44V45H243.567V44H242.567ZM234.867 44H233.867V45H234.867V44ZM234.867 3.3V2.3H233.867V3.3H234.867ZM241.567 3.3V44H243.567V3.3H241.567ZM242.567 43H234.867V45H242.567V43ZM235.867 44V3.3H233.867V44H235.867ZM234.867 4.3H242.567V2.3H234.867V4.3ZM250.67 8.635L249.963 9.34211L249.977 9.35683L249.993 9.37093L250.67 8.635ZM250.67 2.2L251.362 2.92199L251.362 2.92138L250.67 2.2ZM257.435 2.2L256.728 2.9071L256.742 2.92183L256.758 2.93593L257.435 2.2ZM257.435 8.635L258.127 9.35699L258.127 9.35639L257.435 8.635ZM257.875 13.53H258.875V12.53H257.875V13.53ZM257.875 44V45H258.875V44H257.875ZM250.175 44H249.175V45H250.175V44ZM250.175 13.53V12.53H249.175V13.53H250.175ZM254.08 8.9C252.95 8.9 252.062 8.5568 251.347 7.89907L249.993 9.37093C251.111 10.3999 252.497 10.9 254.08 10.9V8.9ZM251.377 7.92789C250.691 7.24187 250.35 6.41737 250.35 5.39H248.35C248.35 6.9293 248.889 8.26813 249.963 9.34211L251.377 7.92789ZM250.35 5.39C250.35 4.36312 250.69 3.56582 251.362 2.92199L249.978 1.47801C248.89 2.52084 248.35 3.85021 248.35 5.39H250.35ZM251.362 2.92138C252.079 2.23305 252.962 1.88 254.08 1.88V-0.120003C252.484 -0.120003 251.094 0.406944 249.977 1.47861L251.362 2.92138ZM254.08 1.88C255.198 1.88 256.053 2.23247 256.728 2.9071L258.142 1.49289C257.057 0.407524 255.675 -0.120003 254.08 -0.120003V1.88ZM256.758 2.93593C257.462 3.5835 257.81 4.37673 257.81 5.39H259.81C259.81 3.8366 259.241 2.50317 258.112 1.46407L256.758 2.93593ZM257.81 5.39C257.81 6.4041 257.46 7.22429 256.742 7.91361L258.127 9.35639C259.243 8.2857 259.81 6.94256 259.81 5.39H257.81ZM256.743 7.91301C256.071 8.55714 255.21 8.9 254.08 8.9V10.9C255.663 10.9 257.039 10.3995 258.127 9.35699L256.743 7.91301ZM256.875 13.53V44H258.875V13.53H256.875ZM257.875 43H250.175V45H257.875V43ZM251.175 44V13.53H249.175V44H251.175ZM250.175 14.53H257.875V12.53H250.175V14.53ZM265.318 20.46L264.431 19.9965L264.426 20.0073L265.318 20.46ZM270.378 14.96L270.894 15.8162L270.378 14.96ZM283.138 14.355L282.698 15.2531L282.705 15.2567L282.713 15.2602L283.138 14.355ZM287.427 17.765L286.625 18.3617L288.427 20.7857V17.765H287.427ZM287.427 3.3V2.3H286.427V3.3H287.427ZM295.237 3.3H296.237V2.3H295.237V3.3ZM295.237 44V45H296.237V44H295.237ZM287.427 44H286.427V45H287.427V44ZM287.427 39.49H288.427V36.0458L286.583 38.9545L287.427 39.49ZM283.413 43.12L282.943 42.2371L283.413 43.12ZM270.378 42.515L270.905 41.6654L270.378 42.515ZM265.318 36.96L264.423 37.4072L264.427 37.4154L264.431 37.4235L265.318 36.96ZM286.383 23.98L285.503 24.4555L285.508 24.4656L286.383 23.98ZM283.413 20.9L282.905 21.7619L282.915 21.7675L282.925 21.7729L283.413 20.9ZM275.438 20.845L274.939 19.9784L275.438 20.845ZM272.467 23.925L271.598 23.4314L271.593 23.4394L272.467 23.925ZM272.467 33.495L271.583 33.9607L271.59 33.9748L271.598 33.9886L272.467 33.495ZM275.438 36.63L274.919 37.4853L274.93 37.4919L275.438 36.63ZM283.413 36.685L283.9 37.5579L283.91 37.5525L283.92 37.5469L283.413 36.685ZM286.383 33.605L287.257 34.0907L287.262 34.0805L286.383 33.605ZM264.503 28.655C264.503 25.7083 265.081 23.1358 266.209 20.9127L264.426 20.0073C263.134 22.5509 262.503 25.4417 262.503 28.655H264.503ZM266.204 20.9235C267.373 18.6885 268.937 16.9971 270.894 15.8162L269.861 14.1038C267.564 15.4896 265.756 17.4649 264.431 19.9965L266.204 20.9235ZM270.894 15.8162C272.857 14.6316 275.042 14.035 277.473 14.035V12.035C274.696 12.035 272.151 12.7218 269.861 14.1038L270.894 15.8162ZM277.473 14.035C279.298 14.035 281.036 14.4394 282.698 15.2531L283.577 13.4569C281.645 12.5106 279.607 12.035 277.473 12.035V14.035ZM282.713 15.2602C284.377 16.0416 285.671 17.0786 286.625 18.3617L288.23 17.1683C287.057 15.5914 285.491 14.3551 283.562 13.4498L282.713 15.2602ZM288.427 17.765V3.3H286.427V17.765H288.427ZM287.427 4.3H295.237V2.3H287.427V4.3ZM294.237 3.3V44H296.237V3.3H294.237ZM295.237 43H287.427V45H295.237V43ZM288.427 44V39.49H286.427V44H288.427ZM286.583 38.9545C285.731 40.2976 284.528 41.3937 282.943 42.2371L283.882 44.0029C285.743 43.0129 287.217 41.689 288.272 40.0255L286.583 38.9545ZM282.943 42.2371C281.386 43.0651 279.554 43.495 277.418 43.495V45.495C279.828 45.495 281.992 45.0082 283.882 44.0029L282.943 42.2371ZM277.418 43.495C275.032 43.495 272.869 42.8845 270.905 41.6654L269.85 43.3646C272.139 44.7855 274.669 45.495 277.418 45.495V43.495ZM270.905 41.6654C268.941 40.4467 267.374 38.7336 266.204 36.4965L264.431 37.4235C265.755 39.9531 267.56 41.9433 269.85 43.3646L270.905 41.6654ZM266.212 36.5128C265.081 34.2513 264.503 31.6401 264.503 28.655H262.503C262.503 31.9033 263.134 34.8287 264.423 37.4072L266.212 36.5128ZM288.483 28.765C288.483 26.7651 288.09 24.9944 287.257 23.4944L285.508 24.4656C286.142 25.6056 286.483 27.0249 286.483 28.765H288.483ZM287.262 23.5045C286.446 21.9947 285.326 20.8237 283.9 20.0271L282.925 21.7729C283.992 22.3696 284.852 23.2519 285.503 24.4555L287.262 23.5045ZM283.92 20.0381C282.521 19.2154 281.008 18.8 279.397 18.8V20.8C280.647 20.8 281.811 21.1179 282.905 21.7619L283.92 20.0381ZM279.397 18.8C277.797 18.8 276.304 19.1921 274.939 19.9784L275.936 21.7116C276.991 21.1045 278.138 20.8 279.397 20.8V18.8ZM274.939 19.9784C273.556 20.7742 272.445 21.9382 271.598 23.4314L273.337 24.4186C274.03 23.1985 274.899 22.3091 275.936 21.7116L274.939 19.9784ZM271.593 23.4394C270.762 24.9366 270.367 26.6879 270.367 28.655H272.367C272.367 26.9554 272.707 25.5534 273.342 24.4106L271.593 23.4394ZM270.367 28.655C270.367 30.6239 270.762 32.4019 271.583 33.9607L273.352 33.0293C272.706 31.8015 272.367 30.3528 272.367 28.655H270.367ZM271.598 33.9886C272.443 35.4782 273.548 36.6545 274.919 37.4852L275.956 35.7748C274.906 35.1389 274.032 34.2251 273.337 33.0014L271.598 33.9886ZM274.93 37.4919C276.325 38.3121 277.819 38.73 279.397 38.73V36.73C278.189 36.73 277.044 36.4146 275.945 35.7681L274.93 37.4919ZM279.397 38.73C280.998 38.73 282.504 38.338 283.9 37.5579L282.925 35.8121C281.827 36.4253 280.657 36.73 279.397 36.73V38.73ZM283.92 37.5469C285.327 36.7191 286.441 35.5594 287.257 34.0906L285.508 33.1194C284.858 34.2906 283.991 35.1842 282.905 35.8231L283.92 37.5469ZM287.262 34.0805C288.09 32.5498 288.483 30.766 288.483 28.765H286.483C286.483 30.504 286.142 31.9469 285.503 33.1295L287.262 34.0805ZM302.593 20.46L301.707 19.9965L301.701 20.0073L302.593 20.46ZM307.598 14.96L307.081 14.1038L307.075 14.1078L307.598 14.96ZM320.633 14.41L320.155 15.2887L320.163 15.2929L320.633 14.41ZM324.758 17.875L323.953 18.4682L325.758 20.9179V17.875H324.758ZM324.758 13.53V12.53H323.758V13.53H324.758ZM332.513 13.53H333.513V12.53H332.513V13.53ZM332.513 44V45H333.513V44H332.513ZM324.758 44H323.758V45H324.758V44ZM324.758 39.545H325.758V36.3437L323.936 38.9758L324.758 39.545ZM320.633 43.12L321.103 44.0029L321.109 43.9993L320.633 43.12ZM307.598 42.515L307.064 43.3605L307.071 43.3646L307.598 42.515ZM302.593 36.96L301.698 37.4072L301.703 37.4154L301.707 37.4235L302.593 36.96ZM323.658 23.98L322.778 24.4555L322.784 24.4656L323.658 23.98ZM320.688 20.9L320.181 21.7619L320.19 21.7675L320.2 21.7729L320.688 20.9ZM312.713 20.845L312.214 19.9784L312.713 20.845ZM309.743 23.925L308.873 23.4314L308.869 23.4394L309.743 23.925ZM309.743 33.495L308.858 33.9607L308.865 33.9748L308.873 33.9886L309.743 33.495ZM312.713 36.63L312.195 37.4853L312.206 37.4919L312.713 36.63ZM320.688 36.685L321.176 37.5579L321.185 37.5525L321.195 37.5469L320.688 36.685ZM323.658 33.605L324.532 34.0907L324.538 34.0805L323.658 33.605ZM301.778 28.655C301.778 25.7083 302.356 23.1358 303.485 20.9127L301.701 20.0073C300.41 22.5509 299.778 25.4417 299.778 28.655H301.778ZM303.479 20.9235C304.65 18.6841 306.2 16.9921 308.121 15.8122L307.075 14.1078C304.816 15.4946 303.029 17.4692 301.707 19.9965L303.479 20.9235ZM308.115 15.8162C310.078 14.6316 312.263 14.035 314.693 14.035V12.035C311.917 12.035 309.371 12.7218 307.081 14.1038L308.115 15.8162ZM314.693 14.035C316.83 14.035 318.64 14.4651 320.155 15.2886L321.11 13.5314C319.252 12.5216 317.102 12.035 314.693 12.035V14.035ZM320.163 15.2929C321.772 16.1483 323.026 17.2099 323.953 18.4682L325.563 17.2818C324.437 15.7535 322.941 14.505 321.103 13.5271L320.163 15.2929ZM325.758 17.875V13.53H323.758V17.875H325.758ZM324.758 14.53H332.513V12.53H324.758V14.53ZM331.513 13.53V44H333.513V13.53H331.513ZM332.513 43H324.758V45H332.513V43ZM325.758 44V39.545H323.758V44H325.758ZM323.936 38.9758C323.048 40.2585 321.799 41.3508 320.157 42.2407L321.109 43.9993C322.986 42.9825 324.488 41.6915 325.58 40.1142L323.936 38.9758ZM320.163 42.2371C318.607 43.0651 316.775 43.495 314.638 43.495V45.495C317.048 45.495 319.212 45.0082 321.103 44.0029L320.163 42.2371ZM314.638 43.495C312.253 43.495 310.089 42.8845 308.125 41.6654L307.071 43.3646C309.36 44.7855 311.89 45.495 314.638 45.495V43.495ZM308.132 41.6695C306.204 40.4518 304.651 38.7379 303.479 36.4965L301.707 37.4235C303.028 39.9488 304.812 41.9382 307.064 43.3605L308.132 41.6695ZM303.487 36.5128C302.357 34.2513 301.778 31.6401 301.778 28.655H299.778C299.778 31.9033 300.409 34.8287 301.698 37.4072L303.487 36.5128ZM325.758 28.765C325.758 26.7651 325.365 24.9944 324.532 23.4944L322.784 24.4656C323.417 25.6056 323.758 27.0249 323.758 28.765H325.758ZM324.538 23.5045C323.722 21.9947 322.601 20.8237 321.176 20.0271L320.2 21.7729C321.268 22.3696 322.128 23.2519 322.778 24.4555L324.538 23.5045ZM321.195 20.0381C319.796 19.2154 318.283 18.8 316.673 18.8V20.8C317.922 20.8 319.086 21.1179 320.181 21.7619L321.195 20.0381ZM316.673 18.8C315.072 18.8 313.579 19.1921 312.214 19.9784L313.212 21.7116C314.266 21.1045 315.414 20.8 316.673 20.8V18.8ZM312.214 19.9784C310.832 20.7742 309.721 21.9382 308.873 23.4314L310.613 24.4186C311.305 23.1985 312.174 22.3091 313.212 21.7116L312.214 19.9784ZM308.869 23.4394C308.037 24.9366 307.643 26.6879 307.643 28.655H309.643C309.643 26.9554 309.982 25.5534 310.617 24.4106L308.869 23.4394ZM307.643 28.655C307.643 30.6239 308.038 32.4019 308.858 33.9607L310.628 33.0293C309.982 31.8015 309.643 30.3528 309.643 28.655H307.643ZM308.873 33.9886C309.719 35.4782 310.824 36.6545 312.195 37.4852L313.231 35.7748C312.182 35.1389 311.307 34.2251 310.613 33.0014L308.873 33.9886ZM312.206 37.4919C313.6 38.3121 315.094 38.73 316.673 38.73V36.73C315.465 36.73 314.319 36.4146 313.22 35.7681L312.206 37.4919ZM316.673 38.73C318.273 38.73 319.78 38.338 321.176 37.5579L320.2 35.8121C319.103 36.4253 317.932 36.73 316.673 36.73V38.73ZM321.195 37.5469C322.602 36.7191 323.716 35.5594 324.532 34.0906L322.784 33.1194C322.133 34.2906 321.267 35.1842 320.181 35.8231L321.195 37.5469ZM324.538 34.0805C325.365 32.5498 325.758 30.766 325.758 28.765H323.758C323.758 30.504 323.417 31.9469 322.778 33.1295L324.538 34.0805ZM339.868 20.46L338.982 19.9965L338.977 20.0073L339.868 20.46ZM344.928 14.96L345.445 15.8162L344.928 14.96ZM357.688 14.355L357.248 15.2531L357.256 15.2567L357.263 15.2602L357.688 14.355ZM361.978 17.765L361.176 18.3617L362.978 20.7857V17.765H361.978ZM361.978 3.3V2.3H360.978V3.3H361.978ZM369.788 3.3H370.788V2.3H369.788V3.3ZM369.788 44V45H370.788V44H369.788ZM361.978 44H360.978V45H361.978V44ZM361.978 39.49H362.978V36.0458L361.134 38.9545L361.978 39.49ZM357.963 43.12L357.494 42.2371L357.963 43.12ZM344.928 42.515L345.456 41.6654L344.928 42.515ZM339.868 36.96L338.974 37.4072L338.978 37.4154L338.982 37.4235L339.868 36.96ZM360.933 23.98L360.054 24.4555L360.059 24.4656L360.933 23.98ZM357.963 20.9L357.456 21.7619L357.466 21.7675L357.475 21.7729L357.963 20.9ZM349.988 20.845L349.489 19.9784L349.988 20.845ZM347.018 23.925L346.149 23.4314L346.144 23.4394L347.018 23.925ZM347.018 33.495L346.133 33.9607L346.141 33.9748L346.149 33.9886L347.018 33.495ZM349.988 36.63L349.47 37.4853L349.481 37.4919L349.988 36.63ZM357.963 36.685L358.451 37.5579L358.461 37.5525L358.47 37.5469L357.963 36.685ZM360.933 33.605L361.807 34.0907L361.813 34.0805L360.933 33.605ZM339.053 28.655C339.053 25.7083 339.631 23.1358 340.76 20.9127L338.977 20.0073C337.685 22.5509 337.053 25.4417 337.053 28.655H339.053ZM340.754 20.9235C341.923 18.6885 343.488 16.9971 345.445 15.8162L344.412 14.1038C342.115 15.4896 340.306 17.4649 338.982 19.9965L340.754 20.9235ZM345.445 15.8162C347.408 14.6316 349.593 14.035 352.023 14.035V12.035C349.247 12.035 346.702 12.7218 344.412 14.1038L345.445 15.8162ZM352.023 14.035C353.849 14.035 355.587 14.4394 357.248 15.2531L358.128 13.4569C356.196 12.5106 354.157 12.035 352.023 12.035V14.035ZM357.263 15.2602C358.928 16.0416 360.222 17.0786 361.176 18.3617L362.781 17.1683C361.608 15.5914 360.042 14.3551 358.113 13.4498L357.263 15.2602ZM362.978 17.765V3.3H360.978V17.765H362.978ZM361.978 4.3H369.788V2.3H361.978V4.3ZM368.788 3.3V44H370.788V3.3H368.788ZM369.788 43H361.978V45H369.788V43ZM362.978 44V39.49H360.978V44H362.978ZM361.134 38.9545C360.282 40.2976 359.079 41.3937 357.494 42.2371L358.433 44.0029C360.294 43.0129 361.768 41.689 362.823 40.0255L361.134 38.9545ZM357.494 42.2371C355.937 43.0651 354.105 43.495 351.968 43.495V45.495C354.378 45.495 356.543 45.0082 358.433 44.0029L357.494 42.2371ZM351.968 43.495C349.583 43.495 347.42 42.8845 345.456 41.6654L344.401 43.3646C346.69 44.7855 349.22 45.495 351.968 45.495V43.495ZM345.456 41.6654C343.492 40.4467 341.925 38.7336 340.754 36.4965L338.982 37.4235C340.305 39.9531 342.111 41.9433 344.401 43.3646L345.456 41.6654ZM340.763 36.5128C339.632 34.2513 339.053 31.6401 339.053 28.655H337.053C337.053 31.9033 337.685 34.8287 338.974 37.4072L340.763 36.5128ZM363.033 28.765C363.033 26.7651 362.641 24.9944 361.807 23.4944L360.059 24.4656C360.692 25.6056 361.033 27.0249 361.033 28.765H363.033ZM361.813 23.5045C360.997 21.9947 359.877 20.8237 358.451 20.0271L357.475 21.7729C358.543 22.3696 359.403 23.2519 360.054 24.4555L361.813 23.5045ZM358.47 20.0381C357.072 19.2154 355.559 18.8 353.948 18.8V20.8C355.198 20.8 356.361 21.1179 357.456 21.7619L358.47 20.0381ZM353.948 18.8C352.348 18.8 350.855 19.1921 349.489 19.9784L350.487 21.7116C351.542 21.1045 352.689 20.8 353.948 20.8V18.8ZM349.489 19.9784C348.107 20.7742 346.996 21.9382 346.149 23.4314L347.888 24.4186C348.58 23.1985 349.449 22.3091 350.487 21.7116L349.489 19.9784ZM346.144 23.4394C345.312 24.9366 344.918 26.6879 344.918 28.655H346.918C346.918 26.9554 347.258 25.5534 347.892 24.4106L346.144 23.4394ZM344.918 28.655C344.918 30.6239 345.313 32.4019 346.133 33.9607L347.903 33.0293C347.257 31.8015 346.918 30.3528 346.918 28.655H344.918ZM346.149 33.9886C346.994 35.4782 348.099 36.6545 349.47 37.4852L350.507 35.7748C349.457 35.1389 348.582 34.2251 347.888 33.0014L346.149 33.9886ZM349.481 37.4919C350.875 38.3121 352.37 38.73 353.948 38.73V36.73C352.74 36.73 351.594 36.4146 350.495 35.7681L349.481 37.4919ZM353.948 38.73C355.549 38.73 357.055 38.338 358.451 37.5579L357.475 35.8121C356.378 36.4253 355.208 36.73 353.948 36.73V38.73ZM358.47 37.5469C359.878 36.7191 360.991 35.5594 361.807 34.0906L360.059 33.1194C359.408 34.2906 358.542 35.1842 357.456 35.8231L358.47 37.5469ZM361.813 34.0805C362.64 32.5498 363.033 30.766 363.033 28.765H361.033C361.033 30.504 360.693 31.9469 360.054 33.1295L361.813 34.0805ZM405.414 31.075V32.075H406.261L406.4 31.2394L405.414 31.075ZM383.139 31.075V30.075H382.052L382.142 31.158L383.139 31.075ZM385.449 36.245L384.772 36.9813L385.449 36.245ZM396.559 34.43V33.43H395.936L395.662 33.9881L396.559 34.43ZM404.864 34.43L405.822 34.7173L406.208 33.43H404.864V34.43ZM399.804 41.69L400.404 42.49L400.411 42.4844L399.804 41.69ZM382.699 42.57L382.203 43.4382L382.211 43.4429L382.219 43.4474L382.699 42.57ZM377.254 37.015L376.373 37.4891L376.379 37.4995L377.254 37.015ZM377.254 20.46L376.373 19.9859L377.254 20.46ZM382.644 14.96L383.129 15.8342L382.644 14.96ZM398.374 14.905L397.893 15.7818L397.899 15.785L398.374 14.905ZM403.709 20.24L402.829 20.7149L402.833 20.7233L402.838 20.7316L403.709 20.24ZM397.659 25.905V26.905H398.677L398.659 25.8865L397.659 25.905ZM395.514 21.175L394.858 21.93L394.864 21.935L394.87 21.9399L395.514 21.175ZM385.559 21.12L386.222 21.8686L386.223 21.8674L385.559 21.12ZM383.194 25.905L382.204 25.7636L382.041 26.905H383.194V25.905ZM404.634 28.105C404.634 29.1621 404.563 30.0957 404.427 30.9106L406.4 31.2394C406.558 30.2943 406.634 29.2479 406.634 28.105H404.634ZM405.414 30.075H383.139V32.075H405.414V30.075ZM382.142 31.158C382.342 33.5558 383.195 35.5322 384.772 36.9813L386.125 35.5087C384.989 34.4644 384.302 32.9942 384.135 30.992L382.142 31.158ZM384.772 36.9813C386.328 38.4109 388.243 39.115 390.454 39.115V37.115C388.704 37.115 387.283 36.5724 386.125 35.5087L384.772 36.9813ZM390.454 39.115C392.029 39.115 393.439 38.7757 394.642 38.0499C395.847 37.3225 396.779 36.2451 397.456 34.8718L395.662 33.9881C395.128 35.0716 394.438 35.8367 393.608 36.3376C392.776 36.8401 391.739 37.115 390.454 37.115V39.115ZM396.559 35.43H404.864V33.43H396.559V35.43ZM403.906 34.1427C403.088 36.869 401.527 39.1135 399.196 40.8956L400.411 42.4844C403.067 40.4532 404.879 37.8577 405.822 34.7173L403.906 34.1427ZM399.204 40.89C396.911 42.6096 394.069 43.495 390.619 43.495V45.495C394.428 45.495 397.71 44.5104 400.404 42.49L399.204 40.89ZM390.619 43.495C387.836 43.495 385.364 42.8879 383.178 41.6926L382.219 43.4474C384.727 44.8188 387.534 45.495 390.619 45.495V43.495ZM383.195 41.7018C381.048 40.4749 379.362 38.7577 378.128 36.5305L376.379 37.4995C377.785 40.039 379.73 42.0251 382.203 43.4382L383.195 41.7018ZM378.134 36.5409C376.94 34.324 376.329 31.7414 376.329 28.765H374.329C374.329 32.0219 375 34.9393 376.373 37.4891L378.134 36.5409ZM376.329 28.765C376.329 25.7497 376.941 23.1494 378.134 20.9341L376.373 19.9859C374.999 22.5373 374.329 25.4736 374.329 28.765H376.329ZM378.134 20.9341C379.329 18.7148 380.991 17.0223 383.129 15.8342L382.158 14.0858C379.677 15.4644 377.745 17.4385 376.373 19.9859L378.134 20.9341ZM383.129 15.8342C385.271 14.6442 387.758 14.035 390.619 14.035V12.035C387.466 12.035 384.636 12.7092 382.158 14.0858L383.129 15.8342ZM390.619 14.035C393.367 14.035 395.784 14.6251 397.893 15.7818L398.854 14.0282C396.417 12.6916 393.663 12.035 390.619 12.035V14.035ZM397.899 15.785C400.037 16.9391 401.675 18.5766 402.829 20.7149L404.589 19.7651C403.249 17.2834 401.33 15.3643 398.849 14.025L397.899 15.785ZM402.838 20.7316C404.025 22.8353 404.634 25.2832 404.634 28.105H406.634C406.634 24.9868 405.959 22.1914 404.579 19.7484L402.838 20.7316ZM398.659 25.8865C398.617 23.6464 397.793 21.7868 396.158 20.4101L394.87 21.9399C396.021 22.9099 396.627 24.2036 396.659 25.9235L398.659 25.8865ZM396.169 20.42C394.577 19.0369 392.632 18.36 390.399 18.36V20.36C392.199 20.36 393.664 20.8931 394.858 21.93L396.169 20.42ZM390.399 18.36C388.268 18.36 386.413 19.023 384.894 20.3726L386.223 21.8674C387.345 20.8703 388.716 20.36 390.399 20.36V18.36ZM384.896 20.3714C383.399 21.6966 382.523 23.5269 382.204 25.7636L384.184 26.0464C384.451 24.1765 385.151 22.8167 386.222 21.8686L384.896 20.3714ZM383.194 26.905H397.659V24.905H383.194V26.905ZM416.204 43.175L415.784 44.0825L415.791 44.0857L415.798 44.0888L416.204 43.175ZM411.474 39.49L410.669 40.0839L410.674 40.09L410.679 40.096L411.474 39.49ZM409.604 34.375V33.375H408.543L408.606 34.4337L409.604 34.375ZM417.359 34.375L418.351 34.251L418.242 33.375H417.359V34.375ZM419.064 37.29L418.45 38.0794L418.457 38.0847L418.464 38.09L419.064 37.29ZM426.269 37.565L425.698 36.7441L425.689 36.7501L425.681 36.7563L426.269 37.565ZM425.994 33.11L425.534 33.9978L425.553 34.0078L425.573 34.017L425.994 33.11ZM421.209 31.46L421.467 30.4938L421.455 30.4908L421.444 30.488L421.209 31.46ZM415.599 29.755L415.219 30.6802L415.228 30.6835L415.599 29.755ZM411.859 27.06L411.096 27.707L411.102 27.7136L411.108 27.7201L411.859 27.06ZM411.749 17.545L410.934 16.9658L410.929 16.973L410.924 16.9803L411.749 17.545ZM415.929 14.245L415.526 13.3297L415.519 13.3327L415.929 14.245ZM431.054 15.785L430.407 16.5479L430.415 16.5543L431.054 15.785ZM434.629 23.1V24.1H435.703L435.626 23.0288L434.629 23.1ZM427.259 23.1L426.263 23.1905L426.346 24.1H427.259V23.1ZM425.719 20.24L425.079 21.0082L425.096 21.0226L425.114 21.0362L425.719 20.24ZM418.899 19.91L418.344 19.0779L418.335 19.0843L418.326 19.0908L418.899 19.91ZM419.339 24.42L418.867 25.3015L418.879 25.3081L418.892 25.3144L419.339 24.42ZM424.124 26.015L423.878 26.9842L423.881 26.9851L424.124 26.015ZM433.254 30.47L432.482 31.1057L432.492 31.1181L432.503 31.1301L433.254 30.47ZM434.904 35.31H435.904V35.3009L435.904 35.2918L434.904 35.31ZM433.419 40.04L432.604 39.4608L432.599 39.468L432.594 39.4753L433.419 40.04ZM429.239 43.34L429.633 44.2592L429.642 44.2553L429.239 43.34ZM422.914 43.495C420.54 43.495 418.444 43.0764 416.61 42.2612L415.798 44.0888C417.924 45.0336 420.302 45.495 422.914 45.495V43.495ZM416.624 42.2675C414.773 41.4105 413.332 40.2787 412.269 38.884L410.679 40.096C411.963 41.7813 413.675 43.1062 415.784 44.0825L416.624 42.2675ZM412.279 38.8961C411.254 37.5084 410.701 35.9885 410.602 34.3163L408.606 34.4337C408.727 36.5015 409.42 38.3916 410.669 40.0839L412.279 38.8961ZM409.604 35.375H417.359V33.375H409.604V35.375ZM416.367 34.499C416.548 35.9527 417.265 37.1575 418.45 38.0794L419.678 36.5006C418.883 35.8825 418.463 35.1439 418.351 34.251L416.367 34.499ZM418.464 38.09C419.692 39.0111 421.178 39.445 422.859 39.445V37.445C421.534 37.445 420.489 37.1089 419.664 36.49L418.464 38.09ZM422.859 39.445C424.442 39.445 425.816 39.1308 426.857 38.3737L425.681 36.7563C425.108 37.1725 424.209 37.445 422.859 37.445V39.445ZM426.84 38.3859C427.914 37.6386 428.534 36.5975 428.534 35.31H426.534C426.534 35.8559 426.31 36.3181 425.698 36.7441L426.84 38.3859ZM428.534 35.31C428.534 34.6326 428.355 33.9965 427.968 33.444C427.587 32.8996 427.047 32.4962 426.415 32.203L425.573 34.017C425.968 34.2005 426.198 34.402 426.33 34.591C426.456 34.7718 426.534 34.9974 426.534 35.31H428.534ZM426.454 32.2222C425.363 31.6563 423.68 31.084 421.467 30.4938L420.951 32.4262C423.138 33.0093 424.645 33.537 425.534 33.9978L426.454 32.2222ZM421.444 30.488C419.197 29.9445 417.377 29.3892 415.97 28.8265L415.228 30.6835C416.754 31.2941 418.674 31.8755 420.974 32.432L421.444 30.488ZM415.979 28.8298C414.697 28.3042 413.576 27.4991 412.61 26.3999L411.108 27.7201C412.269 29.0409 413.641 30.0325 415.219 30.6802L415.979 28.8298ZM412.621 26.413C411.789 25.4314 411.319 24.0524 411.319 22.165H409.319C409.319 24.3843 409.876 26.2686 411.096 27.707L412.621 26.413ZM411.319 22.165C411.319 20.6801 411.735 19.3369 412.574 18.1097L410.924 16.9803C409.857 18.5398 409.319 20.2766 409.319 22.165H411.319ZM412.564 18.1242C413.436 16.8969 414.679 15.9023 416.339 15.1573L415.519 13.3327C413.585 14.2011 412.042 15.4064 410.934 16.9658L412.564 18.1242ZM416.332 15.1603C418.013 14.4206 420.015 14.035 422.364 14.035V12.035C419.799 12.035 417.512 12.456 415.526 13.3297L416.332 15.1603ZM422.364 14.035C425.825 14.035 428.471 14.9064 430.407 16.5479L431.701 15.0221C429.311 12.9969 426.163 12.035 422.364 12.035V14.035ZM430.415 16.5543C432.347 18.1588 433.429 20.3336 433.632 23.1712L435.626 23.0288C435.389 19.7064 434.088 17.0045 431.693 15.0157L430.415 16.5543ZM434.629 22.1H427.259V24.1H434.629V22.1ZM428.255 23.0095C428.121 21.5372 427.478 20.3207 426.324 19.4438L425.114 21.0362C425.793 21.5526 426.177 22.2428 426.263 23.1905L428.255 23.0095ZM426.359 19.4718C425.25 18.5473 423.807 18.14 422.144 18.14V20.14C423.487 20.14 424.428 20.466 425.079 21.0082L426.359 19.4718ZM422.144 18.14C420.647 18.14 419.342 18.4127 418.344 19.0779L419.454 20.7421C419.996 20.3806 420.855 20.14 422.144 20.14V18.14ZM418.326 19.0908C417.317 19.7965 416.799 20.8214 416.799 22.055H418.799C418.799 21.4553 419.014 21.0501 419.472 20.7292L418.326 19.0908ZM416.799 22.055C416.799 22.7436 416.974 23.3906 417.346 23.9619C417.714 24.5268 418.24 24.9657 418.867 25.3015L419.811 23.5385C419.411 23.3243 419.168 23.0941 419.022 22.8706C418.881 22.6535 418.799 22.393 418.799 22.055H416.799ZM418.892 25.3144C420.017 25.8772 421.697 26.4298 423.878 26.9842L424.37 25.0458C422.224 24.5002 420.714 23.9895 419.786 23.5256L418.892 25.3144ZM423.881 26.9851C426.054 27.5283 427.819 28.0831 429.189 28.6452L429.949 26.7948C428.459 26.1836 426.594 25.6017 424.367 25.0449L423.881 26.9851ZM429.189 28.6452C430.46 29.1664 431.555 29.9805 432.482 31.1057L434.026 29.8343C432.899 28.4662 431.538 27.447 429.949 26.7948L429.189 28.6452ZM432.503 31.1301C433.374 32.121 433.871 33.4867 433.904 35.3282L435.904 35.2918C435.864 33.1 435.261 31.239 434.005 29.8099L432.503 31.1301ZM433.904 35.31C433.904 36.869 433.47 38.242 432.604 39.4608L434.234 40.6192C435.348 39.0514 435.904 37.271 435.904 35.31H433.904ZM432.594 39.4753C431.764 40.688 430.531 41.679 428.836 42.4247L429.642 44.2553C431.614 43.3877 433.167 42.1787 434.244 40.6047L432.594 39.4753ZM428.845 42.4209C427.199 43.1264 425.23 43.495 422.914 43.495V45.495C425.438 45.495 427.686 45.0936 429.633 44.2591L428.845 42.4209Z" fill="url(#paint0_linear_561_568)" mask="url(#path-1-outside-1_561_568)"/>
<defs>
<linearGradient id="paint0_linear_561_568" x1="81.7604" y1="-18.7157" x2="95.6027" y2="100.494" gradientUnits="userSpaceOnUse">
<stop stop-color="#6167FF"/>
<stop offset="1" stop-color="#454DFF"/>
</linearGradient>
</defs>
</svg>
