<svg width="60" height="60" viewBox="0 0 60 60" fill="none" xmlns="http://www.w3.org/2000/svg">
<path d="M20.4634 42.9886H31.767C37.6351 42.9886 41.1612 40.0351 41.1612 35.1948C41.1612 31.6102 38.6858 28.9624 34.9678 28.5786V28.2533C37.6741 27.7979 39.7885 25.2281 39.7885 22.3461C39.7885 18.1174 36.682 15.4826 31.5198 15.4826H20.4634V42.9886ZM24.7344 27.1311V19.1063H30.5244C33.6894 19.1063 35.5403 20.5929 35.5403 23.1301C35.5403 25.7388 33.5756 27.1311 29.8023 27.1311H24.7344ZM24.7344 39.3682V30.5042H30.661C34.6815 30.5042 36.7991 32.0103 36.7991 34.8891C36.7991 37.8036 34.7596 39.3682 30.9082 39.3682H24.7344Z" fill="white"/>
<path d="M3.99805 16.9659C3.99805 13.5151 5.36888 10.2056 7.80898 7.76553C10.2491 5.32543 13.5586 3.95459 17.0094 3.95459L43.0321 3.95459C46.4829 3.95459 49.7924 5.32543 52.2325 7.76553C54.6726 10.2056 56.0435 13.5151 56.0435 16.9659V42.9886C56.0435 46.4395 54.6726 49.749 52.2325 52.1891C49.7924 54.6292 46.4829 56 43.0321 56H17.0094C13.5586 56 10.2491 54.6292 7.80898 52.1891C5.36888 49.749 3.99805 46.4395 3.99805 42.9886V16.9659ZM17.0094 7.20743C14.4213 7.20743 11.9392 8.23555 10.1091 10.0656C8.27901 11.8957 7.25089 14.3778 7.25089 16.9659V42.9886C7.25089 45.5768 8.27901 48.0589 10.1091 49.889C11.9392 51.719 14.4213 52.7472 17.0094 52.7472H43.0321C45.6202 52.7472 48.1023 51.719 49.9324 49.889C51.7625 48.0589 52.7906 45.5768 52.7906 42.9886V16.9659C52.7906 14.3778 51.7625 11.8957 49.9324 10.0656C48.1023 8.23555 45.6202 7.20743 43.0321 7.20743H17.0094Z" fill="white"/>
</svg>
