<svg width="40" height="40" viewBox="0 0 40 40" fill="none" xmlns="http://www.w3.org/2000/svg">
<path d="M33.2745 29.8578C34.2418 30.8261 34.2418 32.3324 33.2745 33.3007C32.7908 33.7848 32.1996 34 31.5547 34C30.9098 34 30.3186 33.7848 29.8349 33.3007L20 23.4563L10.1651 33.3007C9.68138 33.7848 9.09021 34 8.4453 34C7.80038 34 7.20921 33.7848 6.72553 33.3007C5.75816 32.3324 5.75816 30.8261 6.72553 29.8578L16.5605 20.0135L6.72553 10.1691C5.75816 9.20077 5.75816 7.69452 6.72553 6.72622C7.6929 5.75793 9.1977 5.75793 10.1651 6.72622L20 16.5706L29.8349 6.72622C30.8023 5.75793 32.3071 5.75793 33.2745 6.72622C34.2418 7.69452 34.2418 9.20077 33.2745 10.1691L23.4395 20.0135L33.2745 29.8578Z" fill="white"/>
</svg>
