<svg width="59" height="59" viewBox="0 0 59 59" fill="none" xmlns="http://www.w3.org/2000/svg">
<g clip-path="url(#clip0_589_7)">
<path d="M29.5 56.5417L10.2021 51.2563L6.14584 4.91667H52.8542L48.7979 51.2563L29.5 56.5417ZM14.75 47.4458L29.5 51.5021L44.25 47.4458L47.4458 9.83334H11.5542L14.75 47.4458Z" fill="white"/>
<path d="M17.2083 15.9792H41.7917L39.5792 42.1604L29.3771 45.4792L19.0521 42.8979L17.9458 34.0479H23.4771V38.4729L29.3771 39.5792L34.7854 38.4729V31.8354H17.9458L17.5771 26.3042C18.0823 25.8435 18.7373 25.5815 19.4208 25.5667C27.9021 25.5667 34.7854 26.3042 34.7854 26.3042V21.8792H17.9458L17.2083 15.9792Z" fill="white"/>
</g>
<defs>
<clipPath id="clip0_589_7">
<rect width="59" height="59" fill="white"/>
</clipPath>
</defs>
</svg>
