<svg width="31" height="38" viewBox="0 0 31 38" fill="none" xmlns="http://www.w3.org/2000/svg">
<path d="M23.136 19.5555C23.3136 19.5555 23.4378 19.7312 23.3784 19.8986L20.8004 27.1666C20.764 27.2692 20.667 27.3378 20.5581 27.3378H18.549C18.4401 27.3378 18.343 27.2692 18.3066 27.1666L15.7286 19.8986C15.6693 19.7312 15.7934 19.5555 15.971 19.5555H17.4383C17.5495 19.5555 17.648 19.6268 17.6827 19.7324L19.3099 24.689C19.3873 24.9247 19.7206 24.925 19.7984 24.6894L21.4353 19.732C21.4701 19.6266 21.5685 19.5555 21.6794 19.5555H23.136Z" fill="white"/>
<path d="M7.42871 23.4355C7.42871 22.6669 7.595 21.9833 7.92758 21.3847C8.26015 20.7786 8.72207 20.3093 9.31331 19.9767C9.91195 19.6368 10.5882 19.4668 11.342 19.4668C12.2659 19.4668 13.0567 19.7107 13.7144 20.1985C14.2868 20.623 14.6941 21.1818 14.9363 21.8749C14.9919 22.0341 14.8687 22.1939 14.7001 22.1939H13.1117C13.0126 22.1939 12.9237 22.1362 12.8738 22.0505C12.7251 21.795 12.5286 21.5952 12.2843 21.4512C12.0035 21.2812 11.682 21.1962 11.3199 21.1962C10.736 21.1962 10.263 21.3994 9.90087 21.8059C9.53873 22.2124 9.35766 22.7556 9.35766 23.4355C9.35766 24.1155 9.53873 24.6587 9.90087 25.0652C10.263 25.4717 10.736 25.6749 11.3199 25.6749C11.682 25.6749 12.0035 25.5899 12.2843 25.4199C12.5286 25.2759 12.7251 25.0761 12.8738 24.8206C12.9237 24.7349 13.0126 24.6772 13.1117 24.6772H14.7001C14.8687 24.6772 14.9919 24.837 14.9363 24.9962C14.6941 25.6893 14.2868 26.2481 13.7144 26.6726C13.0567 27.153 12.2659 27.3932 11.342 27.3932C10.5882 27.3932 9.91195 27.2269 9.31331 26.8944C8.72207 26.5544 8.26015 26.0851 7.92758 25.4864C7.595 24.8878 7.42871 24.2042 7.42871 23.4355Z" fill="white"/>
<path d="M16.8777 3.39288H7.30148C5.17124 3.39288 3.44434 5.11979 3.44434 7.25003V30.75C3.44434 32.8803 5.17124 34.6072 7.30148 34.6072H23.6983C25.8285 34.6072 27.5554 32.8803 27.5554 30.75V13.2322M16.8777 3.39288L27.5554 13.2322M16.8777 3.39288V10.6607C16.8777 12.0809 18.0289 13.2322 19.4491 13.2322H27.5554" stroke="white" stroke-width="3"/>
</svg>
