<svg width="19" height="19" viewBox="0 0 19 19" fill="none" xmlns="http://www.w3.org/2000/svg">
<path fill-rule="evenodd" clip-rule="evenodd" d="M7.12483 4.74998C7.56206 4.74998 7.9165 5.10442 7.9165 5.54165C7.9165 5.97888 7.56206 6.33333 7.12483 6.33333L5.77134 6.33333C5.20718 6.33333 4.74984 6.79068 4.74984 7.35484V12.9306C4.74984 13.6593 5.34057 14.25 6.06928 14.25H11.3471C12.0758 14.25 12.6665 13.6593 12.6665 12.9306V11.875C12.6665 11.4378 13.0209 11.0833 13.4582 11.0833C13.8954 11.0833 14.2498 11.4378 14.2498 11.875L14.2498 13.4583C14.2498 14.77 13.1865 15.8333 11.8748 15.8333H4.93983C3.96045 15.8333 3.1665 15.0394 3.1665 14.06V7.12499C3.1665 5.81332 4.22982 4.75 5.54149 4.74999L7.12483 4.74998ZM15.2174 2.375C15.9947 2.375 16.6248 3.00512 16.6248 3.78241V7.91667C16.6248 8.35389 16.2704 8.70833 15.8332 8.70833C15.3959 8.70833 15.0415 8.35389 15.0415 7.91667V5.07786L9.03609 11.0833C8.72692 11.3925 8.22567 11.3925 7.9165 11.0833C7.60734 10.7742 7.60734 10.2729 7.9165 9.96375L13.9219 3.95831L11.0832 3.95833C10.6459 3.95833 10.2915 3.60389 10.2915 3.16666C10.2915 2.72944 10.6459 2.375 11.0832 2.375H15.2174Z" fill="url(#paint0_linear_561_948)"/>
<defs>
<linearGradient id="paint0_linear_561_948" x1="5.7532" y1="2.09679" x2="14.5074" y2="16.2861" gradientUnits="userSpaceOnUse">
<stop stop-color="#6167FF"/>
<stop offset="1" stop-color="#454DFF"/>
</linearGradient>
</defs>
</svg>
