<svg width="40" height="40" viewBox="0 0 40 40" fill="none" xmlns="http://www.w3.org/2000/svg">
<path d="M34.1667 32.2733L30.4934 8.94167C30.42 8.51 30.0584 8.18667 29.62 8.18667C29.3767 8.18667 29.1567 8.28667 28.995 8.45L5.83337 32.2733L18.65 39.6533C19.0217 39.8717 19.4684 40 19.9434 40C20.4167 40 20.8617 39.8717 21.245 39.6483L34.1667 32.2733ZM12.2834 0.476667C12.1334 0.193333 11.8417 0 11.5034 0C11.0617 0 10.695 0.331667 10.6284 0.768333L6.77171 26.1217L16.4334 8.43333L12.285 0.481667L12.2834 0.476667ZM23.7517 11.9133L20.7834 6.11C20.6317 5.82 20.3384 5.62667 20 5.62667C19.6617 5.62667 19.3684 5.82 19.2184 6.105L19.2167 6.11L6.18337 29.9733L23.7517 11.9133Z" fill="white"/>
</svg>
