<svg width="58" height="59" viewBox="0 0 58 59" fill="none" xmlns="http://www.w3.org/2000/svg">
<path d="M24.8216 29.3813C24.8216 36.5854 25.3276 42.6388 21.8333 46.2212C19.8678 48.2365 16.7667 49.4239 12.9511 49.4239C6.69272 49.4239 3.21787 46.3225 1 42.0309C3.13514 40.6441 5.31711 39.3035 7.541 38.0065C8.44837 40.5876 11.5122 43.4896 14.9698 41.7032C17.1613 40.57 16.9083 37.1349 16.9083 33.4062C16.9083 25.6645 16.9083 16.7337 16.9083 9.74895C16.9014 9.63274 16.8946 9.51664 16.9884 9.5025C19.6 9.5025 22.2111 9.5025 24.8217 9.5025C24.8216 15.7244 24.8216 22.7635 24.8216 29.3813ZM44.6861 24.6996C42.6894 23.8298 40.2075 22.8008 39.5991 20.9203C38.917 18.8127 40.0801 17.0763 41.3752 16.4854C44.2228 15.1844 47.6167 17.3265 48.3197 19.5244C50.4626 18.2268 52.5987 16.9214 54.538 15.4174C52.2591 11.5677 48.9185 8.8118 42.829 9.01005C39.4762 9.11903 36.9575 10.1958 35.0771 11.8027C33.2419 13.3705 31.8248 15.5711 31.6042 18.7029C30.9449 28.0769 37.8402 30.4697 43.7172 33.0776C45.5698 33.8997 47.6294 34.7297 48.4817 36.3633C50.2392 39.7341 47.126 41.9579 44.444 42.1958C40.1396 42.5772 37.2374 40.0155 35.5613 37.3492C33.4676 38.6694 31.191 39.8031 29.1819 41.2099C31.9764 46.2087 36.5583 49.4448 43.7172 49.424C51.0204 49.4031 56.4347 45.8213 56.8792 39.0744C57.4836 29.904 50.7296 27.3314 44.6861 24.6996Z" fill="white"/>
</svg>
