<svg width="40" height="40" viewBox="0 0 40 40" fill="none" xmlns="http://www.w3.org/2000/svg">
<path d="M34.961 10.493H5.03896C3.35584 10.493 2 9.26761 2 7.74648C2 6.22535 3.35584 5 5.03896 5H34.961C36.6442 5 38 6.22535 38 7.74648C38 9.26761 36.6442 10.493 34.961 10.493ZM38 20C38 18.4789 36.6442 17.2535 34.961 17.2535H5.03896C3.35584 17.2535 2 18.4789 2 20C2 21.5211 3.35584 22.7465 5.03896 22.7465H34.961C36.6442 22.7465 38 21.5211 38 20ZM38 32.2535C38 30.7324 36.6442 29.507 34.961 29.507H5.03896C3.35584 29.507 2 30.7324 2 32.2535C2 33.7746 3.35584 35 5.03896 35H34.961C36.6442 35 38 33.7746 38 32.2535Z" fill="white"/>
</svg>
