<svg width="40" height="40" viewBox="0 0 40 40" fill="none" xmlns="http://www.w3.org/2000/svg">
<path d="M35 13.3333L29.0653 16.6304C25.7567 18.4685 24.1023 19.3877 22.3503 19.748C20.7997 20.0668 19.2003 20.0668 17.6497 19.748C15.8977 19.3877 14.2434 18.4685 10.9347 16.6304L5 13.3333M10.3333 31.6667H29.6667C31.5335 31.6667 32.467 31.6667 33.18 31.3033C33.8072 30.9838 34.3172 30.4738 34.6367 29.8467C35 29.1337 35 28.2002 35 26.3333V13.6667C35 11.7998 35 10.8664 34.6367 10.1534C34.3172 9.52614 33.8072 9.01621 33.18 8.69664C32.467 8.33333 31.5335 8.33333 29.6667 8.33333H10.3333C8.4665 8.33333 7.53307 8.33333 6.82003 8.69664C6.19282 9.01621 5.68288 9.52614 5.36332 10.1534C5 10.8664 5 11.7998 5 13.6667V26.3333C5 28.2002 5 29.1337 5.36332 29.8467C5.68288 30.4738 6.19282 30.9838 6.82003 31.3033C7.53307 31.6667 8.46648 31.6667 10.3333 31.6667Z" stroke="white" stroke-width="3" stroke-linecap="round" stroke-linejoin="round"/>
</svg>
