<svg width="58" height="59" viewBox="0 0 58 59" fill="none" xmlns="http://www.w3.org/2000/svg">
<path d="M28.6756 42.7473C28.6756 42.7473 28.6756 23.6442 29.2991 23.6461C29.7812 23.6461 30.4083 48.2878 30.4083 48.2878C29.5456 48.1846 28.6756 44.2334 28.6756 42.7473ZM40.7613 23.8673C39.0956 16.4628 35.4471 10.0964 30.4156 5.18278L30.4029 5.17172C29.7903 4.22034 29.2302 3.12884 28.7807 1.97834L28.7372 1.85297C28.739 1.88984 28.739 1.93409 28.739 1.97834C28.739 3.02006 28.2805 3.95115 27.5573 4.57619L27.5518 4.57987C21.074 10.1738 16.9523 18.4172 16.8164 27.6415V27.6655C16.8146 27.7798 16.8146 27.9144 16.8146 28.049C16.8146 37.1884 21.1374 45.3009 27.8164 50.386L27.8871 50.4376L28.0448 50.5538C28.336 52.7466 28.5849 54.9444 28.7916 57.147H29.8809C30.1818 54.398 30.5878 51.9919 31.1188 49.6319L31.0354 50.0726C31.7532 49.5655 32.3803 49.0401 32.9658 48.4703L32.9603 48.4759C38.0371 43.6877 41.2054 36.8658 41.2054 29.2935C41.2054 29.181 41.2054 29.0704 41.2036 28.9579V28.9745C41.1981 27.1658 41.0368 25.3977 40.7305 23.6811L40.7577 23.8637L40.7613 23.8673Z" fill="white"/>
</svg>
