<svg width="59" height="59" viewBox="0 0 59 59" fill="none" xmlns="http://www.w3.org/2000/svg">
<path d="M57.0918 28.3106C56.9304 28.2988 56.7436 28.2909 56.5547 28.2909C55.6025 28.2909 54.6917 28.4677 53.8537 28.7898L53.9048 28.7721C53.6589 28.8703 53.2654 28.8703 53.232 29.1826C53.3677 29.3122 53.3874 29.5263 53.5015 29.707C53.7317 30.0959 54.015 30.4259 54.3455 30.7009L54.3514 30.7067C54.6956 30.9758 55.0399 31.237 55.4019 31.4668C56.0412 31.8597 56.7672 32.0934 57.3928 32.4882C57.7488 32.718 58.1128 33.0106 58.4747 33.2561C58.6538 33.3779 58.7698 33.5998 59 33.6784V33.6293C58.8879 33.482 58.8525 33.2679 58.7423 33.1049C58.577 32.9399 58.4138 32.7926 58.2505 32.6316C57.7626 31.9932 57.198 31.4472 56.5645 30.9915L56.5409 30.9758C56.0157 30.6184 54.8648 30.1175 54.6484 29.5145L54.617 29.4792C55.0458 29.4183 55.4275 29.328 55.7953 29.2062L55.7481 29.2199C56.3068 29.0726 56.8183 29.104 57.3947 28.9607C57.6544 28.8939 57.918 28.8134 58.1816 28.7309V28.5836C57.8865 28.2889 57.6662 27.8883 57.3613 27.6133C56.5567 26.9062 55.6694 26.2424 54.735 25.6453L54.6465 25.5923C54.131 25.2643 53.4759 25.0521 52.933 24.7732C52.7363 24.675 52.4077 24.6259 52.2936 24.4609C52.0379 24.0976 51.8116 23.6812 51.6326 23.2412L51.6169 23.198C51.1343 22.2631 50.6857 21.3118 50.2713 20.3442C49.988 19.592 49.7067 18.9752 49.39 18.3782L49.4352 18.4705C47.8889 15.8798 45.7348 13.7979 43.1636 12.3779L43.079 12.3346C42.4711 12.0341 41.7649 11.8004 41.0232 11.6688L40.974 11.661C40.5629 11.6413 40.1537 11.6119 39.7445 11.5942C39.4573 11.4096 39.2094 11.221 38.9773 11.0128L38.9832 11.0187C38.0487 10.4295 35.631 9.15282 34.9424 10.8419C34.4998 11.9065 35.5995 12.9573 35.9792 13.4974C36.2821 13.8568 36.5575 14.2595 36.7956 14.6857L36.8152 14.7249C36.9313 15.0097 36.9628 15.3024 37.0789 15.599C37.3641 16.4867 37.6533 17.2154 37.9818 17.9205L37.9307 17.7987C38.1254 18.1896 38.3281 18.5215 38.5543 18.8358L38.5386 18.8122C38.6704 18.9909 38.8966 19.0754 38.9497 19.37C38.7805 19.7255 38.6487 20.138 38.5759 20.5681L38.572 20.5956C38.3595 21.2477 38.2356 21.9999 38.2356 22.7797C38.2356 23.9994 38.5366 25.1484 39.0678 26.1579L39.0481 26.1186C39.3117 26.5252 39.9373 27.4287 40.7753 27.083C41.5131 26.7884 41.3498 25.8554 41.5622 25.0345C41.6114 24.838 41.5799 24.7084 41.6803 24.5749V24.6122C41.9104 25.0737 42.1426 25.5137 42.3531 25.9753C42.9472 26.8296 43.6534 27.5563 44.46 28.1554L44.4856 28.1731C44.879 28.4677 45.1918 28.9783 45.6836 29.159V29.1099H45.6463C45.5341 28.9882 45.4102 28.8801 45.2744 28.7878L45.2666 28.7839C44.9617 28.4854 44.6784 28.1632 44.4226 27.8235L44.4069 27.8019C43.7656 26.9377 43.1557 25.9595 42.6265 24.9323L42.5695 24.8125C42.3 24.2979 42.0737 23.7421 41.8573 23.2334C41.759 23.037 41.759 22.7424 41.5937 22.6442C41.3026 22.9702 41.0409 23.3335 40.8225 23.7244L40.8068 23.7558C40.555 24.4884 40.3898 25.335 40.3465 26.2129V26.2345C40.2796 26.2522 40.313 26.2345 40.2796 26.2699C39.7543 26.1422 39.5733 25.5981 39.3766 25.1405C39.1091 24.4217 38.9537 23.5889 38.9537 22.7227C38.9537 22.0235 39.054 21.3479 39.2428 20.7095L39.231 20.7606C39.3471 20.4169 39.8389 19.3327 39.6422 19.0027C39.5399 18.6904 39.2153 18.5117 39.0343 18.2583C38.8199 17.9559 38.6232 17.6122 38.4599 17.2488L38.4441 17.2095C38.0507 16.2923 37.854 15.2749 37.4271 14.3577C37.1694 13.8784 36.8979 13.466 36.5929 13.081L36.6067 13.0987C36.2821 12.7235 35.9831 12.3052 35.7234 11.8613L35.7018 11.822C35.6211 11.6433 35.5051 11.3467 35.6349 11.1503C35.6585 11.0364 35.749 10.948 35.8651 10.9303C36.0815 10.7536 36.6913 10.9834 36.9038 11.0816C37.5274 11.3172 38.0645 11.5942 38.5622 11.9202L38.5307 11.9006C38.7609 12.0616 39.0107 12.3739 39.3058 12.4545H39.6501C40.1753 12.5703 40.7694 12.4898 41.2612 12.6332C42.1642 12.9376 42.9452 13.3187 43.6672 13.7861L43.6259 13.7606C45.7977 15.161 47.5368 17.0544 48.7132 19.2915L48.7526 19.372C48.9493 19.7491 49.0358 20.0967 49.2149 20.4895C49.5591 21.2988 49.9841 22.1178 50.3342 22.8995C50.6667 23.7401 51.0602 24.4668 51.5284 25.1366L51.5048 25.1012C51.7507 25.4449 52.7382 25.6237 53.1809 25.8024C53.6471 25.9654 54.0209 26.1206 54.3828 26.2954L54.3101 26.264C54.8747 26.6077 55.4255 27.0005 55.9567 27.3776C56.2262 27.5642 57.0465 27.9747 57.0957 28.3047L57.0918 28.3106ZM34.0276 42.6739C34.0276 42.7034 34.0296 42.7368 34.0296 42.7702C34.0296 43.8661 33.5398 44.8462 32.7647 45.5062L32.7588 45.5101C31.9089 46.2015 30.8131 46.6218 29.619 46.6218C29.5266 46.6218 29.4341 46.6198 29.3436 46.6139H29.3554C27.9016 46.5943 26.5639 46.1229 25.4681 45.3353L25.4878 45.349L26.0701 44.1804C26.914 44.6518 27.9173 44.9444 28.9836 44.9857H28.9954C29.0485 44.9896 29.1095 44.9916 29.1724 44.9916C29.8256 44.9916 30.4335 44.7873 30.9312 44.4397L30.9213 44.4456C31.3718 44.1038 31.6591 43.5696 31.6591 42.9686C31.6591 42.9568 31.6591 42.947 31.6591 42.9352V42.9371C31.6591 42.1279 31.0945 41.4405 30.0656 40.8631C29.1115 40.3406 27.2072 39.2505 27.2072 39.2505C26.2668 38.6692 25.6511 37.6459 25.6511 36.4792C25.6511 36.438 25.6511 36.3967 25.653 36.3555V36.3614C25.6511 36.324 25.6511 36.2808 25.6511 36.2376C25.6511 35.2261 26.0976 34.3187 26.8039 33.702L26.8078 33.6981C27.5593 33.0617 28.541 32.6748 29.6131 32.6748C29.682 32.6748 29.7489 32.6767 29.8157 32.6787H29.8059C29.8236 32.6787 29.8453 32.6787 29.8669 32.6787C31.124 32.6787 32.2945 33.0538 33.2702 33.7L33.2466 33.6863L32.7234 34.8549C31.9542 34.5092 31.0571 34.301 30.1128 34.2912H30.1089C30.0616 34.2873 30.0085 34.2853 29.9535 34.2853C29.4026 34.2853 28.8951 34.4778 28.4977 34.7999L28.5016 34.796C28.1298 35.1043 27.8937 35.5659 27.8918 36.0825C27.8918 36.8877 28.4662 37.5791 29.5285 38.1683C30.4944 38.6967 32.446 39.8123 32.446 39.8123C33.406 40.376 34.0414 41.4012 34.0414 42.5757C34.0414 42.6111 34.0414 42.6484 34.0394 42.6838V42.6779L34.0276 42.6739ZM38.1038 43.7169C37.5667 42.6464 37.2539 41.3855 37.2539 40.0519C37.2539 39.8417 37.2618 39.6335 37.2776 39.4293L37.2756 39.4568C37.2756 36.0379 38.3163 34.3279 40.3976 34.3266C40.4488 34.3226 40.5098 34.3207 40.5727 34.3207C41.5072 34.3207 42.3275 34.8078 42.7937 35.5423L42.7996 35.5522C43.3328 36.6167 43.6456 37.8737 43.6456 39.2014C43.6456 39.4057 43.6377 39.608 43.6239 39.8083L43.6259 39.7808C43.6259 43.2272 42.5852 44.9516 40.5039 44.9543C40.4507 44.9582 40.3897 44.9601 40.3288 44.9601C39.3943 44.9601 38.572 44.4731 38.1058 43.7385L38.0999 43.7287L38.1038 43.7169ZM46.1971 46.7651L43.6987 45.5376C43.9269 45.3471 44.1315 45.1467 44.3203 44.9307L44.3262 44.9248C45.3354 43.5656 45.9413 41.8549 45.9413 40.0047C45.9413 39.7907 45.9335 39.5785 45.9177 39.3684L45.9197 39.3959C45.9197 34.9047 44.1538 32.6577 40.6219 32.6551C40.5432 32.6512 40.4507 32.6492 40.3583 32.6492C38.8494 32.6492 37.4939 33.3111 36.5713 34.3619L36.5674 34.3678C35.5621 35.727 34.9582 37.4357 34.9582 39.2859C34.9582 39.4941 34.966 39.7003 34.9818 39.9046L34.9798 39.8771C34.9621 40.0755 34.9523 40.3072 34.9523 40.5409C34.9523 42.2576 35.4913 43.8485 36.408 45.1546L36.3903 45.1291C37.2736 46.0679 38.5268 46.6532 39.9137 46.6532C40.0435 46.6532 40.1714 46.6473 40.2973 46.6375L40.2796 46.6394C40.2973 46.6394 40.3209 46.6394 40.3425 46.6394C40.9544 46.6394 41.5465 46.5511 42.1072 46.388L42.0639 46.3998L45.3217 48.2952L46.2069 46.7691L46.1971 46.7651ZM54.3573 46.4332H47.8909V32.8613H50.0667V44.7657H54.3573V46.4332ZM24.0595 36.4203C23.4949 40.5134 22.2025 44.2079 20.3119 47.5174L20.3906 47.3662C19.6332 48.8215 18.2011 49.835 16.5191 49.998L16.4994 50C15.9899 49.9725 15.5158 49.8507 15.0849 49.6524L15.1085 49.6622V48.4503C15.378 48.4916 15.6889 48.5152 16.0056 48.5152C16.0233 48.5152 16.041 48.5152 16.0607 48.5152C16.0922 48.5171 16.1256 48.5171 16.161 48.5171C16.7296 48.5171 17.2509 48.3109 17.6522 47.9672L17.6483 47.9691C18.0811 47.6136 18.3584 47.0833 18.3742 46.4862C18.2699 45.626 18.0712 44.8403 17.786 44.0999L17.8096 44.1667L15.3171 36.4203H17.5538L19.3421 42.2124C19.6608 43.0294 19.8457 43.9761 19.8457 44.9641C19.8457 44.966 19.8457 44.968 19.8457 44.968C20.7939 42.4893 21.5139 39.5982 21.8798 36.599L21.8975 36.4183L24.0595 36.4203ZM14.1839 46.4332H11.9058C11.8416 42.818 11.6206 39.2099 11.2429 35.6091H11.2232L7.75689 46.4332H6.02374L2.58104 35.6091H2.55743C2.28858 39.2113 2.12857 42.8193 2.07742 46.4332H0C0.135085 41.6081 0.47083 37.0835 1.00724 32.8594H3.83418L7.11557 42.835H7.13524L10.4461 32.8594H13.1373C13.7328 37.805 14.0836 42.3296 14.1898 46.4332H14.1839ZM40.3288 14.0513C40.3248 14.0513 40.3189 14.0513 40.313 14.0513C40.0789 14.0513 39.8527 14.0807 39.6363 14.1357L39.656 14.1318V14.1632H39.6894C39.8586 14.4146 40.0317 14.6326 40.2186 14.8369L40.2147 14.833C40.3465 15.0962 40.4606 15.3574 40.5924 15.6186L40.6258 15.5813C40.8403 15.4124 40.976 15.1531 40.976 14.8624C40.976 14.8271 40.974 14.7937 40.9701 14.7583V14.7623C40.8717 14.6464 40.858 14.5325 40.7734 14.4185C40.675 14.2536 40.4645 14.173 40.3307 14.0434L40.3288 14.0513Z" fill="white"/>
</svg>
