<svg width="44" height="44" viewBox="0 0 44 44" fill="none" xmlns="http://www.w3.org/2000/svg">
<g clip-path="url(#clip0_674_499)">
<path d="M13.2 13.2L14.389 12.3413C14.0165 11.8256 13.3541 11.6088 12.7488 11.8045C12.1434 12.0002 11.7333 12.5638 11.7333 13.2H13.2ZM22 41.0667C11.4698 41.0667 2.93333 32.5304 2.93333 22H0C0 34.1502 9.84972 44 22 44V41.0667ZM41.0667 22C41.0667 32.5304 32.5304 41.0667 22 41.0667V44C34.1502 44 44 34.1502 44 22H41.0667ZM22 2.93333C32.5304 2.93333 41.0667 11.4698 41.0667 22H44C44 9.84972 34.1502 0 22 0V2.93333ZM22 0C9.84972 0 0 9.84972 0 22H2.93333C2.93333 11.4698 11.4698 2.93333 22 2.93333V0ZM14.6667 35.2V13.2H11.7333V35.2H14.6667ZM12.011 14.0587L31.0778 40.4586L33.4555 38.7414L14.389 12.3413L12.011 14.0587ZM29.3333 11.7333V29.3333H32.2667V11.7333H29.3333Z" fill="white"/>
</g>
<defs>
<clipPath id="clip0_674_499">
<rect width="44" height="44" fill="white"/>
</clipPath>
</defs>
</svg>
