<svg width="59" height="59" viewBox="0 0 59 59" fill="none" xmlns="http://www.w3.org/2000/svg">
<path d="M31.6618 4.23827C30.3531 3.50226 28.6469 3.50556 27.3371 4.23827C20.777 7.85856 14.2168 11.4799 7.65554 15.0986C6.3788 15.7702 5.51768 17.1413 5.53141 18.5644V40.4386C5.52219 41.8894 6.42771 43.2737 7.73739 43.9362C9.62199 44.9388 11.453 46.0432 13.3717 46.9791C15.588 48.0682 18.3609 48.309 20.6043 47.1733C22.4253 46.232 23.2342 44.1385 23.2318 42.2145C23.2466 34.9955 23.2342 27.7763 23.2375 20.5571C23.2808 20.2363 23.0399 19.8933 22.6899 19.9011C21.8516 19.8878 21.0121 19.8933 20.1738 19.8989C19.857 19.869 19.5478 20.1321 19.5718 20.4505C19.5605 27.6231 19.574 34.7978 19.5649 41.9715C19.5832 42.9638 18.9128 43.9174 17.9565 44.2526C15.7478 45.0268 9.44365 40.9335 9.44365 40.9335C9.21229 40.8263 9.06538 40.5754 9.08806 40.3261C9.08806 33.1093 9.08919 25.8923 9.08806 18.6766C9.05626 18.3857 9.23556 18.1237 9.50272 18.0049C16.0412 14.406 22.5763 10.798 29.1148 7.19682C29.342 7.04525 29.6586 7.04571 29.8852 7.19793C36.4236 10.798 42.9599 14.4027 49.4995 18.0018C49.7676 18.1204 49.9393 18.3868 49.912 18.6766C49.9109 25.8923 49.9142 33.1093 49.9098 40.3252C49.9291 40.5806 49.7971 40.828 49.5587 40.9401C43.0812 44.5196 36.53 47.9836 30.1112 51.667C29.8311 51.8276 29.5138 52.0096 29.2 51.8326C27.5121 50.8989 25.8446 49.9289 24.1622 48.9862C23.9793 48.8721 23.7464 48.8231 23.5556 48.9508C22.8013 49.3483 22.0918 49.6703 21.2256 50.0132C20.0091 50.4948 20.2034 50.6917 21.3007 51.3309C23.2681 52.4444 25.2389 53.5534 27.2064 54.6679C28.5016 55.4762 30.2419 55.5338 31.5788 54.7868C38.14 51.1711 44.6991 47.5511 51.2616 43.9353C52.5677 43.2691 53.4778 41.8904 53.4686 40.4384V18.5644C53.4813 17.1702 52.6531 15.8236 51.4148 15.142C44.8319 11.504 38.2458 7.874 31.6618 4.23827Z" fill="white"/>
<path d="M41.5616 20.6614C38.9865 19.2838 35.9229 19.2104 33.0612 19.3905C30.9938 19.5948 28.8195 20.1653 27.3133 21.6473C25.7684 23.137 25.4321 25.5427 26.1659 27.4875C26.6918 28.8619 28.0154 29.7555 29.3842 30.2283C31.1474 30.8507 32.9992 31.0432 34.8517 31.2357C36.5413 31.4112 38.2314 31.5869 39.8554 32.089C40.5188 32.3088 41.2913 32.6451 41.4945 33.3669C41.6822 34.2216 41.4764 35.2152 40.7825 35.8091C38.5781 37.5539 32.4461 37.2865 30.2681 35.9133C29.3875 35.3283 29.0081 34.2926 28.8538 33.3057C28.8366 32.9981 28.589 32.716 28.2551 32.7395C27.419 32.7295 26.5828 32.7317 25.7467 32.7383C25.455 32.7138 25.1517 32.9214 25.1357 33.2192C24.9638 37.7395 29.1154 39.7101 33.0103 40.144C35.2355 40.356 37.5096 40.3438 39.7009 39.8663C41.3481 39.4913 42.9997 38.8006 44.1336 37.5319C45.5319 35.99 45.8069 33.6943 45.1798 31.7737C44.7004 30.3406 43.3303 29.4213 41.9298 28.9483C40.0252 28.2953 37.7681 27.9442 36.0431 27.78C33.5358 27.5412 30.5563 27.6387 29.8466 25.9911C29.5636 25.1285 29.8044 24.0572 30.5972 23.5266C32.6948 22.1038 36.964 22.2928 39.1363 23.3557C40.1338 23.8552 40.7118 24.881 40.9504 25.9167C40.9947 26.2209 41.1993 26.5384 41.5515 26.5251C42.3819 26.5417 43.2123 26.5295 44.0426 26.5306C44.3278 26.5505 44.6401 26.3896 44.6958 26.0975C44.6606 23.933 43.5553 21.7172 41.5616 20.6614Z" fill="white"/>
</svg>
