<svg width="59" height="59" viewBox="0 0 59 59" fill="none" xmlns="http://www.w3.org/2000/svg">
<path d="M19.8023 23.5509C18.519 22.0819 16.4771 21.3473 13.6781 21.3473H4.3743L0.0576172 43.5575H4.89562L6.04335 37.6527H10.1875C12.0162 37.6527 13.5204 37.4611 14.7016 37.0762C15.8824 36.6925 16.9558 36.0483 17.9218 35.1441C18.7327 34.3989 19.3882 33.577 19.8908 32.6781C20.3926 31.7796 20.7491 30.7881 20.96 29.7036C21.472 27.0708 21.0856 25.0202 19.8023 23.5509ZM15.9592 29.3644C15.6246 31.0833 14.9806 32.3101 14.0261 33.0451C13.071 33.7803 11.618 34.1478 9.6677 34.1478H6.72439L8.53103 24.8521H11.8461C13.6843 24.8521 14.9093 25.1913 15.5216 25.8699C16.1335 26.5489 16.2797 27.7135 15.9592 29.3644ZM38.9294 27.3174L36.921 37.6527H32.0446L33.9543 27.8258C34.1714 26.7078 34.0917 25.9451 33.7141 25.5387C33.3371 25.132 32.5339 24.9284 31.3057 24.9284H27.4697L24.997 37.6527H20.1968L24.5135 15.4426H29.3137L28.166 21.3473H32.4425C35.1328 21.3473 36.9887 21.8171 38.0103 22.7552C39.032 23.6939 39.3377 25.2148 38.9294 27.3174ZM57.5658 23.5509C56.2824 22.0819 54.2406 21.3473 51.442 21.3473H42.1382L37.8215 43.5575H42.6595L43.8073 37.6527H47.9514C49.7801 37.6527 51.2838 37.4611 52.4651 37.0762C53.6459 36.6925 54.7193 36.0483 55.6853 35.1441C56.4961 34.3989 57.1521 33.577 57.6544 32.6781C58.1561 31.7796 58.5126 30.7881 58.7234 29.7036C59.2353 27.0708 58.8495 25.0202 57.5658 23.5509ZM53.723 29.3644C53.3885 31.0833 52.7445 32.3101 51.7894 33.0451C50.8348 33.7803 49.3815 34.1478 47.431 34.1478H44.4883L46.2949 24.8521H49.6097C51.4479 24.8521 52.6727 25.1913 53.2855 25.8699C53.8974 26.5489 54.0431 27.7135 53.723 29.3644Z" fill="white"/>
</svg>
