<svg width="42" height="42" viewBox="0 0 42 42" fill="none" xmlns="http://www.w3.org/2000/svg">
<g clip-path="url(#clip0_745_11)">
<path d="M16.5696 20.3332H25.0914C26.3904 20.3152 27.6436 19.8503 28.6399 19.0166C29.6362 18.1829 30.3149 17.0313 30.5616 15.7558V5.40313C30.5616 5.40313 28.5159 0.882294 20.2654 0.882294C12.0149 0.882294 10.6134 4.66849 10.6134 4.66849V9.99177H20.5932V11.9583H7.30191C6.37547 11.9524 5.45701 12.1299 4.59951 12.4806C3.74201 12.8314 2.96243 13.3484 2.30575 14.002C1.64907 14.6555 1.12827 15.4326 0.773399 16.2884C0.418525 17.1442 0.236597 18.0618 0.238109 18.9882V24.8201C0.236623 25.63 0.39485 26.4321 0.703735 27.1808C1.01262 27.9294 1.4661 28.6098 2.03822 29.1829C2.61035 29.7561 3.28988 30.2108 4.03794 30.5211C4.786 30.8313 5.5879 30.991 6.39774 30.991H9.69795V27.1935C9.69646 26.2913 9.87326 25.3976 10.2182 24.5638C10.5631 23.7301 11.0694 22.9727 11.708 22.3352C12.3465 21.6977 13.1047 21.1927 13.939 20.8491C14.7734 20.5055 15.6673 20.3302 16.5696 20.3332ZM15.0325 7.4375C14.695 7.4375 14.365 7.33741 14.0844 7.14988C13.8037 6.96236 13.585 6.69582 13.4558 6.38398C13.3267 6.07214 13.2929 5.72899 13.3587 5.39794C13.4246 5.06689 13.5871 4.7628 13.8258 4.52413C14.0644 4.28545 14.3685 4.12291 14.6996 4.05706C15.0306 3.99121 15.3738 4.02501 15.6856 4.15418C15.9975 4.28335 16.264 4.50209 16.4515 4.78274C16.6391 5.06339 16.7391 5.39335 16.7391 5.73089C16.7362 6.18259 16.5554 6.61496 16.236 6.93437C15.9166 7.25379 15.4842 7.43454 15.0325 7.4375Z" fill="white"/>
<path d="M35.6023 11.0202H32.3021V14.8064C32.3036 15.7068 32.1275 16.5987 31.784 17.4309C31.4405 18.2632 30.9362 19.0196 30.3001 19.6568C29.6639 20.294 28.9084 20.7995 28.0767 21.1444C27.245 21.4893 26.3534 21.6668 25.4531 21.6668H16.9087C15.6097 21.6847 14.3565 22.1497 13.3602 22.9834C12.3638 23.8171 11.6852 24.9687 11.4385 26.2442V36.5969C11.4385 36.5969 13.4842 41.1177 21.7347 41.1177C29.9852 41.1177 31.3866 37.3315 31.3866 37.3315V32.0421H21.4069V30.0417H34.6982C35.6246 30.0476 36.5431 29.8701 37.4006 29.5194C38.2581 29.1686 39.0376 28.6516 39.6943 27.998C40.351 27.3445 40.8718 26.5674 41.2267 25.7116C41.5815 24.8558 41.7635 23.9382 41.762 23.0118V17.1912C41.7634 16.3813 41.6052 15.5791 41.2963 14.8305C40.9874 14.0819 40.534 13.4015 39.9618 12.8284C39.3897 12.2552 38.7102 11.8005 37.9621 11.4902C37.2141 11.1799 36.4122 11.0202 35.6023 11.0202ZM26.9675 34.5625C27.3051 34.5625 27.635 34.6626 27.9157 34.8501C28.1963 35.0376 28.4151 35.3042 28.5442 35.616C28.6734 35.9279 28.7072 36.271 28.6414 36.602C28.5755 36.9331 28.413 37.2372 28.1743 37.4759C27.9356 37.7145 27.6315 37.8771 27.3005 37.9429C26.9694 38.0088 26.6263 37.975 26.3144 37.8458C26.0026 37.7166 25.7361 37.4979 25.5485 37.2172C25.361 36.9366 25.2609 36.6066 25.2609 36.2691C25.2639 35.8174 25.4446 35.385 25.7641 35.0656C26.0835 34.7462 26.5158 34.5654 26.9675 34.5625Z" fill="white"/>
</g>
<defs>
<clipPath id="clip0_745_11">
<rect width="42" height="42" fill="white"/>
</clipPath>
</defs>
</svg>
