<svg width="59" height="59" viewBox="0 0 59 59" fill="none" xmlns="http://www.w3.org/2000/svg">
<path d="M26.3896 40.9515C27.4037 40.9976 28.4398 41.0308 29.4889 41.0308C30.5491 41.0308 31.5963 41.0087 32.6233 40.9515C31.5963 42.279 30.5823 43.4535 29.5092 44.5727L29.524 44.5579C28.4564 43.4517 27.4313 42.2753 26.4652 41.0511L26.3896 40.9515ZM15.8839 39.4765C17.8807 39.9836 20.3163 40.415 22.8017 40.6805L23.0432 40.7008C24.5643 42.7898 26.102 44.628 27.7521 46.3574L27.7318 46.3353C25.3147 49.0327 22.0531 50.9281 18.3637 51.6084L18.2623 51.6232C18.255 51.6232 18.2476 51.6232 18.2402 51.6232C17.783 51.6232 17.3515 51.5107 16.9736 51.3116L16.9883 51.3189C15.4543 50.4432 14.7887 47.0931 15.3068 42.7879C15.4303 41.7278 15.6332 40.6123 15.8821 39.4747L15.8839 39.4765ZM43.1401 39.4526C43.3576 40.3265 43.5623 41.4401 43.7079 42.5722L43.7245 42.7308C44.2537 47.0341 43.601 50.3805 42.0799 51.2747C41.7407 51.4628 41.335 51.5734 40.9036 51.5734C40.8612 51.5734 40.8188 51.5715 40.7764 51.5697H40.7819C36.9967 50.8783 33.7369 48.9958 31.3253 46.3316L31.3124 46.3169C32.9331 44.6151 34.4597 42.7805 35.8591 40.8501L35.966 40.6953C38.6874 40.4113 41.1267 39.9725 43.5033 39.3733L43.1401 39.4507V39.4526ZM18.0392 32.5717C18.5002 33.4751 18.9832 34.3749 19.5142 35.2783C20.044 36.1768 20.5855 37.0545 21.1386 37.9112C19.5382 37.677 17.9932 37.382 16.5163 37.0225C16.9312 35.5715 17.4511 34.0688 18.0374 32.568L18.0392 32.5717ZM40.9534 32.5256C41.5637 34.0393 42.0817 35.5493 42.5113 37.0133C41.0363 37.3747 39.4784 37.6807 37.8669 37.9112C38.4201 37.0465 38.9732 36.1559 39.4913 35.2433C40.0094 34.3454 40.4943 33.4272 40.9571 32.5238L40.9534 32.5256ZM14.0475 22.6634C14.8514 25.3884 15.7143 27.6673 16.7191 29.8651L16.5808 29.5295C15.7217 31.3825 14.8717 33.6484 14.1747 35.9808L14.0789 36.3588C12.7772 35.9587 11.7299 35.5659 10.7103 35.1253L10.9224 35.2064C6.9325 33.5083 4.35125 31.2755 4.35125 29.5055C4.35125 27.7355 6.9325 25.4917 10.9224 23.801C11.8903 23.3861 12.9523 23.0118 14.0475 22.6634ZM44.9101 22.6542C46.0255 22.9989 47.0857 23.3843 48.0776 23.801C52.0675 25.5064 54.6487 27.7355 54.6487 29.5055C54.6377 31.2755 52.0564 33.5138 48.0666 35.2083C47.0986 35.6231 46.0384 35.9955 44.9451 36.344C44.1338 33.6097 43.271 31.3327 42.2698 29.1313L42.4099 29.4779C43.2654 27.6268 44.1172 25.3608 44.8123 23.0284L44.9101 22.6486V22.6542ZM37.8522 21.0999C39.4544 21.3377 40.9976 21.629 42.4745 21.9923C42.0596 23.4488 41.5415 24.9459 40.9534 26.4468C40.4924 25.5488 40.0094 24.6436 39.4784 23.742C38.9603 22.8385 38.4072 21.9591 37.854 21.1017L37.8522 21.0999ZM21.1257 21.0999C20.5726 21.9683 20.0194 22.857 19.5032 23.7733C18.9851 24.6712 18.5002 25.5747 18.0392 26.4781C17.429 24.9662 16.9109 23.4599 16.4813 21.9923C17.9563 21.6475 19.5106 21.3396 21.1238 21.1036L21.1257 21.0999ZM29.5 20.5136C31.2055 20.5136 32.9036 20.591 34.574 20.7274C35.5094 22.0685 36.4177 23.4968 37.2991 25.0123C38.1558 26.4873 38.9375 27.982 39.6443 29.4963C38.9345 31.0063 38.1564 32.5145 37.3101 33.9895C36.4343 35.5106 35.5291 36.958 34.5906 38.2984C32.9128 38.444 31.2128 38.5233 29.4982 38.5233C27.7927 38.5233 26.0946 38.4422 24.4242 38.3094C23.4894 36.969 22.5767 35.5346 21.6991 34.0246C20.8424 32.5496 20.0606 31.0549 19.3538 29.5406C20.0526 28.0268 20.8417 26.515 21.688 25.0381C22.5638 23.517 23.4691 22.0752 24.4076 20.7348C26.0854 20.5873 27.7853 20.5099 29.5 20.5099V20.5136ZM29.465 14.4642C30.5343 15.5705 31.5595 16.7449 32.5237 17.9692L32.5975 18.0669C31.5834 18.0208 30.5472 17.9895 29.4982 17.9895C28.438 17.9895 27.3907 18.0116 26.3638 18.0669C27.3889 16.7394 28.403 15.5649 29.4779 14.4458L29.4631 14.4605L29.465 14.4642ZM18.2162 7.43585C22.0015 8.1291 25.2594 10.0116 27.6728 12.6739L27.6857 12.6887C26.0651 14.3923 24.5385 16.2268 23.1391 18.1609L23.0321 18.3158C20.3126 18.5979 17.8733 19.033 15.4986 19.6323L15.8599 19.5548C15.6018 18.4264 15.4101 17.3331 15.2755 16.284C14.7463 11.9807 15.399 8.63428 16.9201 7.74375C17.2999 7.56491 17.7442 7.45428 18.2126 7.43953H18.2181L18.2162 7.43585ZM40.7284 7.38975V7.4045C40.7524 7.4045 40.7801 7.40266 40.8096 7.40266C41.2502 7.40266 41.6651 7.51144 42.0301 7.70319L42.0154 7.69582C43.5494 8.57528 44.215 11.9235 43.6969 16.2305C43.5733 17.2907 43.3705 18.408 43.1216 19.5474C41.1212 19.0349 38.6856 18.6016 36.2002 18.3379L35.9642 18.3177C34.4413 16.2268 32.9036 14.3886 31.2534 12.6573L31.2755 12.6795C33.6927 9.9876 36.9488 8.09222 40.6307 7.40819L40.734 7.3916L40.7284 7.38975ZM40.7395 4.87857C36.2371 5.5626 32.3394 7.74928 29.4926 10.9039L29.4779 10.9205C26.6108 7.76772 22.7132 5.59578 18.3213 4.93757L18.2181 4.92466C18.1941 4.92466 18.1646 4.92466 18.1351 4.92466C17.2298 4.92466 16.3799 5.1625 15.6442 5.57919L15.67 5.56628C12.5025 7.39344 11.7926 13.0869 13.428 20.2315C6.4144 22.3979 1.85297 25.8604 1.85297 29.5092C1.85297 33.1728 6.43837 36.6445 13.4723 38.7943C11.8498 45.9665 12.5744 51.6693 15.7493 53.4946C16.4462 53.8947 17.2833 54.1288 18.1738 54.1288C18.2144 54.1288 18.255 54.1288 18.2937 54.127H18.2882C22.7906 53.4429 26.6883 51.2544 29.535 48.0979L29.5498 48.0813C32.4168 51.236 36.3145 53.4079 40.7063 54.0661L40.8096 54.079C40.8372 54.079 40.8723 54.079 40.9054 54.079C41.8052 54.079 42.6515 53.843 43.3834 53.4319L43.3576 53.4448C46.5233 51.6195 47.235 45.926 45.5996 38.7796C52.5874 36.6316 57.1489 33.1617 57.1489 29.5074C57.1489 25.8438 52.5635 22.3721 45.5296 20.2167C47.1521 13.0519 46.4275 7.34366 43.2525 5.5165C42.5482 5.11272 41.7038 4.87488 40.804 4.87488C40.7801 4.87488 40.7561 4.87488 40.7321 4.87488H40.7358L40.7395 4.87857ZM34.6385 29.5092C34.6385 32.3541 32.332 34.6607 29.4871 34.6607C26.6422 34.6607 24.3357 32.3541 24.3357 29.5092C24.3357 26.6643 26.6422 24.3578 29.4871 24.3578C30.9105 24.3578 32.1974 24.9349 33.1303 25.866C34.0633 26.7989 34.6385 28.0858 34.6385 29.5092Z" fill="white"/>
</svg>
