<svg width="59" height="59" viewBox="0 0 59 59" fill="none" xmlns="http://www.w3.org/2000/svg">
<g clip-path="url(#clip0_589_52)">
<path d="M29.5 59C13.2332 59 0 45.7668 0 29.5C0 13.2332 13.2332 0 29.5 0C45.7668 0 59 13.2332 59 29.5C59 45.7668 45.7668 59 29.5 59ZM29.5 2.45833C14.5902 2.45833 2.45833 14.5902 2.45833 29.5C2.45833 44.4098 14.5902 56.5417 29.5 56.5417C44.4098 56.5417 56.5417 44.4098 56.5417 29.5C56.5417 14.5902 44.4098 2.45833 29.5 2.45833Z" fill="white"/>
<path d="M18.9734 48.5496C18.2408 48.5496 17.5771 48.38 17.0362 48.0137C16.1021 47.3844 14.8459 45.7545 16.9133 41.917C18.0786 39.7562 19.9838 37.9567 22.3143 36.7373C21.2791 35.938 20.1817 35.2228 19.0324 34.5986C15.6719 32.7229 13.9387 29.8343 14.1526 26.4615C14.5042 20.9622 19.8879 15.1999 27.553 12.1245C34.37 9.38838 41.2164 10.0816 43.8247 13.7691C44.7367 15.0573 46.3543 18.6366 41.654 23.9958C39.5202 26.4246 36.3686 27.8554 32.7794 28.0225C29.3648 28.1725 26.0042 27.1597 24.1752 25.4265C23.9388 25.2023 23.8008 24.8935 23.7916 24.5677C23.7824 24.2419 23.9027 23.9258 24.1261 23.6885C24.3503 23.452 24.6592 23.3141 24.9849 23.3048C25.3107 23.2956 25.6269 23.4159 25.8641 23.6393C27.1916 24.8955 29.9327 25.6552 32.6663 25.5642C35.5819 25.429 38.1189 24.2957 39.8053 22.3708C42.3374 19.4848 43.0528 16.933 41.8162 15.1876C40.1765 12.8669 34.9329 11.8098 28.4675 14.4034C21.7685 17.0928 16.8912 22.1152 16.6036 26.6164C16.4512 29.0231 17.7049 31.0414 20.2296 32.45C22.2258 33.5612 23.75 34.6256 24.8611 35.6876C25.3528 35.5377 25.8543 35.4123 26.3656 35.309C29.5639 34.6822 32.4451 35.1689 34.2864 36.6685C35.5327 37.6863 36.2162 38.9179 36.312 40.3265C36.4915 42.9372 34.4953 45.1178 34.4093 45.2112C34.2995 45.3295 34.1675 45.4251 34.0208 45.4924C33.8742 45.5597 33.7157 45.5974 33.5544 45.6035C33.3931 45.6095 33.2322 45.5838 33.0809 45.5276C32.9296 45.4715 32.7908 45.3861 32.6725 45.2764C32.5542 45.1666 32.4586 45.0346 32.3913 44.8879C32.324 44.7412 32.2862 44.5827 32.2802 44.4214C32.2741 44.2602 32.2999 44.0993 32.3561 43.948C32.4122 43.7966 32.4976 43.6579 32.6073 43.5395C32.9884 43.1216 33.9545 41.7622 33.8611 40.4838C33.8095 39.7758 33.4407 39.149 32.7327 38.5737C31.5035 37.5683 29.2492 37.2364 26.845 37.7207L26.523 37.787C26.8253 38.3475 27.0269 38.913 27.1351 39.4956C27.4743 41.3098 26.845 43.1978 25.2594 45.1055C23.4746 47.2615 20.9745 48.5496 18.9734 48.5496ZM24.1261 38.5934C21.9259 39.589 20.0993 41.1869 19.0767 43.0823C18.113 44.8695 18.1548 45.8037 18.408 45.9758C19.0717 46.4256 21.5596 45.7152 23.3689 43.5395C24.4776 42.1998 24.9226 41.0296 24.721 39.9504C24.6158 39.4627 24.4134 39.0012 24.1261 38.5934Z" fill="white"/>
</g>
<defs>
<clipPath id="clip0_589_52">
<rect width="59" height="59" fill="white"/>
</clipPath>
</defs>
</svg>
