<svg width="59" height="59" viewBox="0 0 59 59" fill="none" xmlns="http://www.w3.org/2000/svg">
<path d="M16.5938 25.2594C18.3146 18.3761 22.6167 14.9344 29.5 14.9344C39.825 14.9344 41.1156 22.6781 46.2781 23.9688C49.7198 24.8292 52.7313 23.5386 55.3125 20.0969C53.5917 26.9802 49.2896 30.4219 42.4062 30.4219C32.0813 30.4219 30.7906 22.6781 25.6281 21.3875C22.1865 20.5271 19.175 21.8177 16.5938 25.2594ZM3.6875 40.7469C5.40833 33.8636 9.71042 30.4219 16.5938 30.4219C26.9187 30.4219 28.2094 38.1656 33.3719 39.4563C36.8135 40.3167 39.825 39.0261 42.4062 35.5844C40.6854 42.4677 36.3833 45.9094 29.5 45.9094C19.175 45.9094 17.8844 38.1656 12.7219 36.875C9.28021 36.0146 6.26875 37.3052 3.6875 40.7469Z" fill="white"/>
</svg>
