<svg width="59" height="59" viewBox="0 0 59 59" fill="none" xmlns="http://www.w3.org/2000/svg">
<path d="M48.8411 12.3234C50.7524 12.7574 52.4893 13.7342 53.8325 15.1306C54.5723 15.8864 55.2148 16.7275 55.7455 17.6354C55.7702 17.7341 52.3011 20.0088 50.1972 21.2776C50.1209 21.328 49.8178 21.0059 49.4742 20.5106C49.0899 19.8658 48.5444 19.3266 47.8887 18.9434C47.2329 18.5602 46.4884 18.3454 45.7245 18.3192C43.3063 18.157 41.748 19.393 41.7592 21.4595C41.7384 21.9672 41.857 22.4711 42.1028 22.919C42.6349 23.9928 43.6229 24.6371 46.7259 25.9498C52.4381 28.3494 54.89 29.9316 56.4034 32.18C57.2588 33.6006 57.7856 35.1866 57.947 36.8269C58.1083 38.4671 57.9003 40.122 57.3374 41.6755C56.5639 43.3792 55.3372 44.8498 53.7847 45.9345C52.2322 47.0193 50.4105 47.6787 48.5087 47.8444C46.4872 48.0707 44.4447 48.0501 42.4284 47.783C39.3399 47.2877 36.4948 45.841 34.3092 43.6544C33.4834 42.7468 32.7842 41.7365 32.23 40.6499C32.4631 40.4807 32.7085 40.3284 32.9642 40.1941C33.319 39.9969 34.6617 39.243 35.9281 38.5264L38.2273 37.2115L38.7078 37.8953C39.5171 39.0248 40.5473 39.9871 41.739 40.7266C42.9426 41.3709 44.3059 41.6762 45.6769 41.6085C47.0479 41.5408 48.3727 41.1027 49.5034 40.3431C50.0867 39.7882 50.4514 39.0507 50.5335 38.2598C50.6156 37.4689 50.4099 36.675 49.9525 36.0172C49.3328 35.1516 48.0664 34.424 44.4671 32.901C41.6449 31.9722 39.0742 30.4327 36.9475 28.3976C35.9347 27.2711 35.1867 25.942 34.756 24.5034C34.4376 22.8646 34.3906 21.1866 34.6168 19.5332C35.0393 17.6307 36.0509 15.901 37.5145 14.5784C38.978 13.2558 40.8228 12.4043 42.7988 12.1393C44.811 11.9047 46.8478 11.9667 48.8411 12.3234ZM30.1082 15.5733L30.1329 18.7597H19.7369V47.5726H12.4059V18.7662H2.00995V15.6369C1.9823 14.5652 2.01228 13.4928 2.09976 12.4242C2.13794 12.3738 8.45857 12.3497 16.1219 12.3628L30.0677 12.4001L30.1082 15.5733Z" fill="white"/>
</svg>
