<svg width="59" height="59" viewBox="0 0 59 59" fill="none" xmlns="http://www.w3.org/2000/svg">
<path d="M29.5 4.91666C24.6378 4.91661 19.8847 6.3584 15.842 9.05968C11.7992 11.761 8.64819 15.6004 6.78751 20.0925C4.92683 24.5846 4.44001 29.5276 5.38861 34.2964C6.33721 39.0652 8.67863 43.4456 12.1168 46.8836C15.5549 50.3217 19.9354 52.663 24.7042 53.6115C29.473 54.56 34.4159 54.073 38.908 52.2122C43.4 50.3515 47.2394 47.2004 49.9406 43.1575C52.6418 39.1147 54.0835 34.3616 54.0833 29.4994C54.0759 22.9818 51.4835 16.7333 46.8748 12.1248C42.2661 7.5162 36.0176 4.92392 29.5 4.91666ZM7.3978 29.4994C7.39536 26.3998 8.04747 23.3346 9.31146 20.5044L19.8548 49.3911C16.1202 47.5796 12.9711 44.7531 10.768 41.2352C8.56496 37.7173 7.39699 33.6502 7.3978 29.4994ZM29.5 51.6034C27.3862 51.6034 25.2834 51.3002 23.2558 50.7028L29.8881 31.4327L36.6812 50.0456C36.7255 50.1513 36.7785 50.2532 36.8397 50.3502C34.4818 51.1809 31.9999 51.6047 29.5 51.6034ZM32.5459 19.1365C33.8765 19.0666 35.0756 18.9266 35.0756 18.9266C35.3146 18.9046 35.5353 18.7894 35.69 18.6059C35.8447 18.4225 35.921 18.1856 35.9025 17.9463C35.884 17.7071 35.7721 17.4847 35.591 17.3273C35.4098 17.1699 35.1741 17.09 34.9346 17.105C34.9346 17.105 31.3545 17.386 29.0432 17.386C26.8718 17.386 23.2224 17.105 23.2224 17.105C22.9832 17.0908 22.748 17.171 22.5675 17.3285C22.387 17.486 22.2755 17.7081 22.2571 17.9469C22.2387 18.1858 22.3149 18.4224 22.4693 18.6056C22.6236 18.7888 22.8437 18.9041 23.0823 18.9266C23.0823 18.9266 24.2094 19.0666 25.4005 19.1365L28.844 28.5716L24.006 43.0779L15.9578 19.1365C17.2894 19.0666 18.4873 18.9267 18.4873 18.9267C18.7261 18.9044 18.9465 18.7891 19.101 18.6056C19.2555 18.4222 19.3317 18.1854 19.3131 17.9463C19.2946 17.7072 19.1828 17.485 19.0018 17.3276C18.8209 17.1702 18.5853 17.0903 18.346 17.1051C18.346 17.1051 14.7668 17.3861 12.4555 17.3861C12.0408 17.3861 11.5516 17.3759 11.0331 17.3592C12.7903 14.6849 15.1075 12.4241 17.8243 10.7333C20.5412 9.0425 23.5928 7.96198 26.7683 7.56646C29.9438 7.17095 33.1673 7.46988 36.2159 8.4426C39.2644 9.41531 42.0654 11.0386 44.4249 13.2002C44.3298 13.1943 44.2368 13.1825 44.1389 13.1825C43.1273 13.2126 42.1688 13.6423 41.4732 14.3774C40.7776 15.1126 40.4015 16.0933 40.4273 17.1051C40.659 19.0002 41.4104 20.7943 42.5984 22.289C43.76 24.1122 44.3909 26.2229 44.4206 28.3845C44.1909 30.8322 43.625 33.2365 42.7388 35.5297L40.5337 42.8957L32.5459 19.1365ZM40.6117 48.6037L47.3625 29.0853C48.434 26.5814 49.005 23.892 49.0433 21.1687C49.0447 20.4086 48.9951 19.6493 48.8948 18.8958C51.6569 23.9507 52.3368 29.8842 50.7897 35.4328C49.2426 40.9815 45.5908 45.7072 40.6117 48.6037Z" fill="white"/>
</svg>
